%TF.GenerationSoftware,KiCad,Pcbnew,7.0.8*%
%TF.CreationDate,2023-10-07T15:52:59+09:00*%
%TF.ProjectId,KiCad,4b694361-642e-46b6-9963-61645f706362,rev?*%
%TF.SameCoordinates,PX41cdb40PY67f3540*%
%TF.FileFunction,Legend,Top*%
%TF.FilePolarity,Positive*%
%FSLAX46Y46*%
G04 Gerber Fmt 4.6, Leading zero omitted, Abs format (unit mm)*
G04 Created by KiCad (PCBNEW 7.0.8) date 2023-10-07 15:52:59*
%MOMM*%
%LPD*%
G01*
G04 APERTURE LIST*
%ADD10C,0.150000*%
%ADD11C,0.950000*%
%ADD12C,0.120000*%
%ADD13C,0.100000*%
G04 APERTURE END LIST*
D10*
X12910776Y30422745D02*
X12910776Y29648936D01*
X12910776Y29648936D02*
X12434585Y30065602D01*
X12434585Y30065602D02*
X12434585Y29887031D01*
X12434585Y29887031D02*
X12375061Y29767983D01*
X12375061Y29767983D02*
X12315538Y29708459D01*
X12315538Y29708459D02*
X12196490Y29648936D01*
X12196490Y29648936D02*
X11898871Y29648936D01*
X11898871Y29648936D02*
X11779823Y29708459D01*
X11779823Y29708459D02*
X11720300Y29767983D01*
X11720300Y29767983D02*
X11660776Y29887031D01*
X11660776Y29887031D02*
X11660776Y30244174D01*
X11660776Y30244174D02*
X11720300Y30363221D01*
X11720300Y30363221D02*
X11779823Y30422745D01*
X11779823Y29113221D02*
X11720300Y29053698D01*
X11720300Y29053698D02*
X11660776Y29113221D01*
X11660776Y29113221D02*
X11720300Y29172745D01*
X11720300Y29172745D02*
X11779823Y29113221D01*
X11779823Y29113221D02*
X11660776Y29113221D01*
X12910776Y28637031D02*
X12910776Y27863222D01*
X12910776Y27863222D02*
X12434585Y28279888D01*
X12434585Y28279888D02*
X12434585Y28101317D01*
X12434585Y28101317D02*
X12375061Y27982269D01*
X12375061Y27982269D02*
X12315538Y27922745D01*
X12315538Y27922745D02*
X12196490Y27863222D01*
X12196490Y27863222D02*
X11898871Y27863222D01*
X11898871Y27863222D02*
X11779823Y27922745D01*
X11779823Y27922745D02*
X11720300Y27982269D01*
X11720300Y27982269D02*
X11660776Y28101317D01*
X11660776Y28101317D02*
X11660776Y28458460D01*
X11660776Y28458460D02*
X11720300Y28577507D01*
X11720300Y28577507D02*
X11779823Y28637031D01*
X12910776Y27506079D02*
X11660776Y27089412D01*
X11660776Y27089412D02*
X12910776Y26672746D01*
X12910776Y25065602D02*
X12910776Y24827507D01*
X12910776Y24827507D02*
X12851252Y24708459D01*
X12851252Y24708459D02*
X12732204Y24589412D01*
X12732204Y24589412D02*
X12494109Y24529888D01*
X12494109Y24529888D02*
X12077442Y24529888D01*
X12077442Y24529888D02*
X11839347Y24589412D01*
X11839347Y24589412D02*
X11720300Y24708459D01*
X11720300Y24708459D02*
X11660776Y24827507D01*
X11660776Y24827507D02*
X11660776Y25065602D01*
X11660776Y25065602D02*
X11720300Y25184650D01*
X11720300Y25184650D02*
X11839347Y25303697D01*
X11839347Y25303697D02*
X12077442Y25363221D01*
X12077442Y25363221D02*
X12494109Y25363221D01*
X12494109Y25363221D02*
X12732204Y25303697D01*
X12732204Y25303697D02*
X12851252Y25184650D01*
X12851252Y25184650D02*
X12910776Y25065602D01*
X11660776Y23994173D02*
X12910776Y23994173D01*
X12910776Y23994173D02*
X11660776Y23279888D01*
X11660776Y23279888D02*
X12910776Y23279888D01*
X11660776Y22089411D02*
X11660776Y22684649D01*
X11660776Y22684649D02*
X12910776Y22684649D01*
X12256014Y21434649D02*
X11660776Y21434649D01*
X12910776Y21851316D02*
X12256014Y21434649D01*
X12256014Y21434649D02*
X12910776Y21017983D01*
X1696303Y31836967D02*
X2648684Y31836967D01*
X2410588Y31598872D02*
X2648684Y31836967D01*
X2648684Y31836967D02*
X2410588Y32075062D01*
X4910588Y31360777D02*
X4493922Y31956015D01*
X4196303Y31360777D02*
X4196303Y32610777D01*
X4196303Y32610777D02*
X4672493Y32610777D01*
X4672493Y32610777D02*
X4791541Y32551253D01*
X4791541Y32551253D02*
X4851064Y32491729D01*
X4851064Y32491729D02*
X4910588Y32372681D01*
X4910588Y32372681D02*
X4910588Y32194110D01*
X4910588Y32194110D02*
X4851064Y32075062D01*
X4851064Y32075062D02*
X4791541Y32015539D01*
X4791541Y32015539D02*
X4672493Y31956015D01*
X4672493Y31956015D02*
X4196303Y31956015D01*
X5327255Y32610777D02*
X6160588Y31360777D01*
X6160588Y32610777D02*
X5327255Y31360777D01*
X2848684Y41836967D02*
X1896303Y41836967D01*
X2134398Y41598872D02*
X1896303Y41836967D01*
X1896303Y41836967D02*
X2134398Y42075062D01*
X4217731Y42610777D02*
X4932017Y42610777D01*
X4574874Y41360777D02*
X4574874Y42610777D01*
X5229636Y42610777D02*
X6062969Y41360777D01*
X6062969Y42610777D02*
X5229636Y41360777D01*
D11*
X2450000Y28400000D02*
G75*
G03*
X2450000Y28400000I-475000J0D01*
G01*
D10*
X9641666Y42520181D02*
X9641666Y41805896D01*
X9641666Y41805896D02*
X9594047Y41663039D01*
X9594047Y41663039D02*
X9498809Y41567800D01*
X9498809Y41567800D02*
X9355952Y41520181D01*
X9355952Y41520181D02*
X9260714Y41520181D01*
X10070238Y42424943D02*
X10117857Y42472562D01*
X10117857Y42472562D02*
X10213095Y42520181D01*
X10213095Y42520181D02*
X10451190Y42520181D01*
X10451190Y42520181D02*
X10546428Y42472562D01*
X10546428Y42472562D02*
X10594047Y42424943D01*
X10594047Y42424943D02*
X10641666Y42329705D01*
X10641666Y42329705D02*
X10641666Y42234467D01*
X10641666Y42234467D02*
X10594047Y42091610D01*
X10594047Y42091610D02*
X10022619Y41520181D01*
X10022619Y41520181D02*
X10641666Y41520181D01*
X13645833Y35745181D02*
X13312500Y36221372D01*
X13074405Y35745181D02*
X13074405Y36745181D01*
X13074405Y36745181D02*
X13455357Y36745181D01*
X13455357Y36745181D02*
X13550595Y36697562D01*
X13550595Y36697562D02*
X13598214Y36649943D01*
X13598214Y36649943D02*
X13645833Y36554705D01*
X13645833Y36554705D02*
X13645833Y36411848D01*
X13645833Y36411848D02*
X13598214Y36316610D01*
X13598214Y36316610D02*
X13550595Y36268991D01*
X13550595Y36268991D02*
X13455357Y36221372D01*
X13455357Y36221372D02*
X13074405Y36221372D01*
X14502976Y36411848D02*
X14502976Y35745181D01*
X14264881Y36792800D02*
X14026786Y36078515D01*
X14026786Y36078515D02*
X14645833Y36078515D01*
X13745833Y38245181D02*
X13412500Y38721372D01*
X13174405Y38245181D02*
X13174405Y39245181D01*
X13174405Y39245181D02*
X13555357Y39245181D01*
X13555357Y39245181D02*
X13650595Y39197562D01*
X13650595Y39197562D02*
X13698214Y39149943D01*
X13698214Y39149943D02*
X13745833Y39054705D01*
X13745833Y39054705D02*
X13745833Y38911848D01*
X13745833Y38911848D02*
X13698214Y38816610D01*
X13698214Y38816610D02*
X13650595Y38768991D01*
X13650595Y38768991D02*
X13555357Y38721372D01*
X13555357Y38721372D02*
X13174405Y38721372D01*
X14079167Y39245181D02*
X14698214Y39245181D01*
X14698214Y39245181D02*
X14364881Y38864229D01*
X14364881Y38864229D02*
X14507738Y38864229D01*
X14507738Y38864229D02*
X14602976Y38816610D01*
X14602976Y38816610D02*
X14650595Y38768991D01*
X14650595Y38768991D02*
X14698214Y38673753D01*
X14698214Y38673753D02*
X14698214Y38435658D01*
X14698214Y38435658D02*
X14650595Y38340420D01*
X14650595Y38340420D02*
X14602976Y38292800D01*
X14602976Y38292800D02*
X14507738Y38245181D01*
X14507738Y38245181D02*
X14222024Y38245181D01*
X14222024Y38245181D02*
X14126786Y38292800D01*
X14126786Y38292800D02*
X14079167Y38340420D01*
X6366666Y30630181D02*
X6366666Y29915896D01*
X6366666Y29915896D02*
X6319047Y29773039D01*
X6319047Y29773039D02*
X6223809Y29677800D01*
X6223809Y29677800D02*
X6080952Y29630181D01*
X6080952Y29630181D02*
X5985714Y29630181D01*
X7366666Y29630181D02*
X6795238Y29630181D01*
X7080952Y29630181D02*
X7080952Y30630181D01*
X7080952Y30630181D02*
X6985714Y30487324D01*
X6985714Y30487324D02*
X6890476Y30392086D01*
X6890476Y30392086D02*
X6795238Y30344467D01*
X30238095Y27945181D02*
X30238095Y27135658D01*
X30238095Y27135658D02*
X30285714Y27040420D01*
X30285714Y27040420D02*
X30333333Y26992800D01*
X30333333Y26992800D02*
X30428571Y26945181D01*
X30428571Y26945181D02*
X30619047Y26945181D01*
X30619047Y26945181D02*
X30714285Y26992800D01*
X30714285Y26992800D02*
X30761904Y27040420D01*
X30761904Y27040420D02*
X30809523Y27135658D01*
X30809523Y27135658D02*
X30809523Y27945181D01*
X31809523Y26945181D02*
X31238095Y26945181D01*
X31523809Y26945181D02*
X31523809Y27945181D01*
X31523809Y27945181D02*
X31428571Y27802324D01*
X31428571Y27802324D02*
X31333333Y27707086D01*
X31333333Y27707086D02*
X31238095Y27659467D01*
X13433333Y40845181D02*
X13100000Y41321372D01*
X12861905Y40845181D02*
X12861905Y41845181D01*
X12861905Y41845181D02*
X13242857Y41845181D01*
X13242857Y41845181D02*
X13338095Y41797562D01*
X13338095Y41797562D02*
X13385714Y41749943D01*
X13385714Y41749943D02*
X13433333Y41654705D01*
X13433333Y41654705D02*
X13433333Y41511848D01*
X13433333Y41511848D02*
X13385714Y41416610D01*
X13385714Y41416610D02*
X13338095Y41368991D01*
X13338095Y41368991D02*
X13242857Y41321372D01*
X13242857Y41321372D02*
X12861905Y41321372D01*
X14385714Y40845181D02*
X13814286Y40845181D01*
X14100000Y40845181D02*
X14100000Y41845181D01*
X14100000Y41845181D02*
X14004762Y41702324D01*
X14004762Y41702324D02*
X13909524Y41607086D01*
X13909524Y41607086D02*
X13814286Y41559467D01*
X5047618Y10095181D02*
X4714285Y10571372D01*
X4476190Y10095181D02*
X4476190Y11095181D01*
X4476190Y11095181D02*
X4857142Y11095181D01*
X4857142Y11095181D02*
X4952380Y11047562D01*
X4952380Y11047562D02*
X4999999Y10999943D01*
X4999999Y10999943D02*
X5047618Y10904705D01*
X5047618Y10904705D02*
X5047618Y10761848D01*
X5047618Y10761848D02*
X4999999Y10666610D01*
X4999999Y10666610D02*
X4952380Y10618991D01*
X4952380Y10618991D02*
X4857142Y10571372D01*
X4857142Y10571372D02*
X4476190Y10571372D01*
X5476190Y10618991D02*
X5809523Y10618991D01*
X5952380Y10095181D02*
X5476190Y10095181D01*
X5476190Y10095181D02*
X5476190Y11095181D01*
X5476190Y11095181D02*
X5952380Y11095181D01*
X6333333Y10142800D02*
X6476190Y10095181D01*
X6476190Y10095181D02*
X6714285Y10095181D01*
X6714285Y10095181D02*
X6809523Y10142800D01*
X6809523Y10142800D02*
X6857142Y10190420D01*
X6857142Y10190420D02*
X6904761Y10285658D01*
X6904761Y10285658D02*
X6904761Y10380896D01*
X6904761Y10380896D02*
X6857142Y10476134D01*
X6857142Y10476134D02*
X6809523Y10523753D01*
X6809523Y10523753D02*
X6714285Y10571372D01*
X6714285Y10571372D02*
X6523809Y10618991D01*
X6523809Y10618991D02*
X6428571Y10666610D01*
X6428571Y10666610D02*
X6380952Y10714229D01*
X6380952Y10714229D02*
X6333333Y10809467D01*
X6333333Y10809467D02*
X6333333Y10904705D01*
X6333333Y10904705D02*
X6380952Y10999943D01*
X6380952Y10999943D02*
X6428571Y11047562D01*
X6428571Y11047562D02*
X6523809Y11095181D01*
X6523809Y11095181D02*
X6761904Y11095181D01*
X6761904Y11095181D02*
X6904761Y11047562D01*
X7333333Y10618991D02*
X7666666Y10618991D01*
X7809523Y10095181D02*
X7333333Y10095181D01*
X7333333Y10095181D02*
X7333333Y11095181D01*
X7333333Y11095181D02*
X7809523Y11095181D01*
X8095238Y11095181D02*
X8666666Y11095181D01*
X8380952Y10095181D02*
X8380952Y11095181D01*
X13333333Y43445181D02*
X13000000Y43921372D01*
X12761905Y43445181D02*
X12761905Y44445181D01*
X12761905Y44445181D02*
X13142857Y44445181D01*
X13142857Y44445181D02*
X13238095Y44397562D01*
X13238095Y44397562D02*
X13285714Y44349943D01*
X13285714Y44349943D02*
X13333333Y44254705D01*
X13333333Y44254705D02*
X13333333Y44111848D01*
X13333333Y44111848D02*
X13285714Y44016610D01*
X13285714Y44016610D02*
X13238095Y43968991D01*
X13238095Y43968991D02*
X13142857Y43921372D01*
X13142857Y43921372D02*
X12761905Y43921372D01*
X13714286Y44349943D02*
X13761905Y44397562D01*
X13761905Y44397562D02*
X13857143Y44445181D01*
X13857143Y44445181D02*
X14095238Y44445181D01*
X14095238Y44445181D02*
X14190476Y44397562D01*
X14190476Y44397562D02*
X14238095Y44349943D01*
X14238095Y44349943D02*
X14285714Y44254705D01*
X14285714Y44254705D02*
X14285714Y44159467D01*
X14285714Y44159467D02*
X14238095Y44016610D01*
X14238095Y44016610D02*
X13666667Y43445181D01*
X13666667Y43445181D02*
X14285714Y43445181D01*
D12*
%TO.C,J2*%
X6275000Y34200000D02*
X275000Y34200000D01*
X9265000Y34020000D02*
X8935000Y34020000D01*
X275000Y37320000D02*
X6275000Y37320000D01*
X9332071Y39100000D02*
X8935000Y39100000D01*
X6275000Y34440000D02*
X275000Y34440000D01*
X6275000Y34020000D02*
X275000Y34020000D01*
X6275000Y40810000D02*
X6275000Y33070000D01*
X275000Y36560000D02*
X275000Y37320000D01*
X9265000Y34780000D02*
X8935000Y34780000D01*
X6275000Y36560000D02*
X275000Y36560000D01*
X6275000Y39100000D02*
X275000Y39100000D01*
X275000Y34020000D02*
X275000Y34780000D01*
X6275000Y33070000D02*
X8935000Y33070000D01*
X275000Y39100000D02*
X275000Y39860000D01*
X9332071Y36560000D02*
X8935000Y36560000D01*
X6275000Y34680000D02*
X275000Y34680000D01*
X11645000Y34400000D02*
X11645000Y33130000D01*
X9332071Y39860000D02*
X8935000Y39860000D01*
X8935000Y33070000D02*
X8935000Y40810000D01*
X6275000Y34320000D02*
X275000Y34320000D01*
X8935000Y38210000D02*
X6275000Y38210000D01*
X6275000Y34080000D02*
X275000Y34080000D01*
X275000Y39860000D02*
X6275000Y39860000D01*
X11645000Y33130000D02*
X10375000Y33130000D01*
X275000Y34780000D02*
X6275000Y34780000D01*
X8935000Y35670000D02*
X6275000Y35670000D01*
X6275000Y34560000D02*
X275000Y34560000D01*
X9332071Y37320000D02*
X8935000Y37320000D01*
X8935000Y40810000D02*
X6275000Y40810000D01*
%TO.C,R4*%
X16245276Y36822500D02*
X16754724Y36822500D01*
X16245276Y35777500D02*
X16754724Y35777500D01*
%TO.C,R3*%
X16245276Y39322500D02*
X16754724Y39322500D01*
X16245276Y38277500D02*
X16754724Y38277500D01*
%TO.C,J1*%
X3610000Y29020000D02*
X4935000Y29020000D01*
X4935000Y29085000D02*
X4935000Y29020000D01*
X4935000Y29085000D02*
X8465000Y29085000D01*
X4935000Y22680000D02*
X4935000Y22615000D01*
X4935000Y22615000D02*
X8465000Y22615000D01*
X8465000Y29085000D02*
X8465000Y29020000D01*
X8465000Y22680000D02*
X8465000Y22615000D01*
%TO.C,U1*%
X20500000Y52900000D02*
X20500000Y52600000D01*
X20500000Y52900000D02*
X41500000Y52900000D01*
X20500000Y50500000D02*
X20500000Y50100000D01*
X20500000Y50233000D02*
X23507000Y50233000D01*
X20500000Y47900000D02*
X20500000Y47500000D01*
X20500000Y45400000D02*
X20500000Y45000000D01*
X20500000Y42800000D02*
X20500000Y42400000D01*
X20500000Y40300000D02*
X20500000Y39900000D01*
X20500000Y37800000D02*
X20500000Y37400000D01*
X20500000Y35200000D02*
X20500000Y34800000D01*
X20500000Y32700000D02*
X20500000Y32300000D01*
X20500000Y30100000D02*
X20500000Y29700000D01*
X20500000Y27600000D02*
X20500000Y27200000D01*
X20500000Y25100000D02*
X20500000Y24700000D01*
X20500000Y22500000D02*
X20500000Y22100000D01*
X20500000Y20000000D02*
X20500000Y19600000D01*
X20500000Y17400000D02*
X20500000Y17000000D01*
X20500000Y14900000D02*
X20500000Y14500000D01*
X20500000Y12300000D02*
X20500000Y11900000D01*
X20500000Y9800000D02*
X20500000Y9400000D01*
X20500000Y7300000D02*
X20500000Y6900000D01*
X20500000Y4700000D02*
X20500000Y4300000D01*
X23507000Y50233000D02*
X23507000Y52900000D01*
X27300000Y1900000D02*
X20500000Y1900000D01*
X29500000Y1900000D02*
X29900000Y1900000D01*
X32100000Y1900000D02*
X32500000Y1900000D01*
X41500000Y52900000D02*
X41500000Y52600000D01*
X41500000Y50500000D02*
X41500000Y50100000D01*
X41500000Y47900000D02*
X41500000Y47500000D01*
X41500000Y45400000D02*
X41500000Y45000000D01*
X41500000Y42800000D02*
X41500000Y42400000D01*
X41500000Y40300000D02*
X41500000Y39900000D01*
X41500000Y37800000D02*
X41500000Y37400000D01*
X41500000Y35200000D02*
X41500000Y34800000D01*
X41500000Y32700000D02*
X41500000Y32300000D01*
X41500000Y30100000D02*
X41500000Y29700000D01*
X41500000Y27600000D02*
X41500000Y27200000D01*
X41500000Y25100000D02*
X41500000Y24700000D01*
X41500000Y22500000D02*
X41500000Y22100000D01*
X41500000Y20000000D02*
X41500000Y19600000D01*
X41500000Y17400000D02*
X41500000Y17000000D01*
X41500000Y14900000D02*
X41500000Y14500000D01*
X41500000Y12300000D02*
X41500000Y11900000D01*
X41500000Y9800000D02*
X41500000Y9400000D01*
X41500000Y7300000D02*
X41500000Y6900000D01*
X41500000Y4700000D02*
X41500000Y4300000D01*
X41500000Y1900000D02*
X34700000Y1900000D01*
D13*
X30500000Y22800000D02*
X37800000Y22800000D01*
X37800000Y22800000D02*
X37800000Y20500000D01*
X37800000Y20500000D02*
X30500000Y20500000D01*
X30500000Y20500000D02*
X30500000Y22800000D01*
D12*
%TO.C,R1*%
X15932776Y41822500D02*
X16442224Y41822500D01*
X15932776Y40777500D02*
X16442224Y40777500D01*
%TO.C,SW1*%
X2500000Y15750000D02*
X2500000Y14250000D01*
X3750000Y11750000D02*
X8250000Y11750000D01*
X8250000Y18250000D02*
X3750000Y18250000D01*
X9500000Y14250000D02*
X9500000Y15750000D01*
%TO.C,R2*%
X15932776Y44422500D02*
X16442224Y44422500D01*
X15932776Y43377500D02*
X16442224Y43377500D01*
%TD*%
M02*
