%TF.GenerationSoftware,KiCad,Pcbnew,7.0.8*%
%TF.CreationDate,2023-10-07T15:53:17+09:00*%
%TF.ProjectId,KiCad,4b694361-642e-46b6-9963-61645f706362,rev?*%
%TF.SameCoordinates,PX41cdb40PY67f3540*%
%TF.FileFunction,Drillmap*%
%TF.FilePolarity,Positive*%
%FSLAX45Y45*%
G04 Gerber Fmt 4.5, Leading zero omitted, Abs format (unit mm)*
G04 Created by KiCad (PCBNEW 7.0.8) date 2023-10-07 15:53:17*
%MOMM*%
%LPD*%
G01*
G04 APERTURE LIST*
%ADD10C,0.100000*%
%ADD11C,0.200000*%
%ADD12C,0.040000*%
%ADD13C,0.102000*%
%ADD14C,0.110000*%
G04 APERTURE END LIST*
D10*
X5400000Y5400000D02*
X0Y5400000D01*
X0Y0D02*
X5400000Y0D01*
X0Y5400000D02*
X0Y0D01*
X5400000Y0D02*
X5400000Y5400000D01*
D11*
D12*
X190000Y2200000D02*
X230000Y2160000D01*
X230000Y2200000D02*
X190000Y2160000D01*
X1300000Y4150000D02*
X1340000Y4110000D01*
X1340000Y4150000D02*
X1300000Y4110000D01*
X1300000Y2860000D02*
X1340000Y2820000D01*
X1340000Y2860000D02*
X1300000Y2820000D01*
X1390000Y4410000D02*
X1430000Y4370000D01*
X1430000Y4410000D02*
X1390000Y4370000D01*
X1390000Y2730000D02*
X1430000Y2690000D01*
X1430000Y2730000D02*
X1390000Y2690000D01*
D10*
X1087500Y3948000D02*
G75*
G03*
X1087500Y3948000I-50000J0D01*
G01*
X1087500Y3694000D02*
G75*
G03*
X1087500Y3694000I-50000J0D01*
G01*
X1087500Y3440000D02*
G75*
G03*
X1087500Y3440000I-50000J0D01*
G01*
X3205000Y2170000D02*
G75*
G03*
X3205000Y2170000I-50000J0D01*
G01*
X3460000Y2170000D02*
G75*
G03*
X3460000Y2170000I-50000J0D01*
G01*
X3715000Y2170000D02*
G75*
G03*
X3715000Y2170000I-50000J0D01*
G01*
D13*
X2211000Y5204000D02*
X2211000Y5102000D01*
X2160000Y5153000D02*
X2262000Y5153000D01*
X2211000Y4950000D02*
X2211000Y4848000D01*
X2160000Y4899000D02*
X2262000Y4899000D01*
X2211000Y4696000D02*
X2211000Y4594000D01*
X2160000Y4645000D02*
X2262000Y4645000D01*
X2211000Y4442000D02*
X2211000Y4340000D01*
X2160000Y4391000D02*
X2262000Y4391000D01*
X2211000Y4188000D02*
X2211000Y4086000D01*
X2160000Y4137000D02*
X2262000Y4137000D01*
X2211000Y3934000D02*
X2211000Y3832000D01*
X2160000Y3883000D02*
X2262000Y3883000D01*
X2211000Y3680000D02*
X2211000Y3578000D01*
X2160000Y3629000D02*
X2262000Y3629000D01*
X2211000Y3426000D02*
X2211000Y3324000D01*
X2160000Y3375000D02*
X2262000Y3375000D01*
X2211000Y3172000D02*
X2211000Y3070000D01*
X2160000Y3121000D02*
X2262000Y3121000D01*
X2211000Y2918000D02*
X2211000Y2816000D01*
X2160000Y2867000D02*
X2262000Y2867000D01*
X2211000Y2664000D02*
X2211000Y2562000D01*
X2160000Y2613000D02*
X2262000Y2613000D01*
X2211000Y2410000D02*
X2211000Y2308000D01*
X2160000Y2359000D02*
X2262000Y2359000D01*
X2211000Y2156000D02*
X2211000Y2054000D01*
X2160000Y2105000D02*
X2262000Y2105000D01*
X2211000Y1902000D02*
X2211000Y1800000D01*
X2160000Y1851000D02*
X2262000Y1851000D01*
X2211000Y1648000D02*
X2211000Y1546000D01*
X2160000Y1597000D02*
X2262000Y1597000D01*
X2211000Y1394000D02*
X2211000Y1292000D01*
X2160000Y1343000D02*
X2262000Y1343000D01*
X2211000Y1140000D02*
X2211000Y1038000D01*
X2160000Y1089000D02*
X2262000Y1089000D01*
X2211000Y886000D02*
X2211000Y784000D01*
X2160000Y835000D02*
X2262000Y835000D01*
X2211000Y632000D02*
X2211000Y530000D01*
X2160000Y581000D02*
X2262000Y581000D01*
X2211000Y378000D02*
X2211000Y276000D01*
X2160000Y327000D02*
X2262000Y327000D01*
X2846000Y401000D02*
X2846000Y299000D01*
X2795000Y350000D02*
X2897000Y350000D01*
X3100000Y401000D02*
X3100000Y299000D01*
X3049000Y350000D02*
X3151000Y350000D01*
X3354000Y401000D02*
X3354000Y299000D01*
X3303000Y350000D02*
X3405000Y350000D01*
X3989000Y5204000D02*
X3989000Y5102000D01*
X3938000Y5153000D02*
X4040000Y5153000D01*
X3989000Y4950000D02*
X3989000Y4848000D01*
X3938000Y4899000D02*
X4040000Y4899000D01*
X3989000Y4696000D02*
X3989000Y4594000D01*
X3938000Y4645000D02*
X4040000Y4645000D01*
X3989000Y4442000D02*
X3989000Y4340000D01*
X3938000Y4391000D02*
X4040000Y4391000D01*
X3989000Y4188000D02*
X3989000Y4086000D01*
X3938000Y4137000D02*
X4040000Y4137000D01*
X3989000Y3934000D02*
X3989000Y3832000D01*
X3938000Y3883000D02*
X4040000Y3883000D01*
X3989000Y3680000D02*
X3989000Y3578000D01*
X3938000Y3629000D02*
X4040000Y3629000D01*
X3989000Y3426000D02*
X3989000Y3324000D01*
X3938000Y3375000D02*
X4040000Y3375000D01*
X3989000Y3172000D02*
X3989000Y3070000D01*
X3938000Y3121000D02*
X4040000Y3121000D01*
X3989000Y2918000D02*
X3989000Y2816000D01*
X3938000Y2867000D02*
X4040000Y2867000D01*
X3989000Y2664000D02*
X3989000Y2562000D01*
X3938000Y2613000D02*
X4040000Y2613000D01*
X3989000Y2410000D02*
X3989000Y2308000D01*
X3938000Y2359000D02*
X4040000Y2359000D01*
X3989000Y2156000D02*
X3989000Y2054000D01*
X3938000Y2105000D02*
X4040000Y2105000D01*
X3989000Y1902000D02*
X3989000Y1800000D01*
X3938000Y1851000D02*
X4040000Y1851000D01*
X3989000Y1648000D02*
X3989000Y1546000D01*
X3938000Y1597000D02*
X4040000Y1597000D01*
X3989000Y1394000D02*
X3989000Y1292000D01*
X3938000Y1343000D02*
X4040000Y1343000D01*
X3989000Y1140000D02*
X3989000Y1038000D01*
X3938000Y1089000D02*
X4040000Y1089000D01*
X3989000Y886000D02*
X3989000Y784000D01*
X3938000Y835000D02*
X4040000Y835000D01*
X3989000Y632000D02*
X3989000Y530000D01*
X3938000Y581000D02*
X4040000Y581000D01*
X3989000Y378000D02*
X3989000Y276000D01*
X3938000Y327000D02*
X4040000Y327000D01*
D14*
X313891Y1686109D02*
X313891Y1763891D01*
X236109Y1763891D01*
X236109Y1686109D01*
X313891Y1686109D01*
X313891Y1236109D02*
X313891Y1313891D01*
X236109Y1313891D01*
X236109Y1236109D01*
X313891Y1236109D01*
X963891Y1686109D02*
X963891Y1763891D01*
X886109Y1763891D01*
X886109Y1686109D01*
X963891Y1686109D01*
X963891Y1236109D02*
X963891Y1313891D01*
X886109Y1313891D01*
X886109Y1236109D01*
X963891Y1236109D01*
D11*
X255777Y-316484D02*
X255777Y-116484D01*
X255777Y-116484D02*
X303396Y-116484D01*
X303396Y-116484D02*
X331967Y-126008D01*
X331967Y-126008D02*
X351015Y-145055D01*
X351015Y-145055D02*
X360539Y-164103D01*
X360539Y-164103D02*
X370062Y-202198D01*
X370062Y-202198D02*
X370062Y-230769D01*
X370062Y-230769D02*
X360539Y-268865D01*
X360539Y-268865D02*
X351015Y-287912D01*
X351015Y-287912D02*
X331967Y-306960D01*
X331967Y-306960D02*
X303396Y-316484D01*
X303396Y-316484D02*
X255777Y-316484D01*
X455777Y-316484D02*
X455777Y-183150D01*
X455777Y-221246D02*
X465301Y-202198D01*
X465301Y-202198D02*
X474824Y-192674D01*
X474824Y-192674D02*
X493872Y-183150D01*
X493872Y-183150D02*
X512920Y-183150D01*
X579586Y-316484D02*
X579586Y-183150D01*
X579586Y-116484D02*
X570063Y-126008D01*
X570063Y-126008D02*
X579586Y-135531D01*
X579586Y-135531D02*
X589110Y-126008D01*
X589110Y-126008D02*
X579586Y-116484D01*
X579586Y-116484D02*
X579586Y-135531D01*
X703396Y-316484D02*
X684348Y-306960D01*
X684348Y-306960D02*
X674824Y-287912D01*
X674824Y-287912D02*
X674824Y-116484D01*
X808158Y-316484D02*
X789110Y-306960D01*
X789110Y-306960D02*
X779586Y-287912D01*
X779586Y-287912D02*
X779586Y-116484D01*
X1036729Y-316484D02*
X1036729Y-116484D01*
X1036729Y-116484D02*
X1103396Y-259341D01*
X1103396Y-259341D02*
X1170063Y-116484D01*
X1170063Y-116484D02*
X1170063Y-316484D01*
X1351015Y-316484D02*
X1351015Y-211722D01*
X1351015Y-211722D02*
X1341491Y-192674D01*
X1341491Y-192674D02*
X1322444Y-183150D01*
X1322444Y-183150D02*
X1284348Y-183150D01*
X1284348Y-183150D02*
X1265301Y-192674D01*
X1351015Y-306960D02*
X1331967Y-316484D01*
X1331967Y-316484D02*
X1284348Y-316484D01*
X1284348Y-316484D02*
X1265301Y-306960D01*
X1265301Y-306960D02*
X1255777Y-287912D01*
X1255777Y-287912D02*
X1255777Y-268865D01*
X1255777Y-268865D02*
X1265301Y-249817D01*
X1265301Y-249817D02*
X1284348Y-240293D01*
X1284348Y-240293D02*
X1331967Y-240293D01*
X1331967Y-240293D02*
X1351015Y-230769D01*
X1446253Y-183150D02*
X1446253Y-383150D01*
X1446253Y-192674D02*
X1465301Y-183150D01*
X1465301Y-183150D02*
X1503396Y-183150D01*
X1503396Y-183150D02*
X1522443Y-192674D01*
X1522443Y-192674D02*
X1531967Y-202198D01*
X1531967Y-202198D02*
X1541491Y-221246D01*
X1541491Y-221246D02*
X1541491Y-278389D01*
X1541491Y-278389D02*
X1531967Y-297436D01*
X1531967Y-297436D02*
X1522443Y-306960D01*
X1522443Y-306960D02*
X1503396Y-316484D01*
X1503396Y-316484D02*
X1465301Y-316484D01*
X1465301Y-316484D02*
X1446253Y-306960D01*
X1627205Y-297436D02*
X1636729Y-306960D01*
X1636729Y-306960D02*
X1627205Y-316484D01*
X1627205Y-316484D02*
X1617682Y-306960D01*
X1617682Y-306960D02*
X1627205Y-297436D01*
X1627205Y-297436D02*
X1627205Y-316484D01*
X1627205Y-192674D02*
X1636729Y-202198D01*
X1636729Y-202198D02*
X1627205Y-211722D01*
X1627205Y-211722D02*
X1617682Y-202198D01*
X1617682Y-202198D02*
X1627205Y-192674D01*
X1627205Y-192674D02*
X1627205Y-211722D01*
D12*
X-45000Y-625000D02*
X-5000Y-665000D01*
X-5000Y-625000D02*
X-45000Y-665000D01*
D11*
X293872Y-536484D02*
X312920Y-536484D01*
X312920Y-536484D02*
X331967Y-546008D01*
X331967Y-546008D02*
X341491Y-555531D01*
X341491Y-555531D02*
X351015Y-574579D01*
X351015Y-574579D02*
X360539Y-612674D01*
X360539Y-612674D02*
X360539Y-660293D01*
X360539Y-660293D02*
X351015Y-698389D01*
X351015Y-698389D02*
X341491Y-717436D01*
X341491Y-717436D02*
X331967Y-726960D01*
X331967Y-726960D02*
X312920Y-736484D01*
X312920Y-736484D02*
X293872Y-736484D01*
X293872Y-736484D02*
X274824Y-726960D01*
X274824Y-726960D02*
X265301Y-717436D01*
X265301Y-717436D02*
X255777Y-698389D01*
X255777Y-698389D02*
X246253Y-660293D01*
X246253Y-660293D02*
X246253Y-612674D01*
X246253Y-612674D02*
X255777Y-574579D01*
X255777Y-574579D02*
X265301Y-555531D01*
X265301Y-555531D02*
X274824Y-546008D01*
X274824Y-546008D02*
X293872Y-536484D01*
X446253Y-717436D02*
X455777Y-726960D01*
X455777Y-726960D02*
X446253Y-736484D01*
X446253Y-736484D02*
X436729Y-726960D01*
X436729Y-726960D02*
X446253Y-717436D01*
X446253Y-717436D02*
X446253Y-736484D01*
X627205Y-603150D02*
X627205Y-736484D01*
X579586Y-526960D02*
X531967Y-669817D01*
X531967Y-669817D02*
X655777Y-669817D01*
X770062Y-536484D02*
X789110Y-536484D01*
X789110Y-536484D02*
X808158Y-546008D01*
X808158Y-546008D02*
X817682Y-555531D01*
X817682Y-555531D02*
X827205Y-574579D01*
X827205Y-574579D02*
X836729Y-612674D01*
X836729Y-612674D02*
X836729Y-660293D01*
X836729Y-660293D02*
X827205Y-698389D01*
X827205Y-698389D02*
X817682Y-717436D01*
X817682Y-717436D02*
X808158Y-726960D01*
X808158Y-726960D02*
X789110Y-736484D01*
X789110Y-736484D02*
X770062Y-736484D01*
X770062Y-736484D02*
X751015Y-726960D01*
X751015Y-726960D02*
X741491Y-717436D01*
X741491Y-717436D02*
X731967Y-698389D01*
X731967Y-698389D02*
X722443Y-660293D01*
X722443Y-660293D02*
X722443Y-612674D01*
X722443Y-612674D02*
X731967Y-574579D01*
X731967Y-574579D02*
X741491Y-555531D01*
X741491Y-555531D02*
X751015Y-546008D01*
X751015Y-546008D02*
X770062Y-536484D01*
X960539Y-536484D02*
X979586Y-536484D01*
X979586Y-536484D02*
X998634Y-546008D01*
X998634Y-546008D02*
X1008158Y-555531D01*
X1008158Y-555531D02*
X1017682Y-574579D01*
X1017682Y-574579D02*
X1027205Y-612674D01*
X1027205Y-612674D02*
X1027205Y-660293D01*
X1027205Y-660293D02*
X1017682Y-698389D01*
X1017682Y-698389D02*
X1008158Y-717436D01*
X1008158Y-717436D02*
X998634Y-726960D01*
X998634Y-726960D02*
X979586Y-736484D01*
X979586Y-736484D02*
X960539Y-736484D01*
X960539Y-736484D02*
X941491Y-726960D01*
X941491Y-726960D02*
X931967Y-717436D01*
X931967Y-717436D02*
X922443Y-698389D01*
X922443Y-698389D02*
X912920Y-660293D01*
X912920Y-660293D02*
X912920Y-612674D01*
X912920Y-612674D02*
X922443Y-574579D01*
X922443Y-574579D02*
X931967Y-555531D01*
X931967Y-555531D02*
X941491Y-546008D01*
X941491Y-546008D02*
X960539Y-536484D01*
X1112920Y-736484D02*
X1112920Y-603150D01*
X1112920Y-622198D02*
X1122444Y-612674D01*
X1122444Y-612674D02*
X1141491Y-603150D01*
X1141491Y-603150D02*
X1170063Y-603150D01*
X1170063Y-603150D02*
X1189110Y-612674D01*
X1189110Y-612674D02*
X1198634Y-631722D01*
X1198634Y-631722D02*
X1198634Y-736484D01*
X1198634Y-631722D02*
X1208158Y-612674D01*
X1208158Y-612674D02*
X1227205Y-603150D01*
X1227205Y-603150D02*
X1255777Y-603150D01*
X1255777Y-603150D02*
X1274825Y-612674D01*
X1274825Y-612674D02*
X1284348Y-631722D01*
X1284348Y-631722D02*
X1284348Y-736484D01*
X1379586Y-736484D02*
X1379586Y-603150D01*
X1379586Y-622198D02*
X1389110Y-612674D01*
X1389110Y-612674D02*
X1408158Y-603150D01*
X1408158Y-603150D02*
X1436729Y-603150D01*
X1436729Y-603150D02*
X1455777Y-612674D01*
X1455777Y-612674D02*
X1465301Y-631722D01*
X1465301Y-631722D02*
X1465301Y-736484D01*
X1465301Y-631722D02*
X1474824Y-612674D01*
X1474824Y-612674D02*
X1493872Y-603150D01*
X1493872Y-603150D02*
X1522443Y-603150D01*
X1522443Y-603150D02*
X1541491Y-612674D01*
X1541491Y-612674D02*
X1551015Y-631722D01*
X1551015Y-631722D02*
X1551015Y-736484D01*
X1941491Y-526960D02*
X1770063Y-784103D01*
X2198634Y-536484D02*
X2217682Y-536484D01*
X2217682Y-536484D02*
X2236729Y-546008D01*
X2236729Y-546008D02*
X2246253Y-555531D01*
X2246253Y-555531D02*
X2255777Y-574579D01*
X2255777Y-574579D02*
X2265301Y-612674D01*
X2265301Y-612674D02*
X2265301Y-660293D01*
X2265301Y-660293D02*
X2255777Y-698389D01*
X2255777Y-698389D02*
X2246253Y-717436D01*
X2246253Y-717436D02*
X2236729Y-726960D01*
X2236729Y-726960D02*
X2217682Y-736484D01*
X2217682Y-736484D02*
X2198634Y-736484D01*
X2198634Y-736484D02*
X2179587Y-726960D01*
X2179587Y-726960D02*
X2170063Y-717436D01*
X2170063Y-717436D02*
X2160539Y-698389D01*
X2160539Y-698389D02*
X2151015Y-660293D01*
X2151015Y-660293D02*
X2151015Y-612674D01*
X2151015Y-612674D02*
X2160539Y-574579D01*
X2160539Y-574579D02*
X2170063Y-555531D01*
X2170063Y-555531D02*
X2179587Y-546008D01*
X2179587Y-546008D02*
X2198634Y-536484D01*
X2351015Y-717436D02*
X2360539Y-726960D01*
X2360539Y-726960D02*
X2351015Y-736484D01*
X2351015Y-736484D02*
X2341491Y-726960D01*
X2341491Y-726960D02*
X2351015Y-717436D01*
X2351015Y-717436D02*
X2351015Y-736484D01*
X2484348Y-536484D02*
X2503396Y-536484D01*
X2503396Y-536484D02*
X2522444Y-546008D01*
X2522444Y-546008D02*
X2531968Y-555531D01*
X2531968Y-555531D02*
X2541491Y-574579D01*
X2541491Y-574579D02*
X2551015Y-612674D01*
X2551015Y-612674D02*
X2551015Y-660293D01*
X2551015Y-660293D02*
X2541491Y-698389D01*
X2541491Y-698389D02*
X2531968Y-717436D01*
X2531968Y-717436D02*
X2522444Y-726960D01*
X2522444Y-726960D02*
X2503396Y-736484D01*
X2503396Y-736484D02*
X2484348Y-736484D01*
X2484348Y-736484D02*
X2465301Y-726960D01*
X2465301Y-726960D02*
X2455777Y-717436D01*
X2455777Y-717436D02*
X2446253Y-698389D01*
X2446253Y-698389D02*
X2436729Y-660293D01*
X2436729Y-660293D02*
X2436729Y-612674D01*
X2436729Y-612674D02*
X2446253Y-574579D01*
X2446253Y-574579D02*
X2455777Y-555531D01*
X2455777Y-555531D02*
X2465301Y-546008D01*
X2465301Y-546008D02*
X2484348Y-536484D01*
X2741491Y-736484D02*
X2627206Y-736484D01*
X2684348Y-736484D02*
X2684348Y-536484D01*
X2684348Y-536484D02*
X2665301Y-565055D01*
X2665301Y-565055D02*
X2646253Y-584103D01*
X2646253Y-584103D02*
X2627206Y-593627D01*
X2922444Y-536484D02*
X2827206Y-536484D01*
X2827206Y-536484D02*
X2817682Y-631722D01*
X2817682Y-631722D02*
X2827206Y-622198D01*
X2827206Y-622198D02*
X2846253Y-612674D01*
X2846253Y-612674D02*
X2893872Y-612674D01*
X2893872Y-612674D02*
X2912920Y-622198D01*
X2912920Y-622198D02*
X2922444Y-631722D01*
X2922444Y-631722D02*
X2931967Y-650770D01*
X2931967Y-650770D02*
X2931967Y-698389D01*
X2931967Y-698389D02*
X2922444Y-717436D01*
X2922444Y-717436D02*
X2912920Y-726960D01*
X2912920Y-726960D02*
X2893872Y-736484D01*
X2893872Y-736484D02*
X2846253Y-736484D01*
X2846253Y-736484D02*
X2827206Y-726960D01*
X2827206Y-726960D02*
X2817682Y-717436D01*
X2998634Y-536484D02*
X3131967Y-536484D01*
X3131967Y-536484D02*
X3046253Y-736484D01*
X3198634Y-536484D02*
X3198634Y-574579D01*
X3274825Y-536484D02*
X3274825Y-574579D01*
X3570063Y-812674D02*
X3560539Y-803150D01*
X3560539Y-803150D02*
X3541491Y-774579D01*
X3541491Y-774579D02*
X3531968Y-755531D01*
X3531968Y-755531D02*
X3522444Y-726960D01*
X3522444Y-726960D02*
X3512920Y-679341D01*
X3512920Y-679341D02*
X3512920Y-641246D01*
X3512920Y-641246D02*
X3522444Y-593627D01*
X3522444Y-593627D02*
X3531968Y-565055D01*
X3531968Y-565055D02*
X3541491Y-546008D01*
X3541491Y-546008D02*
X3560539Y-517436D01*
X3560539Y-517436D02*
X3570063Y-507912D01*
X3741491Y-536484D02*
X3646253Y-536484D01*
X3646253Y-536484D02*
X3636729Y-631722D01*
X3636729Y-631722D02*
X3646253Y-622198D01*
X3646253Y-622198D02*
X3665301Y-612674D01*
X3665301Y-612674D02*
X3712920Y-612674D01*
X3712920Y-612674D02*
X3731968Y-622198D01*
X3731968Y-622198D02*
X3741491Y-631722D01*
X3741491Y-631722D02*
X3751015Y-650770D01*
X3751015Y-650770D02*
X3751015Y-698389D01*
X3751015Y-698389D02*
X3741491Y-717436D01*
X3741491Y-717436D02*
X3731968Y-726960D01*
X3731968Y-726960D02*
X3712920Y-736484D01*
X3712920Y-736484D02*
X3665301Y-736484D01*
X3665301Y-736484D02*
X3646253Y-726960D01*
X3646253Y-726960D02*
X3636729Y-717436D01*
X3989110Y-736484D02*
X3989110Y-536484D01*
X4074825Y-736484D02*
X4074825Y-631722D01*
X4074825Y-631722D02*
X4065301Y-612674D01*
X4065301Y-612674D02*
X4046253Y-603150D01*
X4046253Y-603150D02*
X4017682Y-603150D01*
X4017682Y-603150D02*
X3998634Y-612674D01*
X3998634Y-612674D02*
X3989110Y-622198D01*
X4198634Y-736484D02*
X4179587Y-726960D01*
X4179587Y-726960D02*
X4170063Y-717436D01*
X4170063Y-717436D02*
X4160539Y-698389D01*
X4160539Y-698389D02*
X4160539Y-641246D01*
X4160539Y-641246D02*
X4170063Y-622198D01*
X4170063Y-622198D02*
X4179587Y-612674D01*
X4179587Y-612674D02*
X4198634Y-603150D01*
X4198634Y-603150D02*
X4227206Y-603150D01*
X4227206Y-603150D02*
X4246253Y-612674D01*
X4246253Y-612674D02*
X4255777Y-622198D01*
X4255777Y-622198D02*
X4265301Y-641246D01*
X4265301Y-641246D02*
X4265301Y-698389D01*
X4265301Y-698389D02*
X4255777Y-717436D01*
X4255777Y-717436D02*
X4246253Y-726960D01*
X4246253Y-726960D02*
X4227206Y-736484D01*
X4227206Y-736484D02*
X4198634Y-736484D01*
X4379587Y-736484D02*
X4360539Y-726960D01*
X4360539Y-726960D02*
X4351015Y-707912D01*
X4351015Y-707912D02*
X4351015Y-536484D01*
X4531968Y-726960D02*
X4512920Y-736484D01*
X4512920Y-736484D02*
X4474825Y-736484D01*
X4474825Y-736484D02*
X4455777Y-726960D01*
X4455777Y-726960D02*
X4446253Y-707912D01*
X4446253Y-707912D02*
X4446253Y-631722D01*
X4446253Y-631722D02*
X4455777Y-612674D01*
X4455777Y-612674D02*
X4474825Y-603150D01*
X4474825Y-603150D02*
X4512920Y-603150D01*
X4512920Y-603150D02*
X4531968Y-612674D01*
X4531968Y-612674D02*
X4541492Y-631722D01*
X4541492Y-631722D02*
X4541492Y-650770D01*
X4541492Y-650770D02*
X4446253Y-669817D01*
X4617682Y-726960D02*
X4636730Y-736484D01*
X4636730Y-736484D02*
X4674825Y-736484D01*
X4674825Y-736484D02*
X4693873Y-726960D01*
X4693873Y-726960D02*
X4703396Y-707912D01*
X4703396Y-707912D02*
X4703396Y-698389D01*
X4703396Y-698389D02*
X4693873Y-679341D01*
X4693873Y-679341D02*
X4674825Y-669817D01*
X4674825Y-669817D02*
X4646253Y-669817D01*
X4646253Y-669817D02*
X4627206Y-660293D01*
X4627206Y-660293D02*
X4617682Y-641246D01*
X4617682Y-641246D02*
X4617682Y-631722D01*
X4617682Y-631722D02*
X4627206Y-612674D01*
X4627206Y-612674D02*
X4646253Y-603150D01*
X4646253Y-603150D02*
X4674825Y-603150D01*
X4674825Y-603150D02*
X4693873Y-612674D01*
X4770063Y-812674D02*
X4779587Y-803150D01*
X4779587Y-803150D02*
X4798634Y-774579D01*
X4798634Y-774579D02*
X4808158Y-755531D01*
X4808158Y-755531D02*
X4817682Y-726960D01*
X4817682Y-726960D02*
X4827206Y-679341D01*
X4827206Y-679341D02*
X4827206Y-641246D01*
X4827206Y-641246D02*
X4817682Y-593627D01*
X4817682Y-593627D02*
X4808158Y-565055D01*
X4808158Y-565055D02*
X4798634Y-546008D01*
X4798634Y-546008D02*
X4779587Y-517436D01*
X4779587Y-517436D02*
X4770063Y-507912D01*
D10*
X-5000Y-909000D02*
G75*
G03*
X-5000Y-909000I-50000J0D01*
G01*
D11*
X360539Y-1000484D02*
X246253Y-1000484D01*
X303396Y-1000484D02*
X303396Y-800484D01*
X303396Y-800484D02*
X284348Y-829055D01*
X284348Y-829055D02*
X265301Y-848103D01*
X265301Y-848103D02*
X246253Y-857627D01*
X446253Y-981436D02*
X455777Y-990960D01*
X455777Y-990960D02*
X446253Y-1000484D01*
X446253Y-1000484D02*
X436729Y-990960D01*
X436729Y-990960D02*
X446253Y-981436D01*
X446253Y-981436D02*
X446253Y-1000484D01*
X579586Y-800484D02*
X598634Y-800484D01*
X598634Y-800484D02*
X617682Y-810008D01*
X617682Y-810008D02*
X627205Y-819531D01*
X627205Y-819531D02*
X636729Y-838579D01*
X636729Y-838579D02*
X646253Y-876674D01*
X646253Y-876674D02*
X646253Y-924293D01*
X646253Y-924293D02*
X636729Y-962388D01*
X636729Y-962388D02*
X627205Y-981436D01*
X627205Y-981436D02*
X617682Y-990960D01*
X617682Y-990960D02*
X598634Y-1000484D01*
X598634Y-1000484D02*
X579586Y-1000484D01*
X579586Y-1000484D02*
X560539Y-990960D01*
X560539Y-990960D02*
X551015Y-981436D01*
X551015Y-981436D02*
X541491Y-962388D01*
X541491Y-962388D02*
X531967Y-924293D01*
X531967Y-924293D02*
X531967Y-876674D01*
X531967Y-876674D02*
X541491Y-838579D01*
X541491Y-838579D02*
X551015Y-819531D01*
X551015Y-819531D02*
X560539Y-810008D01*
X560539Y-810008D02*
X579586Y-800484D01*
X770062Y-800484D02*
X789110Y-800484D01*
X789110Y-800484D02*
X808158Y-810008D01*
X808158Y-810008D02*
X817682Y-819531D01*
X817682Y-819531D02*
X827205Y-838579D01*
X827205Y-838579D02*
X836729Y-876674D01*
X836729Y-876674D02*
X836729Y-924293D01*
X836729Y-924293D02*
X827205Y-962388D01*
X827205Y-962388D02*
X817682Y-981436D01*
X817682Y-981436D02*
X808158Y-990960D01*
X808158Y-990960D02*
X789110Y-1000484D01*
X789110Y-1000484D02*
X770062Y-1000484D01*
X770062Y-1000484D02*
X751015Y-990960D01*
X751015Y-990960D02*
X741491Y-981436D01*
X741491Y-981436D02*
X731967Y-962388D01*
X731967Y-962388D02*
X722443Y-924293D01*
X722443Y-924293D02*
X722443Y-876674D01*
X722443Y-876674D02*
X731967Y-838579D01*
X731967Y-838579D02*
X741491Y-819531D01*
X741491Y-819531D02*
X751015Y-810008D01*
X751015Y-810008D02*
X770062Y-800484D01*
X960539Y-800484D02*
X979586Y-800484D01*
X979586Y-800484D02*
X998634Y-810008D01*
X998634Y-810008D02*
X1008158Y-819531D01*
X1008158Y-819531D02*
X1017682Y-838579D01*
X1017682Y-838579D02*
X1027205Y-876674D01*
X1027205Y-876674D02*
X1027205Y-924293D01*
X1027205Y-924293D02*
X1017682Y-962388D01*
X1017682Y-962388D02*
X1008158Y-981436D01*
X1008158Y-981436D02*
X998634Y-990960D01*
X998634Y-990960D02*
X979586Y-1000484D01*
X979586Y-1000484D02*
X960539Y-1000484D01*
X960539Y-1000484D02*
X941491Y-990960D01*
X941491Y-990960D02*
X931967Y-981436D01*
X931967Y-981436D02*
X922443Y-962388D01*
X922443Y-962388D02*
X912920Y-924293D01*
X912920Y-924293D02*
X912920Y-876674D01*
X912920Y-876674D02*
X922443Y-838579D01*
X922443Y-838579D02*
X931967Y-819531D01*
X931967Y-819531D02*
X941491Y-810008D01*
X941491Y-810008D02*
X960539Y-800484D01*
X1112920Y-1000484D02*
X1112920Y-867150D01*
X1112920Y-886198D02*
X1122444Y-876674D01*
X1122444Y-876674D02*
X1141491Y-867150D01*
X1141491Y-867150D02*
X1170063Y-867150D01*
X1170063Y-867150D02*
X1189110Y-876674D01*
X1189110Y-876674D02*
X1198634Y-895722D01*
X1198634Y-895722D02*
X1198634Y-1000484D01*
X1198634Y-895722D02*
X1208158Y-876674D01*
X1208158Y-876674D02*
X1227205Y-867150D01*
X1227205Y-867150D02*
X1255777Y-867150D01*
X1255777Y-867150D02*
X1274825Y-876674D01*
X1274825Y-876674D02*
X1284348Y-895722D01*
X1284348Y-895722D02*
X1284348Y-1000484D01*
X1379586Y-1000484D02*
X1379586Y-867150D01*
X1379586Y-886198D02*
X1389110Y-876674D01*
X1389110Y-876674D02*
X1408158Y-867150D01*
X1408158Y-867150D02*
X1436729Y-867150D01*
X1436729Y-867150D02*
X1455777Y-876674D01*
X1455777Y-876674D02*
X1465301Y-895722D01*
X1465301Y-895722D02*
X1465301Y-1000484D01*
X1465301Y-895722D02*
X1474824Y-876674D01*
X1474824Y-876674D02*
X1493872Y-867150D01*
X1493872Y-867150D02*
X1522443Y-867150D01*
X1522443Y-867150D02*
X1541491Y-876674D01*
X1541491Y-876674D02*
X1551015Y-895722D01*
X1551015Y-895722D02*
X1551015Y-1000484D01*
X1941491Y-790960D02*
X1770063Y-1048103D01*
X2198634Y-800484D02*
X2217682Y-800484D01*
X2217682Y-800484D02*
X2236729Y-810008D01*
X2236729Y-810008D02*
X2246253Y-819531D01*
X2246253Y-819531D02*
X2255777Y-838579D01*
X2255777Y-838579D02*
X2265301Y-876674D01*
X2265301Y-876674D02*
X2265301Y-924293D01*
X2265301Y-924293D02*
X2255777Y-962388D01*
X2255777Y-962388D02*
X2246253Y-981436D01*
X2246253Y-981436D02*
X2236729Y-990960D01*
X2236729Y-990960D02*
X2217682Y-1000484D01*
X2217682Y-1000484D02*
X2198634Y-1000484D01*
X2198634Y-1000484D02*
X2179587Y-990960D01*
X2179587Y-990960D02*
X2170063Y-981436D01*
X2170063Y-981436D02*
X2160539Y-962388D01*
X2160539Y-962388D02*
X2151015Y-924293D01*
X2151015Y-924293D02*
X2151015Y-876674D01*
X2151015Y-876674D02*
X2160539Y-838579D01*
X2160539Y-838579D02*
X2170063Y-819531D01*
X2170063Y-819531D02*
X2179587Y-810008D01*
X2179587Y-810008D02*
X2198634Y-800484D01*
X2351015Y-981436D02*
X2360539Y-990960D01*
X2360539Y-990960D02*
X2351015Y-1000484D01*
X2351015Y-1000484D02*
X2341491Y-990960D01*
X2341491Y-990960D02*
X2351015Y-981436D01*
X2351015Y-981436D02*
X2351015Y-1000484D01*
X2484348Y-800484D02*
X2503396Y-800484D01*
X2503396Y-800484D02*
X2522444Y-810008D01*
X2522444Y-810008D02*
X2531968Y-819531D01*
X2531968Y-819531D02*
X2541491Y-838579D01*
X2541491Y-838579D02*
X2551015Y-876674D01*
X2551015Y-876674D02*
X2551015Y-924293D01*
X2551015Y-924293D02*
X2541491Y-962388D01*
X2541491Y-962388D02*
X2531968Y-981436D01*
X2531968Y-981436D02*
X2522444Y-990960D01*
X2522444Y-990960D02*
X2503396Y-1000484D01*
X2503396Y-1000484D02*
X2484348Y-1000484D01*
X2484348Y-1000484D02*
X2465301Y-990960D01*
X2465301Y-990960D02*
X2455777Y-981436D01*
X2455777Y-981436D02*
X2446253Y-962388D01*
X2446253Y-962388D02*
X2436729Y-924293D01*
X2436729Y-924293D02*
X2436729Y-876674D01*
X2436729Y-876674D02*
X2446253Y-838579D01*
X2446253Y-838579D02*
X2455777Y-819531D01*
X2455777Y-819531D02*
X2465301Y-810008D01*
X2465301Y-810008D02*
X2484348Y-800484D01*
X2617682Y-800484D02*
X2741491Y-800484D01*
X2741491Y-800484D02*
X2674825Y-876674D01*
X2674825Y-876674D02*
X2703396Y-876674D01*
X2703396Y-876674D02*
X2722444Y-886198D01*
X2722444Y-886198D02*
X2731968Y-895722D01*
X2731968Y-895722D02*
X2741491Y-914769D01*
X2741491Y-914769D02*
X2741491Y-962388D01*
X2741491Y-962388D02*
X2731968Y-981436D01*
X2731968Y-981436D02*
X2722444Y-990960D01*
X2722444Y-990960D02*
X2703396Y-1000484D01*
X2703396Y-1000484D02*
X2646253Y-1000484D01*
X2646253Y-1000484D02*
X2627206Y-990960D01*
X2627206Y-990960D02*
X2617682Y-981436D01*
X2836729Y-1000484D02*
X2874825Y-1000484D01*
X2874825Y-1000484D02*
X2893872Y-990960D01*
X2893872Y-990960D02*
X2903396Y-981436D01*
X2903396Y-981436D02*
X2922444Y-952865D01*
X2922444Y-952865D02*
X2931967Y-914769D01*
X2931967Y-914769D02*
X2931967Y-838579D01*
X2931967Y-838579D02*
X2922444Y-819531D01*
X2922444Y-819531D02*
X2912920Y-810008D01*
X2912920Y-810008D02*
X2893872Y-800484D01*
X2893872Y-800484D02*
X2855777Y-800484D01*
X2855777Y-800484D02*
X2836729Y-810008D01*
X2836729Y-810008D02*
X2827206Y-819531D01*
X2827206Y-819531D02*
X2817682Y-838579D01*
X2817682Y-838579D02*
X2817682Y-886198D01*
X2817682Y-886198D02*
X2827206Y-905246D01*
X2827206Y-905246D02*
X2836729Y-914769D01*
X2836729Y-914769D02*
X2855777Y-924293D01*
X2855777Y-924293D02*
X2893872Y-924293D01*
X2893872Y-924293D02*
X2912920Y-914769D01*
X2912920Y-914769D02*
X2922444Y-905246D01*
X2922444Y-905246D02*
X2931967Y-886198D01*
X3103396Y-867150D02*
X3103396Y-1000484D01*
X3055777Y-790960D02*
X3008158Y-933817D01*
X3008158Y-933817D02*
X3131967Y-933817D01*
X3198634Y-800484D02*
X3198634Y-838579D01*
X3274825Y-800484D02*
X3274825Y-838579D01*
X3570063Y-1076674D02*
X3560539Y-1067150D01*
X3560539Y-1067150D02*
X3541491Y-1038579D01*
X3541491Y-1038579D02*
X3531968Y-1019531D01*
X3531968Y-1019531D02*
X3522444Y-990960D01*
X3522444Y-990960D02*
X3512920Y-943341D01*
X3512920Y-943341D02*
X3512920Y-905246D01*
X3512920Y-905246D02*
X3522444Y-857627D01*
X3522444Y-857627D02*
X3531968Y-829055D01*
X3531968Y-829055D02*
X3541491Y-810008D01*
X3541491Y-810008D02*
X3560539Y-781436D01*
X3560539Y-781436D02*
X3570063Y-771912D01*
X3731968Y-800484D02*
X3693872Y-800484D01*
X3693872Y-800484D02*
X3674825Y-810008D01*
X3674825Y-810008D02*
X3665301Y-819531D01*
X3665301Y-819531D02*
X3646253Y-848103D01*
X3646253Y-848103D02*
X3636729Y-886198D01*
X3636729Y-886198D02*
X3636729Y-962388D01*
X3636729Y-962388D02*
X3646253Y-981436D01*
X3646253Y-981436D02*
X3655777Y-990960D01*
X3655777Y-990960D02*
X3674825Y-1000484D01*
X3674825Y-1000484D02*
X3712920Y-1000484D01*
X3712920Y-1000484D02*
X3731968Y-990960D01*
X3731968Y-990960D02*
X3741491Y-981436D01*
X3741491Y-981436D02*
X3751015Y-962388D01*
X3751015Y-962388D02*
X3751015Y-914769D01*
X3751015Y-914769D02*
X3741491Y-895722D01*
X3741491Y-895722D02*
X3731968Y-886198D01*
X3731968Y-886198D02*
X3712920Y-876674D01*
X3712920Y-876674D02*
X3674825Y-876674D01*
X3674825Y-876674D02*
X3655777Y-886198D01*
X3655777Y-886198D02*
X3646253Y-895722D01*
X3646253Y-895722D02*
X3636729Y-914769D01*
X3989110Y-1000484D02*
X3989110Y-800484D01*
X4074825Y-1000484D02*
X4074825Y-895722D01*
X4074825Y-895722D02*
X4065301Y-876674D01*
X4065301Y-876674D02*
X4046253Y-867150D01*
X4046253Y-867150D02*
X4017682Y-867150D01*
X4017682Y-867150D02*
X3998634Y-876674D01*
X3998634Y-876674D02*
X3989110Y-886198D01*
X4198634Y-1000484D02*
X4179587Y-990960D01*
X4179587Y-990960D02*
X4170063Y-981436D01*
X4170063Y-981436D02*
X4160539Y-962388D01*
X4160539Y-962388D02*
X4160539Y-905246D01*
X4160539Y-905246D02*
X4170063Y-886198D01*
X4170063Y-886198D02*
X4179587Y-876674D01*
X4179587Y-876674D02*
X4198634Y-867150D01*
X4198634Y-867150D02*
X4227206Y-867150D01*
X4227206Y-867150D02*
X4246253Y-876674D01*
X4246253Y-876674D02*
X4255777Y-886198D01*
X4255777Y-886198D02*
X4265301Y-905246D01*
X4265301Y-905246D02*
X4265301Y-962388D01*
X4265301Y-962388D02*
X4255777Y-981436D01*
X4255777Y-981436D02*
X4246253Y-990960D01*
X4246253Y-990960D02*
X4227206Y-1000484D01*
X4227206Y-1000484D02*
X4198634Y-1000484D01*
X4379587Y-1000484D02*
X4360539Y-990960D01*
X4360539Y-990960D02*
X4351015Y-971912D01*
X4351015Y-971912D02*
X4351015Y-800484D01*
X4531968Y-990960D02*
X4512920Y-1000484D01*
X4512920Y-1000484D02*
X4474825Y-1000484D01*
X4474825Y-1000484D02*
X4455777Y-990960D01*
X4455777Y-990960D02*
X4446253Y-971912D01*
X4446253Y-971912D02*
X4446253Y-895722D01*
X4446253Y-895722D02*
X4455777Y-876674D01*
X4455777Y-876674D02*
X4474825Y-867150D01*
X4474825Y-867150D02*
X4512920Y-867150D01*
X4512920Y-867150D02*
X4531968Y-876674D01*
X4531968Y-876674D02*
X4541492Y-895722D01*
X4541492Y-895722D02*
X4541492Y-914769D01*
X4541492Y-914769D02*
X4446253Y-933817D01*
X4617682Y-990960D02*
X4636730Y-1000484D01*
X4636730Y-1000484D02*
X4674825Y-1000484D01*
X4674825Y-1000484D02*
X4693873Y-990960D01*
X4693873Y-990960D02*
X4703396Y-971912D01*
X4703396Y-971912D02*
X4703396Y-962388D01*
X4703396Y-962388D02*
X4693873Y-943341D01*
X4693873Y-943341D02*
X4674825Y-933817D01*
X4674825Y-933817D02*
X4646253Y-933817D01*
X4646253Y-933817D02*
X4627206Y-924293D01*
X4627206Y-924293D02*
X4617682Y-905246D01*
X4617682Y-905246D02*
X4617682Y-895722D01*
X4617682Y-895722D02*
X4627206Y-876674D01*
X4627206Y-876674D02*
X4646253Y-867150D01*
X4646253Y-867150D02*
X4674825Y-867150D01*
X4674825Y-867150D02*
X4693873Y-876674D01*
X4770063Y-1076674D02*
X4779587Y-1067150D01*
X4779587Y-1067150D02*
X4798634Y-1038579D01*
X4798634Y-1038579D02*
X4808158Y-1019531D01*
X4808158Y-1019531D02*
X4817682Y-990960D01*
X4817682Y-990960D02*
X4827206Y-943341D01*
X4827206Y-943341D02*
X4827206Y-905246D01*
X4827206Y-905246D02*
X4817682Y-857627D01*
X4817682Y-857627D02*
X4808158Y-829055D01*
X4808158Y-829055D02*
X4798634Y-810008D01*
X4798634Y-810008D02*
X4779587Y-781436D01*
X4779587Y-781436D02*
X4770063Y-771912D01*
D13*
X-56000Y-1122000D02*
X-56000Y-1224000D01*
X-107000Y-1173000D02*
X-5000Y-1173000D01*
D11*
X360539Y-1264484D02*
X246253Y-1264484D01*
X303396Y-1264484D02*
X303396Y-1064484D01*
X303396Y-1064484D02*
X284348Y-1093055D01*
X284348Y-1093055D02*
X265301Y-1112103D01*
X265301Y-1112103D02*
X246253Y-1121627D01*
X446253Y-1245436D02*
X455777Y-1254960D01*
X455777Y-1254960D02*
X446253Y-1264484D01*
X446253Y-1264484D02*
X436729Y-1254960D01*
X436729Y-1254960D02*
X446253Y-1245436D01*
X446253Y-1245436D02*
X446253Y-1264484D01*
X579586Y-1064484D02*
X598634Y-1064484D01*
X598634Y-1064484D02*
X617682Y-1074008D01*
X617682Y-1074008D02*
X627205Y-1083531D01*
X627205Y-1083531D02*
X636729Y-1102579D01*
X636729Y-1102579D02*
X646253Y-1140674D01*
X646253Y-1140674D02*
X646253Y-1188293D01*
X646253Y-1188293D02*
X636729Y-1226389D01*
X636729Y-1226389D02*
X627205Y-1245436D01*
X627205Y-1245436D02*
X617682Y-1254960D01*
X617682Y-1254960D02*
X598634Y-1264484D01*
X598634Y-1264484D02*
X579586Y-1264484D01*
X579586Y-1264484D02*
X560539Y-1254960D01*
X560539Y-1254960D02*
X551015Y-1245436D01*
X551015Y-1245436D02*
X541491Y-1226389D01*
X541491Y-1226389D02*
X531967Y-1188293D01*
X531967Y-1188293D02*
X531967Y-1140674D01*
X531967Y-1140674D02*
X541491Y-1102579D01*
X541491Y-1102579D02*
X551015Y-1083531D01*
X551015Y-1083531D02*
X560539Y-1074008D01*
X560539Y-1074008D02*
X579586Y-1064484D01*
X722443Y-1083531D02*
X731967Y-1074008D01*
X731967Y-1074008D02*
X751015Y-1064484D01*
X751015Y-1064484D02*
X798634Y-1064484D01*
X798634Y-1064484D02*
X817682Y-1074008D01*
X817682Y-1074008D02*
X827205Y-1083531D01*
X827205Y-1083531D02*
X836729Y-1102579D01*
X836729Y-1102579D02*
X836729Y-1121627D01*
X836729Y-1121627D02*
X827205Y-1150198D01*
X827205Y-1150198D02*
X712920Y-1264484D01*
X712920Y-1264484D02*
X836729Y-1264484D01*
X960539Y-1064484D02*
X979586Y-1064484D01*
X979586Y-1064484D02*
X998634Y-1074008D01*
X998634Y-1074008D02*
X1008158Y-1083531D01*
X1008158Y-1083531D02*
X1017682Y-1102579D01*
X1017682Y-1102579D02*
X1027205Y-1140674D01*
X1027205Y-1140674D02*
X1027205Y-1188293D01*
X1027205Y-1188293D02*
X1017682Y-1226389D01*
X1017682Y-1226389D02*
X1008158Y-1245436D01*
X1008158Y-1245436D02*
X998634Y-1254960D01*
X998634Y-1254960D02*
X979586Y-1264484D01*
X979586Y-1264484D02*
X960539Y-1264484D01*
X960539Y-1264484D02*
X941491Y-1254960D01*
X941491Y-1254960D02*
X931967Y-1245436D01*
X931967Y-1245436D02*
X922443Y-1226389D01*
X922443Y-1226389D02*
X912920Y-1188293D01*
X912920Y-1188293D02*
X912920Y-1140674D01*
X912920Y-1140674D02*
X922443Y-1102579D01*
X922443Y-1102579D02*
X931967Y-1083531D01*
X931967Y-1083531D02*
X941491Y-1074008D01*
X941491Y-1074008D02*
X960539Y-1064484D01*
X1112920Y-1264484D02*
X1112920Y-1131150D01*
X1112920Y-1150198D02*
X1122444Y-1140674D01*
X1122444Y-1140674D02*
X1141491Y-1131150D01*
X1141491Y-1131150D02*
X1170063Y-1131150D01*
X1170063Y-1131150D02*
X1189110Y-1140674D01*
X1189110Y-1140674D02*
X1198634Y-1159722D01*
X1198634Y-1159722D02*
X1198634Y-1264484D01*
X1198634Y-1159722D02*
X1208158Y-1140674D01*
X1208158Y-1140674D02*
X1227205Y-1131150D01*
X1227205Y-1131150D02*
X1255777Y-1131150D01*
X1255777Y-1131150D02*
X1274825Y-1140674D01*
X1274825Y-1140674D02*
X1284348Y-1159722D01*
X1284348Y-1159722D02*
X1284348Y-1264484D01*
X1379586Y-1264484D02*
X1379586Y-1131150D01*
X1379586Y-1150198D02*
X1389110Y-1140674D01*
X1389110Y-1140674D02*
X1408158Y-1131150D01*
X1408158Y-1131150D02*
X1436729Y-1131150D01*
X1436729Y-1131150D02*
X1455777Y-1140674D01*
X1455777Y-1140674D02*
X1465301Y-1159722D01*
X1465301Y-1159722D02*
X1465301Y-1264484D01*
X1465301Y-1159722D02*
X1474824Y-1140674D01*
X1474824Y-1140674D02*
X1493872Y-1131150D01*
X1493872Y-1131150D02*
X1522443Y-1131150D01*
X1522443Y-1131150D02*
X1541491Y-1140674D01*
X1541491Y-1140674D02*
X1551015Y-1159722D01*
X1551015Y-1159722D02*
X1551015Y-1264484D01*
X1941491Y-1054960D02*
X1770063Y-1312103D01*
X2198634Y-1064484D02*
X2217682Y-1064484D01*
X2217682Y-1064484D02*
X2236729Y-1074008D01*
X2236729Y-1074008D02*
X2246253Y-1083531D01*
X2246253Y-1083531D02*
X2255777Y-1102579D01*
X2255777Y-1102579D02*
X2265301Y-1140674D01*
X2265301Y-1140674D02*
X2265301Y-1188293D01*
X2265301Y-1188293D02*
X2255777Y-1226389D01*
X2255777Y-1226389D02*
X2246253Y-1245436D01*
X2246253Y-1245436D02*
X2236729Y-1254960D01*
X2236729Y-1254960D02*
X2217682Y-1264484D01*
X2217682Y-1264484D02*
X2198634Y-1264484D01*
X2198634Y-1264484D02*
X2179587Y-1254960D01*
X2179587Y-1254960D02*
X2170063Y-1245436D01*
X2170063Y-1245436D02*
X2160539Y-1226389D01*
X2160539Y-1226389D02*
X2151015Y-1188293D01*
X2151015Y-1188293D02*
X2151015Y-1140674D01*
X2151015Y-1140674D02*
X2160539Y-1102579D01*
X2160539Y-1102579D02*
X2170063Y-1083531D01*
X2170063Y-1083531D02*
X2179587Y-1074008D01*
X2179587Y-1074008D02*
X2198634Y-1064484D01*
X2351015Y-1245436D02*
X2360539Y-1254960D01*
X2360539Y-1254960D02*
X2351015Y-1264484D01*
X2351015Y-1264484D02*
X2341491Y-1254960D01*
X2341491Y-1254960D02*
X2351015Y-1245436D01*
X2351015Y-1245436D02*
X2351015Y-1264484D01*
X2484348Y-1064484D02*
X2503396Y-1064484D01*
X2503396Y-1064484D02*
X2522444Y-1074008D01*
X2522444Y-1074008D02*
X2531968Y-1083531D01*
X2531968Y-1083531D02*
X2541491Y-1102579D01*
X2541491Y-1102579D02*
X2551015Y-1140674D01*
X2551015Y-1140674D02*
X2551015Y-1188293D01*
X2551015Y-1188293D02*
X2541491Y-1226389D01*
X2541491Y-1226389D02*
X2531968Y-1245436D01*
X2531968Y-1245436D02*
X2522444Y-1254960D01*
X2522444Y-1254960D02*
X2503396Y-1264484D01*
X2503396Y-1264484D02*
X2484348Y-1264484D01*
X2484348Y-1264484D02*
X2465301Y-1254960D01*
X2465301Y-1254960D02*
X2455777Y-1245436D01*
X2455777Y-1245436D02*
X2446253Y-1226389D01*
X2446253Y-1226389D02*
X2436729Y-1188293D01*
X2436729Y-1188293D02*
X2436729Y-1140674D01*
X2436729Y-1140674D02*
X2446253Y-1102579D01*
X2446253Y-1102579D02*
X2455777Y-1083531D01*
X2455777Y-1083531D02*
X2465301Y-1074008D01*
X2465301Y-1074008D02*
X2484348Y-1064484D01*
X2722444Y-1131150D02*
X2722444Y-1264484D01*
X2674825Y-1054960D02*
X2627206Y-1197817D01*
X2627206Y-1197817D02*
X2751015Y-1197817D01*
X2865301Y-1064484D02*
X2884348Y-1064484D01*
X2884348Y-1064484D02*
X2903396Y-1074008D01*
X2903396Y-1074008D02*
X2912920Y-1083531D01*
X2912920Y-1083531D02*
X2922444Y-1102579D01*
X2922444Y-1102579D02*
X2931967Y-1140674D01*
X2931967Y-1140674D02*
X2931967Y-1188293D01*
X2931967Y-1188293D02*
X2922444Y-1226389D01*
X2922444Y-1226389D02*
X2912920Y-1245436D01*
X2912920Y-1245436D02*
X2903396Y-1254960D01*
X2903396Y-1254960D02*
X2884348Y-1264484D01*
X2884348Y-1264484D02*
X2865301Y-1264484D01*
X2865301Y-1264484D02*
X2846253Y-1254960D01*
X2846253Y-1254960D02*
X2836729Y-1245436D01*
X2836729Y-1245436D02*
X2827206Y-1226389D01*
X2827206Y-1226389D02*
X2817682Y-1188293D01*
X2817682Y-1188293D02*
X2817682Y-1140674D01*
X2817682Y-1140674D02*
X2827206Y-1102579D01*
X2827206Y-1102579D02*
X2836729Y-1083531D01*
X2836729Y-1083531D02*
X2846253Y-1074008D01*
X2846253Y-1074008D02*
X2865301Y-1064484D01*
X3008158Y-1083531D02*
X3017682Y-1074008D01*
X3017682Y-1074008D02*
X3036729Y-1064484D01*
X3036729Y-1064484D02*
X3084348Y-1064484D01*
X3084348Y-1064484D02*
X3103396Y-1074008D01*
X3103396Y-1074008D02*
X3112920Y-1083531D01*
X3112920Y-1083531D02*
X3122444Y-1102579D01*
X3122444Y-1102579D02*
X3122444Y-1121627D01*
X3122444Y-1121627D02*
X3112920Y-1150198D01*
X3112920Y-1150198D02*
X2998634Y-1264484D01*
X2998634Y-1264484D02*
X3122444Y-1264484D01*
X3198634Y-1064484D02*
X3198634Y-1102579D01*
X3274825Y-1064484D02*
X3274825Y-1102579D01*
X3570063Y-1340674D02*
X3560539Y-1331150D01*
X3560539Y-1331150D02*
X3541491Y-1302579D01*
X3541491Y-1302579D02*
X3531968Y-1283531D01*
X3531968Y-1283531D02*
X3522444Y-1254960D01*
X3522444Y-1254960D02*
X3512920Y-1207341D01*
X3512920Y-1207341D02*
X3512920Y-1169246D01*
X3512920Y-1169246D02*
X3522444Y-1121627D01*
X3522444Y-1121627D02*
X3531968Y-1093055D01*
X3531968Y-1093055D02*
X3541491Y-1074008D01*
X3541491Y-1074008D02*
X3560539Y-1045436D01*
X3560539Y-1045436D02*
X3570063Y-1035912D01*
X3731968Y-1131150D02*
X3731968Y-1264484D01*
X3684348Y-1054960D02*
X3636729Y-1197817D01*
X3636729Y-1197817D02*
X3760539Y-1197817D01*
X3817682Y-1064484D02*
X3941491Y-1064484D01*
X3941491Y-1064484D02*
X3874825Y-1140674D01*
X3874825Y-1140674D02*
X3903396Y-1140674D01*
X3903396Y-1140674D02*
X3922444Y-1150198D01*
X3922444Y-1150198D02*
X3931968Y-1159722D01*
X3931968Y-1159722D02*
X3941491Y-1178770D01*
X3941491Y-1178770D02*
X3941491Y-1226389D01*
X3941491Y-1226389D02*
X3931968Y-1245436D01*
X3931968Y-1245436D02*
X3922444Y-1254960D01*
X3922444Y-1254960D02*
X3903396Y-1264484D01*
X3903396Y-1264484D02*
X3846253Y-1264484D01*
X3846253Y-1264484D02*
X3827206Y-1254960D01*
X3827206Y-1254960D02*
X3817682Y-1245436D01*
X4179587Y-1264484D02*
X4179587Y-1064484D01*
X4265301Y-1264484D02*
X4265301Y-1159722D01*
X4265301Y-1159722D02*
X4255777Y-1140674D01*
X4255777Y-1140674D02*
X4236730Y-1131150D01*
X4236730Y-1131150D02*
X4208158Y-1131150D01*
X4208158Y-1131150D02*
X4189110Y-1140674D01*
X4189110Y-1140674D02*
X4179587Y-1150198D01*
X4389111Y-1264484D02*
X4370063Y-1254960D01*
X4370063Y-1254960D02*
X4360539Y-1245436D01*
X4360539Y-1245436D02*
X4351015Y-1226389D01*
X4351015Y-1226389D02*
X4351015Y-1169246D01*
X4351015Y-1169246D02*
X4360539Y-1150198D01*
X4360539Y-1150198D02*
X4370063Y-1140674D01*
X4370063Y-1140674D02*
X4389111Y-1131150D01*
X4389111Y-1131150D02*
X4417682Y-1131150D01*
X4417682Y-1131150D02*
X4436730Y-1140674D01*
X4436730Y-1140674D02*
X4446253Y-1150198D01*
X4446253Y-1150198D02*
X4455777Y-1169246D01*
X4455777Y-1169246D02*
X4455777Y-1226389D01*
X4455777Y-1226389D02*
X4446253Y-1245436D01*
X4446253Y-1245436D02*
X4436730Y-1254960D01*
X4436730Y-1254960D02*
X4417682Y-1264484D01*
X4417682Y-1264484D02*
X4389111Y-1264484D01*
X4570063Y-1264484D02*
X4551015Y-1254960D01*
X4551015Y-1254960D02*
X4541492Y-1235912D01*
X4541492Y-1235912D02*
X4541492Y-1064484D01*
X4722444Y-1254960D02*
X4703396Y-1264484D01*
X4703396Y-1264484D02*
X4665301Y-1264484D01*
X4665301Y-1264484D02*
X4646253Y-1254960D01*
X4646253Y-1254960D02*
X4636730Y-1235912D01*
X4636730Y-1235912D02*
X4636730Y-1159722D01*
X4636730Y-1159722D02*
X4646253Y-1140674D01*
X4646253Y-1140674D02*
X4665301Y-1131150D01*
X4665301Y-1131150D02*
X4703396Y-1131150D01*
X4703396Y-1131150D02*
X4722444Y-1140674D01*
X4722444Y-1140674D02*
X4731968Y-1159722D01*
X4731968Y-1159722D02*
X4731968Y-1178770D01*
X4731968Y-1178770D02*
X4636730Y-1197817D01*
X4808158Y-1254960D02*
X4827206Y-1264484D01*
X4827206Y-1264484D02*
X4865301Y-1264484D01*
X4865301Y-1264484D02*
X4884349Y-1254960D01*
X4884349Y-1254960D02*
X4893873Y-1235912D01*
X4893873Y-1235912D02*
X4893873Y-1226389D01*
X4893873Y-1226389D02*
X4884349Y-1207341D01*
X4884349Y-1207341D02*
X4865301Y-1197817D01*
X4865301Y-1197817D02*
X4836730Y-1197817D01*
X4836730Y-1197817D02*
X4817682Y-1188293D01*
X4817682Y-1188293D02*
X4808158Y-1169246D01*
X4808158Y-1169246D02*
X4808158Y-1159722D01*
X4808158Y-1159722D02*
X4817682Y-1140674D01*
X4817682Y-1140674D02*
X4836730Y-1131150D01*
X4836730Y-1131150D02*
X4865301Y-1131150D01*
X4865301Y-1131150D02*
X4884349Y-1140674D01*
X4960539Y-1340674D02*
X4970063Y-1331150D01*
X4970063Y-1331150D02*
X4989111Y-1302579D01*
X4989111Y-1302579D02*
X4998634Y-1283531D01*
X4998634Y-1283531D02*
X5008158Y-1254960D01*
X5008158Y-1254960D02*
X5017682Y-1207341D01*
X5017682Y-1207341D02*
X5017682Y-1169246D01*
X5017682Y-1169246D02*
X5008158Y-1121627D01*
X5008158Y-1121627D02*
X4998634Y-1093055D01*
X4998634Y-1093055D02*
X4989111Y-1074008D01*
X4989111Y-1074008D02*
X4970063Y-1045436D01*
X4970063Y-1045436D02*
X4960539Y-1035912D01*
D14*
X-21109Y-1475891D02*
X-21109Y-1398109D01*
X-98891Y-1398109D01*
X-98891Y-1475891D01*
X-21109Y-1475891D01*
D11*
X360539Y-1528484D02*
X246253Y-1528484D01*
X303396Y-1528484D02*
X303396Y-1328484D01*
X303396Y-1328484D02*
X284348Y-1357055D01*
X284348Y-1357055D02*
X265301Y-1376103D01*
X265301Y-1376103D02*
X246253Y-1385627D01*
X446253Y-1509436D02*
X455777Y-1518960D01*
X455777Y-1518960D02*
X446253Y-1528484D01*
X446253Y-1528484D02*
X436729Y-1518960D01*
X436729Y-1518960D02*
X446253Y-1509436D01*
X446253Y-1509436D02*
X446253Y-1528484D01*
X646253Y-1528484D02*
X531967Y-1528484D01*
X589110Y-1528484D02*
X589110Y-1328484D01*
X589110Y-1328484D02*
X570063Y-1357055D01*
X570063Y-1357055D02*
X551015Y-1376103D01*
X551015Y-1376103D02*
X531967Y-1385627D01*
X770062Y-1328484D02*
X789110Y-1328484D01*
X789110Y-1328484D02*
X808158Y-1338008D01*
X808158Y-1338008D02*
X817682Y-1347531D01*
X817682Y-1347531D02*
X827205Y-1366579D01*
X827205Y-1366579D02*
X836729Y-1404674D01*
X836729Y-1404674D02*
X836729Y-1452293D01*
X836729Y-1452293D02*
X827205Y-1490388D01*
X827205Y-1490388D02*
X817682Y-1509436D01*
X817682Y-1509436D02*
X808158Y-1518960D01*
X808158Y-1518960D02*
X789110Y-1528484D01*
X789110Y-1528484D02*
X770062Y-1528484D01*
X770062Y-1528484D02*
X751015Y-1518960D01*
X751015Y-1518960D02*
X741491Y-1509436D01*
X741491Y-1509436D02*
X731967Y-1490388D01*
X731967Y-1490388D02*
X722443Y-1452293D01*
X722443Y-1452293D02*
X722443Y-1404674D01*
X722443Y-1404674D02*
X731967Y-1366579D01*
X731967Y-1366579D02*
X741491Y-1347531D01*
X741491Y-1347531D02*
X751015Y-1338008D01*
X751015Y-1338008D02*
X770062Y-1328484D01*
X960539Y-1328484D02*
X979586Y-1328484D01*
X979586Y-1328484D02*
X998634Y-1338008D01*
X998634Y-1338008D02*
X1008158Y-1347531D01*
X1008158Y-1347531D02*
X1017682Y-1366579D01*
X1017682Y-1366579D02*
X1027205Y-1404674D01*
X1027205Y-1404674D02*
X1027205Y-1452293D01*
X1027205Y-1452293D02*
X1017682Y-1490388D01*
X1017682Y-1490388D02*
X1008158Y-1509436D01*
X1008158Y-1509436D02*
X998634Y-1518960D01*
X998634Y-1518960D02*
X979586Y-1528484D01*
X979586Y-1528484D02*
X960539Y-1528484D01*
X960539Y-1528484D02*
X941491Y-1518960D01*
X941491Y-1518960D02*
X931967Y-1509436D01*
X931967Y-1509436D02*
X922443Y-1490388D01*
X922443Y-1490388D02*
X912920Y-1452293D01*
X912920Y-1452293D02*
X912920Y-1404674D01*
X912920Y-1404674D02*
X922443Y-1366579D01*
X922443Y-1366579D02*
X931967Y-1347531D01*
X931967Y-1347531D02*
X941491Y-1338008D01*
X941491Y-1338008D02*
X960539Y-1328484D01*
X1112920Y-1528484D02*
X1112920Y-1395150D01*
X1112920Y-1414198D02*
X1122444Y-1404674D01*
X1122444Y-1404674D02*
X1141491Y-1395150D01*
X1141491Y-1395150D02*
X1170063Y-1395150D01*
X1170063Y-1395150D02*
X1189110Y-1404674D01*
X1189110Y-1404674D02*
X1198634Y-1423722D01*
X1198634Y-1423722D02*
X1198634Y-1528484D01*
X1198634Y-1423722D02*
X1208158Y-1404674D01*
X1208158Y-1404674D02*
X1227205Y-1395150D01*
X1227205Y-1395150D02*
X1255777Y-1395150D01*
X1255777Y-1395150D02*
X1274825Y-1404674D01*
X1274825Y-1404674D02*
X1284348Y-1423722D01*
X1284348Y-1423722D02*
X1284348Y-1528484D01*
X1379586Y-1528484D02*
X1379586Y-1395150D01*
X1379586Y-1414198D02*
X1389110Y-1404674D01*
X1389110Y-1404674D02*
X1408158Y-1395150D01*
X1408158Y-1395150D02*
X1436729Y-1395150D01*
X1436729Y-1395150D02*
X1455777Y-1404674D01*
X1455777Y-1404674D02*
X1465301Y-1423722D01*
X1465301Y-1423722D02*
X1465301Y-1528484D01*
X1465301Y-1423722D02*
X1474824Y-1404674D01*
X1474824Y-1404674D02*
X1493872Y-1395150D01*
X1493872Y-1395150D02*
X1522443Y-1395150D01*
X1522443Y-1395150D02*
X1541491Y-1404674D01*
X1541491Y-1404674D02*
X1551015Y-1423722D01*
X1551015Y-1423722D02*
X1551015Y-1528484D01*
X1941491Y-1318960D02*
X1770063Y-1576103D01*
X2198634Y-1328484D02*
X2217682Y-1328484D01*
X2217682Y-1328484D02*
X2236729Y-1338008D01*
X2236729Y-1338008D02*
X2246253Y-1347531D01*
X2246253Y-1347531D02*
X2255777Y-1366579D01*
X2255777Y-1366579D02*
X2265301Y-1404674D01*
X2265301Y-1404674D02*
X2265301Y-1452293D01*
X2265301Y-1452293D02*
X2255777Y-1490388D01*
X2255777Y-1490388D02*
X2246253Y-1509436D01*
X2246253Y-1509436D02*
X2236729Y-1518960D01*
X2236729Y-1518960D02*
X2217682Y-1528484D01*
X2217682Y-1528484D02*
X2198634Y-1528484D01*
X2198634Y-1528484D02*
X2179587Y-1518960D01*
X2179587Y-1518960D02*
X2170063Y-1509436D01*
X2170063Y-1509436D02*
X2160539Y-1490388D01*
X2160539Y-1490388D02*
X2151015Y-1452293D01*
X2151015Y-1452293D02*
X2151015Y-1404674D01*
X2151015Y-1404674D02*
X2160539Y-1366579D01*
X2160539Y-1366579D02*
X2170063Y-1347531D01*
X2170063Y-1347531D02*
X2179587Y-1338008D01*
X2179587Y-1338008D02*
X2198634Y-1328484D01*
X2351015Y-1509436D02*
X2360539Y-1518960D01*
X2360539Y-1518960D02*
X2351015Y-1528484D01*
X2351015Y-1528484D02*
X2341491Y-1518960D01*
X2341491Y-1518960D02*
X2351015Y-1509436D01*
X2351015Y-1509436D02*
X2351015Y-1528484D01*
X2484348Y-1328484D02*
X2503396Y-1328484D01*
X2503396Y-1328484D02*
X2522444Y-1338008D01*
X2522444Y-1338008D02*
X2531968Y-1347531D01*
X2531968Y-1347531D02*
X2541491Y-1366579D01*
X2541491Y-1366579D02*
X2551015Y-1404674D01*
X2551015Y-1404674D02*
X2551015Y-1452293D01*
X2551015Y-1452293D02*
X2541491Y-1490388D01*
X2541491Y-1490388D02*
X2531968Y-1509436D01*
X2531968Y-1509436D02*
X2522444Y-1518960D01*
X2522444Y-1518960D02*
X2503396Y-1528484D01*
X2503396Y-1528484D02*
X2484348Y-1528484D01*
X2484348Y-1528484D02*
X2465301Y-1518960D01*
X2465301Y-1518960D02*
X2455777Y-1509436D01*
X2455777Y-1509436D02*
X2446253Y-1490388D01*
X2446253Y-1490388D02*
X2436729Y-1452293D01*
X2436729Y-1452293D02*
X2436729Y-1404674D01*
X2436729Y-1404674D02*
X2446253Y-1366579D01*
X2446253Y-1366579D02*
X2455777Y-1347531D01*
X2455777Y-1347531D02*
X2465301Y-1338008D01*
X2465301Y-1338008D02*
X2484348Y-1328484D01*
X2722444Y-1395150D02*
X2722444Y-1528484D01*
X2674825Y-1318960D02*
X2627206Y-1461817D01*
X2627206Y-1461817D02*
X2751015Y-1461817D01*
X2808158Y-1328484D02*
X2931967Y-1328484D01*
X2931967Y-1328484D02*
X2865301Y-1404674D01*
X2865301Y-1404674D02*
X2893872Y-1404674D01*
X2893872Y-1404674D02*
X2912920Y-1414198D01*
X2912920Y-1414198D02*
X2922444Y-1423722D01*
X2922444Y-1423722D02*
X2931967Y-1442769D01*
X2931967Y-1442769D02*
X2931967Y-1490388D01*
X2931967Y-1490388D02*
X2922444Y-1509436D01*
X2922444Y-1509436D02*
X2912920Y-1518960D01*
X2912920Y-1518960D02*
X2893872Y-1528484D01*
X2893872Y-1528484D02*
X2836729Y-1528484D01*
X2836729Y-1528484D02*
X2817682Y-1518960D01*
X2817682Y-1518960D02*
X2808158Y-1509436D01*
X2998634Y-1328484D02*
X3122444Y-1328484D01*
X3122444Y-1328484D02*
X3055777Y-1404674D01*
X3055777Y-1404674D02*
X3084348Y-1404674D01*
X3084348Y-1404674D02*
X3103396Y-1414198D01*
X3103396Y-1414198D02*
X3112920Y-1423722D01*
X3112920Y-1423722D02*
X3122444Y-1442769D01*
X3122444Y-1442769D02*
X3122444Y-1490388D01*
X3122444Y-1490388D02*
X3112920Y-1509436D01*
X3112920Y-1509436D02*
X3103396Y-1518960D01*
X3103396Y-1518960D02*
X3084348Y-1528484D01*
X3084348Y-1528484D02*
X3027206Y-1528484D01*
X3027206Y-1528484D02*
X3008158Y-1518960D01*
X3008158Y-1518960D02*
X2998634Y-1509436D01*
X3198634Y-1328484D02*
X3198634Y-1366579D01*
X3274825Y-1328484D02*
X3274825Y-1366579D01*
X3570063Y-1604674D02*
X3560539Y-1595150D01*
X3560539Y-1595150D02*
X3541491Y-1566579D01*
X3541491Y-1566579D02*
X3531968Y-1547531D01*
X3531968Y-1547531D02*
X3522444Y-1518960D01*
X3522444Y-1518960D02*
X3512920Y-1471341D01*
X3512920Y-1471341D02*
X3512920Y-1433246D01*
X3512920Y-1433246D02*
X3522444Y-1385627D01*
X3522444Y-1385627D02*
X3531968Y-1357055D01*
X3531968Y-1357055D02*
X3541491Y-1338008D01*
X3541491Y-1338008D02*
X3560539Y-1309436D01*
X3560539Y-1309436D02*
X3570063Y-1299912D01*
X3731968Y-1395150D02*
X3731968Y-1528484D01*
X3684348Y-1318960D02*
X3636729Y-1461817D01*
X3636729Y-1461817D02*
X3760539Y-1461817D01*
X3989110Y-1528484D02*
X3989110Y-1328484D01*
X4074825Y-1528484D02*
X4074825Y-1423722D01*
X4074825Y-1423722D02*
X4065301Y-1404674D01*
X4065301Y-1404674D02*
X4046253Y-1395150D01*
X4046253Y-1395150D02*
X4017682Y-1395150D01*
X4017682Y-1395150D02*
X3998634Y-1404674D01*
X3998634Y-1404674D02*
X3989110Y-1414198D01*
X4198634Y-1528484D02*
X4179587Y-1518960D01*
X4179587Y-1518960D02*
X4170063Y-1509436D01*
X4170063Y-1509436D02*
X4160539Y-1490388D01*
X4160539Y-1490388D02*
X4160539Y-1433246D01*
X4160539Y-1433246D02*
X4170063Y-1414198D01*
X4170063Y-1414198D02*
X4179587Y-1404674D01*
X4179587Y-1404674D02*
X4198634Y-1395150D01*
X4198634Y-1395150D02*
X4227206Y-1395150D01*
X4227206Y-1395150D02*
X4246253Y-1404674D01*
X4246253Y-1404674D02*
X4255777Y-1414198D01*
X4255777Y-1414198D02*
X4265301Y-1433246D01*
X4265301Y-1433246D02*
X4265301Y-1490388D01*
X4265301Y-1490388D02*
X4255777Y-1509436D01*
X4255777Y-1509436D02*
X4246253Y-1518960D01*
X4246253Y-1518960D02*
X4227206Y-1528484D01*
X4227206Y-1528484D02*
X4198634Y-1528484D01*
X4379587Y-1528484D02*
X4360539Y-1518960D01*
X4360539Y-1518960D02*
X4351015Y-1499912D01*
X4351015Y-1499912D02*
X4351015Y-1328484D01*
X4531968Y-1518960D02*
X4512920Y-1528484D01*
X4512920Y-1528484D02*
X4474825Y-1528484D01*
X4474825Y-1528484D02*
X4455777Y-1518960D01*
X4455777Y-1518960D02*
X4446253Y-1499912D01*
X4446253Y-1499912D02*
X4446253Y-1423722D01*
X4446253Y-1423722D02*
X4455777Y-1404674D01*
X4455777Y-1404674D02*
X4474825Y-1395150D01*
X4474825Y-1395150D02*
X4512920Y-1395150D01*
X4512920Y-1395150D02*
X4531968Y-1404674D01*
X4531968Y-1404674D02*
X4541492Y-1423722D01*
X4541492Y-1423722D02*
X4541492Y-1442769D01*
X4541492Y-1442769D02*
X4446253Y-1461817D01*
X4617682Y-1518960D02*
X4636730Y-1528484D01*
X4636730Y-1528484D02*
X4674825Y-1528484D01*
X4674825Y-1528484D02*
X4693873Y-1518960D01*
X4693873Y-1518960D02*
X4703396Y-1499912D01*
X4703396Y-1499912D02*
X4703396Y-1490388D01*
X4703396Y-1490388D02*
X4693873Y-1471341D01*
X4693873Y-1471341D02*
X4674825Y-1461817D01*
X4674825Y-1461817D02*
X4646253Y-1461817D01*
X4646253Y-1461817D02*
X4627206Y-1452293D01*
X4627206Y-1452293D02*
X4617682Y-1433246D01*
X4617682Y-1433246D02*
X4617682Y-1423722D01*
X4617682Y-1423722D02*
X4627206Y-1404674D01*
X4627206Y-1404674D02*
X4646253Y-1395150D01*
X4646253Y-1395150D02*
X4674825Y-1395150D01*
X4674825Y-1395150D02*
X4693873Y-1404674D01*
X4770063Y-1604674D02*
X4779587Y-1595150D01*
X4779587Y-1595150D02*
X4798634Y-1566579D01*
X4798634Y-1566579D02*
X4808158Y-1547531D01*
X4808158Y-1547531D02*
X4817682Y-1518960D01*
X4817682Y-1518960D02*
X4827206Y-1471341D01*
X4827206Y-1471341D02*
X4827206Y-1433246D01*
X4827206Y-1433246D02*
X4817682Y-1385627D01*
X4817682Y-1385627D02*
X4808158Y-1357055D01*
X4808158Y-1357055D02*
X4798634Y-1338008D01*
X4798634Y-1338008D02*
X4779587Y-1309436D01*
X4779587Y-1309436D02*
X4770063Y-1299912D01*
M02*
