%TF.GenerationSoftware,KiCad,Pcbnew,7.0.8*%
%TF.CreationDate,2023-10-07T15:52:59+09:00*%
%TF.ProjectId,KiCad,4b694361-642e-46b6-9963-61645f706362,rev?*%
%TF.SameCoordinates,PX41cdb40PY67f3540*%
%TF.FileFunction,Copper,L2,Bot*%
%TF.FilePolarity,Positive*%
%FSLAX46Y46*%
G04 Gerber Fmt 4.6, Leading zero omitted, Abs format (unit mm)*
G04 Created by KiCad (PCBNEW 7.0.8) date 2023-10-07 15:52:59*
%MOMM*%
%LPD*%
G01*
G04 APERTURE LIST*
%TA.AperFunction,ComponentPad*%
%ADD10R,1.700000X1.700000*%
%TD*%
%TA.AperFunction,ComponentPad*%
%ADD11O,1.700000X1.700000*%
%TD*%
%TA.AperFunction,ComponentPad*%
%ADD12C,1.700000*%
%TD*%
%TA.AperFunction,ComponentPad*%
%ADD13C,2.000000*%
%TD*%
%TA.AperFunction,ViaPad*%
%ADD14C,0.800000*%
%TD*%
%TA.AperFunction,Conductor*%
%ADD15C,0.400000*%
%TD*%
%TA.AperFunction,Conductor*%
%ADD16C,0.500000*%
%TD*%
G04 APERTURE END LIST*
D10*
%TO.P,J2,1,Pin_1*%
%TO.N,/RX*%
X10375000Y34400000D03*
D11*
%TO.P,J2,2,Pin_2*%
%TO.N,GND*%
X10375000Y36940000D03*
%TO.P,J2,3,Pin_3*%
%TO.N,/TX*%
X10375000Y39480000D03*
%TD*%
%TO.P,U1,1,GPIO0*%
%TO.N,unconnected-(U1-GPIO0-Pad1)*%
X22110000Y51530000D03*
%TO.P,U1,2,GPIO1*%
%TO.N,unconnected-(U1-GPIO1-Pad2)*%
X22110000Y48990000D03*
D10*
%TO.P,U1,3,GND*%
%TO.N,GND*%
X22110000Y46450000D03*
D11*
%TO.P,U1,4,GPIO2*%
%TO.N,Net-(U1-GPIO2)*%
X22110000Y43910000D03*
%TO.P,U1,5,GPIO3*%
%TO.N,Net-(U1-GPIO3)*%
X22110000Y41370000D03*
%TO.P,U1,6,GPIO4*%
%TO.N,Net-(U1-GPIO4)*%
X22110000Y38830000D03*
%TO.P,U1,7,GPIO5*%
%TO.N,Net-(U1-GPIO5)*%
X22110000Y36290000D03*
D10*
%TO.P,U1,8,GND*%
%TO.N,GND*%
X22110000Y33750000D03*
D11*
%TO.P,U1,9,GPIO6*%
%TO.N,unconnected-(U1-GPIO6-Pad9)*%
X22110000Y31210000D03*
%TO.P,U1,10,GPIO7*%
%TO.N,unconnected-(U1-GPIO7-Pad10)*%
X22110000Y28670000D03*
%TO.P,U1,11,GPIO8*%
%TO.N,unconnected-(U1-GPIO8-Pad11)*%
X22110000Y26130000D03*
%TO.P,U1,12,GPIO9*%
%TO.N,unconnected-(U1-GPIO9-Pad12)*%
X22110000Y23590000D03*
D10*
%TO.P,U1,13,GND*%
%TO.N,GND*%
X22110000Y21050000D03*
D11*
%TO.P,U1,14,GPIO10*%
%TO.N,unconnected-(U1-GPIO10-Pad14)*%
X22110000Y18510000D03*
%TO.P,U1,15,GPIO11*%
%TO.N,unconnected-(U1-GPIO11-Pad15)*%
X22110000Y15970000D03*
%TO.P,U1,16,GPIO12*%
%TO.N,unconnected-(U1-GPIO12-Pad16)*%
X22110000Y13430000D03*
%TO.P,U1,17,GPIO13*%
%TO.N,unconnected-(U1-GPIO13-Pad17)*%
X22110000Y10890000D03*
D10*
%TO.P,U1,18,GND*%
%TO.N,GND*%
X22110000Y8350000D03*
D11*
%TO.P,U1,19,GPIO14*%
%TO.N,unconnected-(U1-GPIO14-Pad19)*%
X22110000Y5810000D03*
%TO.P,U1,20,GPIO15*%
%TO.N,unconnected-(U1-GPIO15-Pad20)*%
X22110000Y3270000D03*
%TO.P,U1,21,GPIO16*%
%TO.N,unconnected-(U1-GPIO16-Pad21)*%
X39890000Y3270000D03*
%TO.P,U1,22,GPIO17*%
%TO.N,unconnected-(U1-GPIO17-Pad22)*%
X39890000Y5810000D03*
D10*
%TO.P,U1,23,GND*%
%TO.N,GND*%
X39890000Y8350000D03*
D11*
%TO.P,U1,24,GPIO18*%
%TO.N,unconnected-(U1-GPIO18-Pad24)*%
X39890000Y10890000D03*
%TO.P,U1,25,GPIO19*%
%TO.N,unconnected-(U1-GPIO19-Pad25)*%
X39890000Y13430000D03*
%TO.P,U1,26,GPIO20*%
%TO.N,unconnected-(U1-GPIO20-Pad26)*%
X39890000Y15970000D03*
%TO.P,U1,27,GPIO21*%
%TO.N,unconnected-(U1-GPIO21-Pad27)*%
X39890000Y18510000D03*
D10*
%TO.P,U1,28,GND*%
%TO.N,GND*%
X39890000Y21050000D03*
D11*
%TO.P,U1,29,GPIO22*%
%TO.N,unconnected-(U1-GPIO22-Pad29)*%
X39890000Y23590000D03*
%TO.P,U1,30,RUN*%
%TO.N,unconnected-(U1-RUN-Pad30)*%
X39890000Y26130000D03*
%TO.P,U1,31,GPIO26_ADC0*%
%TO.N,unconnected-(U1-GPIO26_ADC0-Pad31)*%
X39890000Y28670000D03*
%TO.P,U1,32,GPIO27_ADC1*%
%TO.N,unconnected-(U1-GPIO27_ADC1-Pad32)*%
X39890000Y31210000D03*
D10*
%TO.P,U1,33,AGND*%
%TO.N,GND*%
X39890000Y33750000D03*
D11*
%TO.P,U1,34,GPIO28_ADC2*%
%TO.N,unconnected-(U1-GPIO28_ADC2-Pad34)*%
X39890000Y36290000D03*
%TO.P,U1,35,ADC_VREF*%
%TO.N,unconnected-(U1-ADC_VREF-Pad35)*%
X39890000Y38830000D03*
%TO.P,U1,36,3V3*%
%TO.N,unconnected-(U1-3V3-Pad36)*%
X39890000Y41370000D03*
%TO.P,U1,37,3V3_EN*%
%TO.N,unconnected-(U1-3V3_EN-Pad37)*%
X39890000Y43910000D03*
D10*
%TO.P,U1,38,GND*%
%TO.N,GND*%
X39890000Y46450000D03*
D11*
%TO.P,U1,39,VSYS*%
%TO.N,unconnected-(U1-VSYS-Pad39)*%
X39890000Y48990000D03*
%TO.P,U1,40,VBUS*%
%TO.N,unconnected-(U1-VBUS-Pad40)*%
X39890000Y51530000D03*
%TO.P,U1,41,SWCLK*%
%TO.N,unconnected-(U1-SWCLK-Pad41)*%
X28460000Y3500000D03*
D12*
X31550000Y21700000D03*
D10*
%TO.P,U1,42,GND*%
%TO.N,unconnected-(U1-GND-Pad42)*%
X31000000Y3500000D03*
D12*
X34100000Y21700000D03*
D11*
%TO.P,U1,43,SWDIO*%
%TO.N,unconnected-(U1-SWDIO-Pad43)*%
X33540000Y3500000D03*
D12*
X36650000Y21700000D03*
%TD*%
D13*
%TO.P,SW1,1,1*%
%TO.N,/nRST*%
X2750000Y17250000D03*
X9250000Y17250000D03*
%TO.P,SW1,2,2*%
%TO.N,GND*%
X2750000Y12750000D03*
X9250000Y12750000D03*
%TD*%
D14*
%TO.N,/SWDIO*%
X13200000Y28400000D03*
X13200000Y41300000D03*
%TO.N,/SWCLK*%
X14100000Y27100000D03*
X14100000Y43900000D03*
%TO.N,GND*%
X2100000Y21800000D03*
%TD*%
D15*
%TO.N,GND*%
X1250000Y12750000D02*
X2750000Y12750000D01*
X1200000Y12800000D02*
X1250000Y12750000D01*
X1200000Y21800000D02*
X1200000Y12800000D01*
X2100000Y21800000D02*
X1200000Y21800000D01*
D16*
%TO.N,/SWDIO*%
X13200000Y28400000D02*
X13200000Y41300000D01*
%TO.N,/SWCLK*%
X14100000Y43900000D02*
X14100000Y27100000D01*
%TD*%
%TA.AperFunction,Conductor*%
%TO.N,GND*%
G36*
X45942121Y53979498D02*
G01*
X45988614Y53925842D01*
X46000000Y53873500D01*
X46000000Y46000000D01*
X53873500Y46000000D01*
X53941621Y45979998D01*
X53988114Y45926342D01*
X53999500Y45874000D01*
X53999500Y8126000D01*
X53979498Y8057879D01*
X53925842Y8011386D01*
X53873500Y8000000D01*
X46000000Y8000000D01*
X46000000Y126500D01*
X45979998Y58379D01*
X45926342Y11886D01*
X45874000Y500D01*
X8126000Y500D01*
X8057879Y20502D01*
X8011386Y74158D01*
X8000000Y126500D01*
X8000000Y7451403D01*
X20752000Y7451403D01*
X20758505Y7390907D01*
X20809555Y7254036D01*
X20809555Y7254035D01*
X20897095Y7137096D01*
X21014034Y7049556D01*
X21140337Y7002448D01*
X21197173Y6959901D01*
X21221984Y6893381D01*
X21206893Y6824007D01*
X21185401Y6795297D01*
X21071502Y6681398D01*
X21071498Y6681393D01*
X20935966Y6487833D01*
X20836098Y6273666D01*
X20836096Y6273662D01*
X20774937Y6045412D01*
X20754341Y5810000D01*
X20774937Y5574589D01*
X20826571Y5381888D01*
X20836097Y5346337D01*
X20935965Y5132170D01*
X21071505Y4938599D01*
X21238599Y4771505D01*
X21377800Y4674035D01*
X21421819Y4643213D01*
X21466147Y4587756D01*
X21473456Y4517137D01*
X21441425Y4453776D01*
X21421819Y4436787D01*
X21238602Y4308498D01*
X21238596Y4308493D01*
X21071507Y4141404D01*
X21071498Y4141393D01*
X20935966Y3947833D01*
X20836098Y3733666D01*
X20836096Y3733662D01*
X20774937Y3505412D01*
X20754341Y3270000D01*
X20774937Y3034589D01*
X20836096Y2806339D01*
X20836098Y2806335D01*
X20935965Y2592170D01*
X21065150Y2407674D01*
X21071505Y2398599D01*
X21238599Y2231505D01*
X21432170Y2095965D01*
X21646337Y1996097D01*
X21874592Y1934937D01*
X22110000Y1914341D01*
X22345408Y1934937D01*
X22573663Y1996097D01*
X22787830Y2095965D01*
X22981401Y2231505D01*
X23148495Y2398599D01*
X23284035Y2592170D01*
X23383903Y2806337D01*
X23445063Y3034592D01*
X23465659Y3270000D01*
X23445536Y3500000D01*
X27104341Y3500000D01*
X27124937Y3264589D01*
X27186096Y3036339D01*
X27186097Y3036337D01*
X27285965Y2822170D01*
X27421505Y2628599D01*
X27588599Y2461505D01*
X27782170Y2325965D01*
X27996337Y2226097D01*
X28224592Y2164937D01*
X28460000Y2144341D01*
X28695408Y2164937D01*
X28923663Y2226097D01*
X29137830Y2325965D01*
X29331401Y2461505D01*
X29451129Y2581234D01*
X29513437Y2615256D01*
X29584253Y2610192D01*
X29641089Y2567645D01*
X29658277Y2536168D01*
X29706202Y2407672D01*
X29706203Y2407671D01*
X29706204Y2407669D01*
X29725453Y2381956D01*
X29792453Y2292454D01*
X29850061Y2249329D01*
X29907669Y2206204D01*
X29907671Y2206204D01*
X29907673Y2206202D01*
X29953956Y2188940D01*
X30042514Y2155910D01*
X30042517Y2155909D01*
X30102127Y2149500D01*
X31897872Y2149501D01*
X31957483Y2155909D01*
X32092331Y2206204D01*
X32207546Y2292454D01*
X32293796Y2407669D01*
X32341723Y2536169D01*
X32384268Y2593003D01*
X32450788Y2617815D01*
X32520162Y2602724D01*
X32548873Y2581231D01*
X32668599Y2461505D01*
X32862170Y2325965D01*
X33076337Y2226097D01*
X33304592Y2164937D01*
X33540000Y2144341D01*
X33775408Y2164937D01*
X34003663Y2226097D01*
X34217830Y2325965D01*
X34411401Y2461505D01*
X34578495Y2628599D01*
X34714035Y2822170D01*
X34813903Y3036337D01*
X34875063Y3264592D01*
X34895659Y3500000D01*
X34875063Y3735408D01*
X34813903Y3963663D01*
X34714035Y4177829D01*
X34714034Y4177830D01*
X34714033Y4177833D01*
X34578501Y4371393D01*
X34578498Y4371397D01*
X34578495Y4371401D01*
X34411401Y4538495D01*
X34217830Y4674035D01*
X34003663Y4773903D01*
X34003661Y4773904D01*
X33775411Y4835063D01*
X33540000Y4855659D01*
X33304588Y4835063D01*
X33076338Y4773904D01*
X33076334Y4773902D01*
X32862167Y4674034D01*
X32668607Y4538502D01*
X32668602Y4538498D01*
X32548873Y4418769D01*
X32486561Y4384744D01*
X32415745Y4389810D01*
X32358909Y4432356D01*
X32341722Y4463834D01*
X32339681Y4469305D01*
X32313876Y4538495D01*
X32293798Y4592327D01*
X32293796Y4592330D01*
X32293796Y4592331D01*
X32232633Y4674034D01*
X32207546Y4707547D01*
X32130591Y4765155D01*
X32092331Y4793796D01*
X32092329Y4793797D01*
X32092326Y4793799D01*
X31957483Y4844091D01*
X31957486Y4844091D01*
X31897873Y4850500D01*
X30102135Y4850500D01*
X30102114Y4850498D01*
X30042519Y4844092D01*
X30042518Y4844092D01*
X29907673Y4793799D01*
X29907670Y4793797D01*
X29792453Y4707547D01*
X29706203Y4592330D01*
X29706202Y4592329D01*
X29658277Y4463833D01*
X29615730Y4406997D01*
X29549210Y4382186D01*
X29479836Y4397277D01*
X29451126Y4418770D01*
X29331403Y4538493D01*
X29331397Y4538498D01*
X29137830Y4674035D01*
X28928810Y4771503D01*
X28923663Y4773903D01*
X28923661Y4773904D01*
X28695411Y4835063D01*
X28460000Y4855659D01*
X28224588Y4835063D01*
X27996338Y4773904D01*
X27996334Y4773902D01*
X27782167Y4674034D01*
X27588607Y4538502D01*
X27588596Y4538493D01*
X27421507Y4371404D01*
X27421498Y4371393D01*
X27285966Y4177833D01*
X27186098Y3963666D01*
X27186096Y3963662D01*
X27124937Y3735412D01*
X27104341Y3500000D01*
X23445536Y3500000D01*
X23445063Y3505408D01*
X23383903Y3733663D01*
X23284035Y3947829D01*
X23284034Y3947830D01*
X23284033Y3947833D01*
X23148501Y4141393D01*
X23148498Y4141397D01*
X23148495Y4141401D01*
X22981401Y4308495D01*
X22798180Y4436788D01*
X22753853Y4492244D01*
X22746544Y4562863D01*
X22778575Y4626224D01*
X22798181Y4643213D01*
X22842198Y4674034D01*
X22981401Y4771505D01*
X23148495Y4938599D01*
X23284035Y5132170D01*
X23383903Y5346337D01*
X23445063Y5574592D01*
X23465659Y5810000D01*
X23445063Y6045408D01*
X23383903Y6273663D01*
X23284035Y6487829D01*
X23284034Y6487830D01*
X23284033Y6487833D01*
X23148501Y6681393D01*
X23148497Y6681398D01*
X23148495Y6681401D01*
X23034599Y6795297D01*
X23000573Y6857609D01*
X23005638Y6928424D01*
X23048185Y6985260D01*
X23079662Y7002448D01*
X23205965Y7049556D01*
X23322904Y7137096D01*
X23410444Y7254035D01*
X23410444Y7254036D01*
X23461494Y7390907D01*
X23467999Y7451403D01*
X38532000Y7451403D01*
X38538505Y7390907D01*
X38589555Y7254036D01*
X38589555Y7254035D01*
X38677095Y7137096D01*
X38794034Y7049556D01*
X38920337Y7002448D01*
X38977173Y6959901D01*
X39001984Y6893381D01*
X38986893Y6824007D01*
X38965401Y6795297D01*
X38851502Y6681398D01*
X38851498Y6681393D01*
X38715966Y6487833D01*
X38616098Y6273666D01*
X38616096Y6273662D01*
X38554937Y6045412D01*
X38534341Y5810000D01*
X38554937Y5574589D01*
X38606571Y5381888D01*
X38616097Y5346337D01*
X38715965Y5132170D01*
X38851505Y4938599D01*
X39018599Y4771505D01*
X39157800Y4674035D01*
X39201819Y4643213D01*
X39246147Y4587756D01*
X39253456Y4517137D01*
X39221425Y4453776D01*
X39201819Y4436787D01*
X39018602Y4308498D01*
X39018596Y4308493D01*
X38851507Y4141404D01*
X38851498Y4141393D01*
X38715966Y3947833D01*
X38616098Y3733666D01*
X38616096Y3733662D01*
X38554937Y3505412D01*
X38534341Y3270000D01*
X38554937Y3034589D01*
X38616096Y2806339D01*
X38616098Y2806335D01*
X38715965Y2592170D01*
X38845150Y2407674D01*
X38851505Y2398599D01*
X39018599Y2231505D01*
X39212170Y2095965D01*
X39426337Y1996097D01*
X39654592Y1934937D01*
X39890000Y1914341D01*
X40125408Y1934937D01*
X40353663Y1996097D01*
X40567830Y2095965D01*
X40761401Y2231505D01*
X40928495Y2398599D01*
X41064035Y2592170D01*
X41163903Y2806337D01*
X41225063Y3034592D01*
X41245659Y3270000D01*
X41225063Y3505408D01*
X41163903Y3733663D01*
X41064035Y3947829D01*
X41064034Y3947830D01*
X41064033Y3947833D01*
X40928501Y4141393D01*
X40928498Y4141397D01*
X40928495Y4141401D01*
X40761401Y4308495D01*
X40578180Y4436788D01*
X40533853Y4492244D01*
X40526544Y4562863D01*
X40558575Y4626224D01*
X40578181Y4643213D01*
X40622198Y4674034D01*
X40761401Y4771505D01*
X40928495Y4938599D01*
X41064035Y5132170D01*
X41163903Y5346337D01*
X41225063Y5574592D01*
X41245659Y5810000D01*
X41225063Y6045408D01*
X41163903Y6273663D01*
X41064035Y6487829D01*
X41064034Y6487830D01*
X41064033Y6487833D01*
X40928501Y6681393D01*
X40928497Y6681398D01*
X40928495Y6681401D01*
X40814599Y6795297D01*
X40780573Y6857609D01*
X40785638Y6928424D01*
X40828185Y6985260D01*
X40859662Y7002448D01*
X40985965Y7049556D01*
X41102904Y7137096D01*
X41190444Y7254035D01*
X41190444Y7254036D01*
X41241494Y7390907D01*
X41247999Y7451403D01*
X41248000Y7451415D01*
X41248000Y8096000D01*
X40333001Y8096000D01*
X40358682Y8135960D01*
X40400000Y8276673D01*
X40400000Y8423327D01*
X40358682Y8564040D01*
X40333001Y8604000D01*
X41248000Y8604000D01*
X41248000Y9248586D01*
X41247999Y9248598D01*
X41241494Y9309094D01*
X41190444Y9445965D01*
X41190444Y9445966D01*
X41102904Y9562905D01*
X40985966Y9650444D01*
X40859661Y9697553D01*
X40802826Y9740100D01*
X40778015Y9806620D01*
X40793106Y9875994D01*
X40814593Y9904698D01*
X40928495Y10018599D01*
X41064035Y10212170D01*
X41163903Y10426337D01*
X41225063Y10654592D01*
X41245659Y10890000D01*
X41225063Y11125408D01*
X41163903Y11353663D01*
X41064035Y11567829D01*
X41064034Y11567830D01*
X41064033Y11567833D01*
X40928501Y11761393D01*
X40928498Y11761397D01*
X40928495Y11761401D01*
X40761401Y11928495D01*
X40578180Y12056788D01*
X40533853Y12112244D01*
X40526544Y12182863D01*
X40558575Y12246224D01*
X40578181Y12263213D01*
X40595944Y12275651D01*
X40761401Y12391505D01*
X40928495Y12558599D01*
X41064035Y12752170D01*
X41163903Y12966337D01*
X41225063Y13194592D01*
X41245659Y13430000D01*
X41225063Y13665408D01*
X41163903Y13893663D01*
X41064035Y14107829D01*
X41064034Y14107830D01*
X41064033Y14107833D01*
X40928501Y14301393D01*
X40928498Y14301397D01*
X40928495Y14301401D01*
X40761401Y14468495D01*
X40578180Y14596788D01*
X40533853Y14652244D01*
X40526544Y14722863D01*
X40558575Y14786224D01*
X40578181Y14803213D01*
X40761401Y14931505D01*
X40928495Y15098599D01*
X41064035Y15292170D01*
X41163903Y15506337D01*
X41225063Y15734592D01*
X41245659Y15970000D01*
X41225063Y16205408D01*
X41163903Y16433663D01*
X41064035Y16647829D01*
X41064034Y16647830D01*
X41064033Y16647833D01*
X40928501Y16841393D01*
X40928498Y16841397D01*
X40928495Y16841401D01*
X40761401Y17008495D01*
X40578180Y17136788D01*
X40533853Y17192244D01*
X40526544Y17262863D01*
X40558575Y17326224D01*
X40578181Y17343213D01*
X40761401Y17471505D01*
X40928495Y17638599D01*
X41064035Y17832170D01*
X41163903Y18046337D01*
X41225063Y18274592D01*
X41245659Y18510000D01*
X41225063Y18745408D01*
X41163903Y18973663D01*
X41064035Y19187829D01*
X41064034Y19187830D01*
X41064033Y19187833D01*
X40928501Y19381393D01*
X40928497Y19381398D01*
X40928495Y19381401D01*
X40814599Y19495297D01*
X40780573Y19557609D01*
X40785638Y19628424D01*
X40828185Y19685260D01*
X40859662Y19702448D01*
X40985965Y19749556D01*
X41102904Y19837096D01*
X41190444Y19954035D01*
X41190444Y19954036D01*
X41241494Y20090907D01*
X41247999Y20151403D01*
X41248000Y20151415D01*
X41248000Y20796000D01*
X40333001Y20796000D01*
X40358682Y20835960D01*
X40400000Y20976673D01*
X40400000Y21123327D01*
X40358682Y21264040D01*
X40333001Y21304000D01*
X41248000Y21304000D01*
X41248000Y21948586D01*
X41247999Y21948598D01*
X41241494Y22009094D01*
X41190444Y22145965D01*
X41190444Y22145966D01*
X41102904Y22262905D01*
X40985966Y22350444D01*
X40859661Y22397553D01*
X40802826Y22440100D01*
X40778015Y22506620D01*
X40793106Y22575994D01*
X40814593Y22604698D01*
X40928495Y22718599D01*
X41064035Y22912170D01*
X41163903Y23126337D01*
X41225063Y23354592D01*
X41245659Y23590000D01*
X41225063Y23825408D01*
X41163903Y24053663D01*
X41064035Y24267829D01*
X41064034Y24267830D01*
X41064033Y24267833D01*
X40928501Y24461393D01*
X40928498Y24461397D01*
X40928495Y24461401D01*
X40761401Y24628495D01*
X40578180Y24756788D01*
X40533853Y24812244D01*
X40526544Y24882863D01*
X40558575Y24946224D01*
X40578181Y24963213D01*
X40761401Y25091505D01*
X40928495Y25258599D01*
X41064035Y25452170D01*
X41163903Y25666337D01*
X41225063Y25894592D01*
X41245659Y26130000D01*
X41225063Y26365408D01*
X41163903Y26593663D01*
X41064035Y26807829D01*
X41064034Y26807830D01*
X41064033Y26807833D01*
X40928501Y27001393D01*
X40928498Y27001397D01*
X40928495Y27001401D01*
X40761401Y27168495D01*
X40578180Y27296788D01*
X40533853Y27352244D01*
X40526544Y27422863D01*
X40558575Y27486224D01*
X40578181Y27503213D01*
X40761401Y27631505D01*
X40928495Y27798599D01*
X41064035Y27992170D01*
X41163903Y28206337D01*
X41225063Y28434592D01*
X41245659Y28670000D01*
X41225063Y28905408D01*
X41163903Y29133663D01*
X41064035Y29347829D01*
X41064034Y29347830D01*
X41064033Y29347833D01*
X40928501Y29541393D01*
X40928498Y29541397D01*
X40928495Y29541401D01*
X40761401Y29708495D01*
X40578180Y29836788D01*
X40533853Y29892244D01*
X40526544Y29962863D01*
X40558575Y30026224D01*
X40578181Y30043213D01*
X40761401Y30171505D01*
X40928495Y30338599D01*
X41064035Y30532170D01*
X41163903Y30746337D01*
X41225063Y30974592D01*
X41245659Y31210000D01*
X41225063Y31445408D01*
X41163903Y31673663D01*
X41064035Y31887829D01*
X41064034Y31887830D01*
X41064033Y31887833D01*
X40928501Y32081393D01*
X40928497Y32081398D01*
X40928495Y32081401D01*
X40814599Y32195297D01*
X40780573Y32257609D01*
X40785638Y32328424D01*
X40828185Y32385260D01*
X40859662Y32402448D01*
X40985965Y32449556D01*
X41102904Y32537096D01*
X41190444Y32654035D01*
X41190444Y32654036D01*
X41241494Y32790907D01*
X41247999Y32851403D01*
X41248000Y32851415D01*
X41248000Y33496000D01*
X40333001Y33496000D01*
X40358682Y33535960D01*
X40400000Y33676673D01*
X40400000Y33823327D01*
X40358682Y33964040D01*
X40333001Y34004000D01*
X41248000Y34004000D01*
X41248000Y34648586D01*
X41247999Y34648598D01*
X41241494Y34709094D01*
X41190444Y34845965D01*
X41190444Y34845966D01*
X41102904Y34962905D01*
X40985966Y35050444D01*
X40859661Y35097553D01*
X40802826Y35140100D01*
X40778015Y35206620D01*
X40793106Y35275994D01*
X40814593Y35304698D01*
X40928495Y35418599D01*
X41064035Y35612170D01*
X41163903Y35826337D01*
X41225063Y36054592D01*
X41245659Y36290000D01*
X41225063Y36525408D01*
X41163903Y36753663D01*
X41064035Y36967829D01*
X41064034Y36967830D01*
X41064033Y36967833D01*
X40928501Y37161393D01*
X40928498Y37161397D01*
X40928495Y37161401D01*
X40761401Y37328495D01*
X40578180Y37456788D01*
X40533853Y37512244D01*
X40526544Y37582863D01*
X40558575Y37646224D01*
X40578181Y37663213D01*
X40761401Y37791505D01*
X40928495Y37958599D01*
X41064035Y38152170D01*
X41163903Y38366337D01*
X41225063Y38594592D01*
X41245659Y38830000D01*
X41225063Y39065408D01*
X41163903Y39293663D01*
X41064035Y39507829D01*
X41064034Y39507830D01*
X41064033Y39507833D01*
X40928501Y39701393D01*
X40928498Y39701397D01*
X40928495Y39701401D01*
X40761401Y39868495D01*
X40578180Y39996788D01*
X40533853Y40052244D01*
X40526544Y40122863D01*
X40558575Y40186224D01*
X40578181Y40203213D01*
X40761401Y40331505D01*
X40928495Y40498599D01*
X41064035Y40692170D01*
X41163903Y40906337D01*
X41225063Y41134592D01*
X41245659Y41370000D01*
X41225063Y41605408D01*
X41163903Y41833663D01*
X41064035Y42047829D01*
X41064034Y42047830D01*
X41064033Y42047833D01*
X40928501Y42241393D01*
X40928498Y42241397D01*
X40928495Y42241401D01*
X40761401Y42408495D01*
X40578180Y42536788D01*
X40533853Y42592244D01*
X40526544Y42662863D01*
X40558575Y42726224D01*
X40578181Y42743213D01*
X40761401Y42871505D01*
X40928495Y43038599D01*
X41064035Y43232170D01*
X41163903Y43446337D01*
X41225063Y43674592D01*
X41245659Y43910000D01*
X41225063Y44145408D01*
X41163903Y44373663D01*
X41064035Y44587829D01*
X41064034Y44587830D01*
X41064033Y44587833D01*
X40928501Y44781393D01*
X40928497Y44781398D01*
X40928495Y44781401D01*
X40814599Y44895297D01*
X40780573Y44957609D01*
X40785638Y45028424D01*
X40828185Y45085260D01*
X40859662Y45102448D01*
X40985965Y45149556D01*
X41102904Y45237096D01*
X41190444Y45354035D01*
X41190444Y45354036D01*
X41241494Y45490907D01*
X41247999Y45551403D01*
X41248000Y45551415D01*
X41248000Y46196000D01*
X40333001Y46196000D01*
X40358682Y46235960D01*
X40400000Y46376673D01*
X40400000Y46523327D01*
X40358682Y46664040D01*
X40333001Y46704000D01*
X41248000Y46704000D01*
X41248000Y47348586D01*
X41247999Y47348598D01*
X41241494Y47409094D01*
X41190444Y47545965D01*
X41190444Y47545966D01*
X41102904Y47662905D01*
X40985966Y47750444D01*
X40859661Y47797553D01*
X40802826Y47840100D01*
X40778015Y47906620D01*
X40793106Y47975994D01*
X40814593Y48004698D01*
X40928495Y48118599D01*
X41064035Y48312170D01*
X41163903Y48526337D01*
X41225063Y48754592D01*
X41245659Y48990000D01*
X41225063Y49225408D01*
X41163903Y49453663D01*
X41064035Y49667829D01*
X41064034Y49667830D01*
X41064033Y49667833D01*
X40928501Y49861393D01*
X40928498Y49861397D01*
X40928495Y49861401D01*
X40761401Y50028495D01*
X40760808Y50028910D01*
X40631847Y50119210D01*
X40578180Y50156788D01*
X40533853Y50212244D01*
X40526544Y50282863D01*
X40558575Y50346224D01*
X40578181Y50363213D01*
X40761401Y50491505D01*
X40928495Y50658599D01*
X41064035Y50852170D01*
X41163903Y51066337D01*
X41225063Y51294592D01*
X41245659Y51530000D01*
X41225063Y51765408D01*
X41163903Y51993663D01*
X41064035Y52207829D01*
X41064034Y52207830D01*
X41064033Y52207833D01*
X40928501Y52401393D01*
X40928498Y52401397D01*
X40928495Y52401401D01*
X40761401Y52568495D01*
X40751168Y52575660D01*
X40567830Y52704035D01*
X40522281Y52725275D01*
X40353663Y52803903D01*
X40353661Y52803904D01*
X40125411Y52865063D01*
X39890000Y52885659D01*
X39654588Y52865063D01*
X39426338Y52803904D01*
X39426334Y52803902D01*
X39212167Y52704034D01*
X39018607Y52568502D01*
X39018596Y52568493D01*
X38851507Y52401404D01*
X38851498Y52401393D01*
X38715966Y52207833D01*
X38616098Y51993666D01*
X38616096Y51993662D01*
X38554937Y51765412D01*
X38534341Y51530000D01*
X38554937Y51294589D01*
X38616096Y51066339D01*
X38616097Y51066337D01*
X38704887Y50875926D01*
X38715965Y50852170D01*
X38825024Y50696417D01*
X38851505Y50658599D01*
X39018599Y50491505D01*
X39197714Y50366087D01*
X39201819Y50363213D01*
X39246147Y50307756D01*
X39253456Y50237137D01*
X39221425Y50173776D01*
X39201819Y50156787D01*
X39018602Y50028498D01*
X39018596Y50028493D01*
X38851507Y49861404D01*
X38851498Y49861393D01*
X38715966Y49667833D01*
X38616098Y49453666D01*
X38616096Y49453662D01*
X38554937Y49225412D01*
X38534341Y48990000D01*
X38554937Y48754589D01*
X38616096Y48526339D01*
X38616098Y48526335D01*
X38715965Y48312170D01*
X38851502Y48118603D01*
X38851507Y48118597D01*
X38965400Y48004704D01*
X38999426Y47942392D01*
X38994361Y47871577D01*
X38951814Y47814741D01*
X38920338Y47797553D01*
X38794033Y47750444D01*
X38677095Y47662905D01*
X38589555Y47545966D01*
X38589555Y47545965D01*
X38538505Y47409094D01*
X38532000Y47348598D01*
X38532000Y46704000D01*
X39446999Y46704000D01*
X39421318Y46664040D01*
X39380000Y46523327D01*
X39380000Y46376673D01*
X39421318Y46235960D01*
X39446999Y46196000D01*
X38532000Y46196000D01*
X38532000Y45551403D01*
X38538505Y45490907D01*
X38589555Y45354036D01*
X38589555Y45354035D01*
X38677095Y45237096D01*
X38794034Y45149556D01*
X38920337Y45102448D01*
X38977173Y45059901D01*
X39001984Y44993381D01*
X38986893Y44924007D01*
X38965401Y44895297D01*
X38851502Y44781398D01*
X38851498Y44781393D01*
X38715966Y44587833D01*
X38616098Y44373666D01*
X38616096Y44373662D01*
X38554937Y44145412D01*
X38534341Y43910000D01*
X38554937Y43674589D01*
X38593220Y43531715D01*
X38616097Y43446337D01*
X38715965Y43232170D01*
X38851505Y43038599D01*
X39018599Y42871505D01*
X39018602Y42871503D01*
X39201819Y42743213D01*
X39246147Y42687756D01*
X39253456Y42617137D01*
X39221425Y42553776D01*
X39201819Y42536787D01*
X39018602Y42408498D01*
X39018596Y42408493D01*
X38851507Y42241404D01*
X38851498Y42241393D01*
X38715966Y42047833D01*
X38616098Y41833666D01*
X38616096Y41833662D01*
X38554937Y41605412D01*
X38534341Y41370000D01*
X38554937Y41134589D01*
X38616096Y40906339D01*
X38616098Y40906335D01*
X38715965Y40692170D01*
X38837573Y40518495D01*
X38851505Y40498599D01*
X39018599Y40331505D01*
X39018602Y40331503D01*
X39201819Y40203213D01*
X39246147Y40147756D01*
X39253456Y40077137D01*
X39221425Y40013776D01*
X39201819Y39996787D01*
X39018602Y39868498D01*
X39018596Y39868493D01*
X38851507Y39701404D01*
X38851498Y39701393D01*
X38715966Y39507833D01*
X38616098Y39293666D01*
X38616096Y39293662D01*
X38554937Y39065412D01*
X38534341Y38830000D01*
X38554937Y38594589D01*
X38616096Y38366339D01*
X38616098Y38366335D01*
X38715965Y38152170D01*
X38765960Y38080769D01*
X38851505Y37958599D01*
X39018599Y37791505D01*
X39018602Y37791503D01*
X39201819Y37663213D01*
X39246147Y37607756D01*
X39253456Y37537137D01*
X39221425Y37473776D01*
X39201819Y37456787D01*
X39018602Y37328498D01*
X39018596Y37328493D01*
X38851507Y37161404D01*
X38851498Y37161393D01*
X38715966Y36967833D01*
X38616098Y36753666D01*
X38616096Y36753662D01*
X38554937Y36525412D01*
X38534341Y36290000D01*
X38554937Y36054589D01*
X38616096Y35826339D01*
X38616097Y35826337D01*
X38651461Y35750499D01*
X38715965Y35612170D01*
X38851502Y35418603D01*
X38851507Y35418597D01*
X38965400Y35304704D01*
X38999426Y35242392D01*
X38994361Y35171577D01*
X38951814Y35114741D01*
X38920338Y35097553D01*
X38794033Y35050444D01*
X38677095Y34962905D01*
X38589555Y34845966D01*
X38589555Y34845965D01*
X38538505Y34709094D01*
X38532000Y34648598D01*
X38532000Y34004000D01*
X39446999Y34004000D01*
X39421318Y33964040D01*
X39380000Y33823327D01*
X39380000Y33676673D01*
X39421318Y33535960D01*
X39446999Y33496000D01*
X38532000Y33496000D01*
X38532000Y32851403D01*
X38538505Y32790907D01*
X38589555Y32654036D01*
X38589555Y32654035D01*
X38677095Y32537096D01*
X38794034Y32449556D01*
X38920337Y32402448D01*
X38977173Y32359901D01*
X39001984Y32293381D01*
X38986893Y32224007D01*
X38965401Y32195297D01*
X38851502Y32081398D01*
X38851498Y32081393D01*
X38715966Y31887833D01*
X38616098Y31673666D01*
X38616096Y31673662D01*
X38554937Y31445412D01*
X38534341Y31210000D01*
X38554937Y30974589D01*
X38616096Y30746339D01*
X38616097Y30746337D01*
X38715965Y30532170D01*
X38851505Y30338599D01*
X39018599Y30171505D01*
X39018602Y30171503D01*
X39201819Y30043213D01*
X39246147Y29987756D01*
X39253456Y29917137D01*
X39221425Y29853776D01*
X39201819Y29836787D01*
X39018602Y29708498D01*
X39018596Y29708493D01*
X38851507Y29541404D01*
X38851498Y29541393D01*
X38715966Y29347833D01*
X38616098Y29133666D01*
X38616096Y29133662D01*
X38554937Y28905412D01*
X38534341Y28670000D01*
X38554937Y28434589D01*
X38614648Y28211744D01*
X38616097Y28206337D01*
X38715965Y27992170D01*
X38851505Y27798599D01*
X39018599Y27631505D01*
X39150915Y27538856D01*
X39201819Y27503213D01*
X39246147Y27447756D01*
X39253456Y27377137D01*
X39221425Y27313776D01*
X39201819Y27296787D01*
X39018602Y27168498D01*
X39018596Y27168493D01*
X38851507Y27001404D01*
X38851498Y27001393D01*
X38715966Y26807833D01*
X38616098Y26593666D01*
X38616096Y26593662D01*
X38554937Y26365412D01*
X38534341Y26130000D01*
X38554937Y25894589D01*
X38616096Y25666339D01*
X38616097Y25666337D01*
X38715965Y25452170D01*
X38851505Y25258599D01*
X39018599Y25091505D01*
X39018602Y25091503D01*
X39201819Y24963213D01*
X39246147Y24907756D01*
X39253456Y24837137D01*
X39221425Y24773776D01*
X39201819Y24756787D01*
X39018602Y24628498D01*
X39018596Y24628493D01*
X38851507Y24461404D01*
X38851498Y24461393D01*
X38715966Y24267833D01*
X38616098Y24053666D01*
X38616096Y24053662D01*
X38554937Y23825412D01*
X38534341Y23590000D01*
X38554937Y23354589D01*
X38616096Y23126339D01*
X38616098Y23126335D01*
X38715965Y22912170D01*
X38851502Y22718603D01*
X38851507Y22718597D01*
X38965400Y22604704D01*
X38999426Y22542392D01*
X38994361Y22471577D01*
X38951814Y22414741D01*
X38920338Y22397553D01*
X38794033Y22350444D01*
X38677095Y22262905D01*
X38589555Y22145966D01*
X38589555Y22145965D01*
X38538505Y22009094D01*
X38532000Y21948598D01*
X38532000Y21304000D01*
X39446999Y21304000D01*
X39421318Y21264040D01*
X39380000Y21123327D01*
X39380000Y20976673D01*
X39421318Y20835960D01*
X39446999Y20796000D01*
X38532000Y20796000D01*
X38532000Y20151403D01*
X38538505Y20090907D01*
X38589555Y19954036D01*
X38589555Y19954035D01*
X38677095Y19837096D01*
X38794034Y19749556D01*
X38920337Y19702448D01*
X38977173Y19659901D01*
X39001984Y19593381D01*
X38986893Y19524007D01*
X38965401Y19495297D01*
X38851502Y19381398D01*
X38851498Y19381393D01*
X38715966Y19187833D01*
X38616098Y18973666D01*
X38616096Y18973662D01*
X38554937Y18745412D01*
X38534341Y18510000D01*
X38554937Y18274589D01*
X38616096Y18046339D01*
X38616097Y18046337D01*
X38715965Y17832170D01*
X38851505Y17638599D01*
X39018599Y17471505D01*
X39018602Y17471503D01*
X39201819Y17343213D01*
X39246147Y17287756D01*
X39253456Y17217137D01*
X39221425Y17153776D01*
X39201819Y17136787D01*
X39018602Y17008498D01*
X39018596Y17008493D01*
X38851507Y16841404D01*
X38851498Y16841393D01*
X38715966Y16647833D01*
X38616098Y16433666D01*
X38616096Y16433662D01*
X38554937Y16205412D01*
X38534341Y15970000D01*
X38554937Y15734589D01*
X38616096Y15506339D01*
X38616097Y15506337D01*
X38715965Y15292170D01*
X38851505Y15098599D01*
X39018599Y14931505D01*
X39018602Y14931503D01*
X39201819Y14803213D01*
X39246147Y14747756D01*
X39253456Y14677137D01*
X39221425Y14613776D01*
X39201819Y14596787D01*
X39018602Y14468498D01*
X39018596Y14468493D01*
X38851507Y14301404D01*
X38851498Y14301393D01*
X38715966Y14107833D01*
X38616098Y13893666D01*
X38616096Y13893662D01*
X38554937Y13665412D01*
X38534341Y13430000D01*
X38554937Y13194589D01*
X38616096Y12966339D01*
X38616098Y12966335D01*
X38715965Y12752170D01*
X38847663Y12564085D01*
X38851505Y12558599D01*
X39018599Y12391505D01*
X39018602Y12391503D01*
X39201819Y12263213D01*
X39246147Y12207756D01*
X39253456Y12137137D01*
X39221425Y12073776D01*
X39201819Y12056787D01*
X39018602Y11928498D01*
X39018596Y11928493D01*
X38851507Y11761404D01*
X38851498Y11761393D01*
X38715966Y11567833D01*
X38616098Y11353666D01*
X38616096Y11353662D01*
X38554937Y11125412D01*
X38534341Y10890000D01*
X38554937Y10654589D01*
X38616096Y10426339D01*
X38616098Y10426335D01*
X38715965Y10212170D01*
X38851502Y10018603D01*
X38851507Y10018597D01*
X38965400Y9904704D01*
X38999426Y9842392D01*
X38994361Y9771577D01*
X38951814Y9714741D01*
X38920338Y9697553D01*
X38794033Y9650444D01*
X38677095Y9562905D01*
X38589555Y9445966D01*
X38589555Y9445965D01*
X38538505Y9309094D01*
X38532000Y9248598D01*
X38532000Y8604000D01*
X39446999Y8604000D01*
X39421318Y8564040D01*
X39380000Y8423327D01*
X39380000Y8276673D01*
X39421318Y8135960D01*
X39446999Y8096000D01*
X38532000Y8096000D01*
X38532000Y7451403D01*
X23467999Y7451403D01*
X23468000Y7451415D01*
X23468000Y8096000D01*
X22553001Y8096000D01*
X22578682Y8135960D01*
X22620000Y8276673D01*
X22620000Y8423327D01*
X22578682Y8564040D01*
X22553001Y8604000D01*
X23468000Y8604000D01*
X23468000Y9248586D01*
X23467999Y9248598D01*
X23461494Y9309094D01*
X23410444Y9445965D01*
X23410444Y9445966D01*
X23322904Y9562905D01*
X23205966Y9650444D01*
X23079661Y9697553D01*
X23022826Y9740100D01*
X22998015Y9806620D01*
X23013106Y9875994D01*
X23034593Y9904698D01*
X23148495Y10018599D01*
X23284035Y10212170D01*
X23383903Y10426337D01*
X23445063Y10654592D01*
X23465659Y10890000D01*
X23445063Y11125408D01*
X23383903Y11353663D01*
X23284035Y11567829D01*
X23284034Y11567830D01*
X23284033Y11567833D01*
X23148501Y11761393D01*
X23148498Y11761397D01*
X23148495Y11761401D01*
X22981401Y11928495D01*
X22798180Y12056788D01*
X22753853Y12112244D01*
X22746544Y12182863D01*
X22778575Y12246224D01*
X22798181Y12263213D01*
X22815944Y12275651D01*
X22981401Y12391505D01*
X23148495Y12558599D01*
X23284035Y12752170D01*
X23383903Y12966337D01*
X23445063Y13194592D01*
X23465659Y13430000D01*
X23445063Y13665408D01*
X23383903Y13893663D01*
X23284035Y14107829D01*
X23284034Y14107830D01*
X23284033Y14107833D01*
X23148501Y14301393D01*
X23148498Y14301397D01*
X23148495Y14301401D01*
X22981401Y14468495D01*
X22798180Y14596788D01*
X22753853Y14652244D01*
X22746544Y14722863D01*
X22778575Y14786224D01*
X22798181Y14803213D01*
X22981401Y14931505D01*
X23148495Y15098599D01*
X23284035Y15292170D01*
X23383903Y15506337D01*
X23445063Y15734592D01*
X23465659Y15970000D01*
X23445063Y16205408D01*
X23383903Y16433663D01*
X23284035Y16647829D01*
X23284034Y16647830D01*
X23284033Y16647833D01*
X23148501Y16841393D01*
X23148498Y16841397D01*
X23148495Y16841401D01*
X22981401Y17008495D01*
X22798180Y17136788D01*
X22753853Y17192244D01*
X22746544Y17262863D01*
X22778575Y17326224D01*
X22798181Y17343213D01*
X22981401Y17471505D01*
X23148495Y17638599D01*
X23284035Y17832170D01*
X23383903Y18046337D01*
X23445063Y18274592D01*
X23465659Y18510000D01*
X23445063Y18745408D01*
X23383903Y18973663D01*
X23284035Y19187829D01*
X23284034Y19187830D01*
X23284033Y19187833D01*
X23148501Y19381393D01*
X23148497Y19381398D01*
X23148495Y19381401D01*
X23034599Y19495297D01*
X23000573Y19557609D01*
X23005638Y19628424D01*
X23048185Y19685260D01*
X23079662Y19702448D01*
X23205965Y19749556D01*
X23322904Y19837096D01*
X23410444Y19954035D01*
X23410444Y19954036D01*
X23461494Y20090907D01*
X23467999Y20151403D01*
X23468000Y20151415D01*
X23468000Y20796000D01*
X22553001Y20796000D01*
X22578682Y20835960D01*
X22620000Y20976673D01*
X22620000Y21123327D01*
X22578682Y21264040D01*
X22553001Y21304000D01*
X23468000Y21304000D01*
X23468000Y21700000D01*
X30194341Y21700000D01*
X30214937Y21464589D01*
X30276096Y21236339D01*
X30276097Y21236337D01*
X30375965Y21022170D01*
X30511505Y20828599D01*
X30678599Y20661505D01*
X30872170Y20525965D01*
X31086337Y20426097D01*
X31314592Y20364937D01*
X31550000Y20344341D01*
X31785408Y20364937D01*
X32013663Y20426097D01*
X32227830Y20525965D01*
X32421401Y20661505D01*
X32588495Y20828599D01*
X32721787Y21018961D01*
X32777244Y21063288D01*
X32847863Y21070597D01*
X32911224Y21038567D01*
X32928211Y21018962D01*
X33061505Y20828599D01*
X33228599Y20661505D01*
X33422170Y20525965D01*
X33636337Y20426097D01*
X33864592Y20364937D01*
X34100000Y20344341D01*
X34335408Y20364937D01*
X34563663Y20426097D01*
X34777830Y20525965D01*
X34971401Y20661505D01*
X35138495Y20828599D01*
X35271787Y21018961D01*
X35327244Y21063288D01*
X35397863Y21070597D01*
X35461224Y21038567D01*
X35478211Y21018962D01*
X35611505Y20828599D01*
X35778599Y20661505D01*
X35972170Y20525965D01*
X36186337Y20426097D01*
X36414592Y20364937D01*
X36650000Y20344341D01*
X36885408Y20364937D01*
X37113663Y20426097D01*
X37327830Y20525965D01*
X37521401Y20661505D01*
X37688495Y20828599D01*
X37824035Y21022170D01*
X37923903Y21236337D01*
X37985063Y21464592D01*
X38005659Y21700000D01*
X37985063Y21935408D01*
X37923903Y22163663D01*
X37824035Y22377829D01*
X37824034Y22377830D01*
X37824033Y22377833D01*
X37688501Y22571393D01*
X37688497Y22571398D01*
X37688495Y22571401D01*
X37521401Y22738495D01*
X37327830Y22874035D01*
X37113663Y22973903D01*
X37113661Y22973904D01*
X36885411Y23035063D01*
X36650000Y23055659D01*
X36414588Y23035063D01*
X36186338Y22973904D01*
X36186334Y22973902D01*
X35972167Y22874034D01*
X35778607Y22738502D01*
X35778596Y22738493D01*
X35611507Y22571404D01*
X35611502Y22571398D01*
X35478213Y22381040D01*
X35422756Y22336712D01*
X35352137Y22329403D01*
X35288776Y22361433D01*
X35271787Y22381040D01*
X35138497Y22571398D01*
X35138492Y22571404D01*
X34971403Y22738493D01*
X34971397Y22738498D01*
X34777830Y22874035D01*
X34563665Y22973902D01*
X34563661Y22973904D01*
X34335411Y23035063D01*
X34100000Y23055659D01*
X33864588Y23035063D01*
X33636338Y22973904D01*
X33636334Y22973902D01*
X33422167Y22874034D01*
X33228607Y22738502D01*
X33228596Y22738493D01*
X33061507Y22571404D01*
X33061502Y22571398D01*
X32928213Y22381040D01*
X32872756Y22336712D01*
X32802137Y22329403D01*
X32738776Y22361433D01*
X32721787Y22381040D01*
X32588497Y22571398D01*
X32588492Y22571404D01*
X32421403Y22738493D01*
X32421397Y22738498D01*
X32227830Y22874035D01*
X32013665Y22973902D01*
X32013661Y22973904D01*
X31785411Y23035063D01*
X31550000Y23055659D01*
X31314588Y23035063D01*
X31086338Y22973904D01*
X31086334Y22973902D01*
X30872167Y22874034D01*
X30678607Y22738502D01*
X30678596Y22738493D01*
X30511507Y22571404D01*
X30511498Y22571393D01*
X30375966Y22377833D01*
X30276098Y22163666D01*
X30276096Y22163662D01*
X30214937Y21935412D01*
X30194341Y21700000D01*
X23468000Y21700000D01*
X23468000Y21948586D01*
X23467999Y21948598D01*
X23461494Y22009094D01*
X23410444Y22145965D01*
X23410444Y22145966D01*
X23322904Y22262905D01*
X23205966Y22350444D01*
X23079661Y22397553D01*
X23022826Y22440100D01*
X22998015Y22506620D01*
X23013106Y22575994D01*
X23034593Y22604698D01*
X23148495Y22718599D01*
X23284035Y22912170D01*
X23383903Y23126337D01*
X23445063Y23354592D01*
X23465659Y23590000D01*
X23445063Y23825408D01*
X23383903Y24053663D01*
X23284035Y24267829D01*
X23284034Y24267830D01*
X23284033Y24267833D01*
X23148501Y24461393D01*
X23148498Y24461397D01*
X23148495Y24461401D01*
X22981401Y24628495D01*
X22798180Y24756788D01*
X22753853Y24812244D01*
X22746544Y24882863D01*
X22778575Y24946224D01*
X22798181Y24963213D01*
X22981401Y25091505D01*
X23148495Y25258599D01*
X23284035Y25452170D01*
X23383903Y25666337D01*
X23445063Y25894592D01*
X23465659Y26130000D01*
X23445063Y26365408D01*
X23383903Y26593663D01*
X23284035Y26807829D01*
X23284034Y26807830D01*
X23284033Y26807833D01*
X23148501Y27001393D01*
X23148498Y27001397D01*
X23148495Y27001401D01*
X22981401Y27168495D01*
X22798180Y27296788D01*
X22753853Y27352244D01*
X22746544Y27422863D01*
X22778575Y27486224D01*
X22798181Y27503213D01*
X22981401Y27631505D01*
X23148495Y27798599D01*
X23284035Y27992170D01*
X23383903Y28206337D01*
X23445063Y28434592D01*
X23465659Y28670000D01*
X23445063Y28905408D01*
X23383903Y29133663D01*
X23284035Y29347829D01*
X23284034Y29347830D01*
X23284033Y29347833D01*
X23148501Y29541393D01*
X23148498Y29541397D01*
X23148495Y29541401D01*
X22981401Y29708495D01*
X22798180Y29836788D01*
X22753853Y29892244D01*
X22746544Y29962863D01*
X22778575Y30026224D01*
X22798181Y30043213D01*
X22981401Y30171505D01*
X23148495Y30338599D01*
X23284035Y30532170D01*
X23383903Y30746337D01*
X23445063Y30974592D01*
X23465659Y31210000D01*
X23445063Y31445408D01*
X23383903Y31673663D01*
X23284035Y31887829D01*
X23284034Y31887830D01*
X23284033Y31887833D01*
X23148501Y32081393D01*
X23148497Y32081398D01*
X23148495Y32081401D01*
X23034599Y32195297D01*
X23000573Y32257609D01*
X23005638Y32328424D01*
X23048185Y32385260D01*
X23079662Y32402448D01*
X23205965Y32449556D01*
X23322904Y32537096D01*
X23410444Y32654035D01*
X23410444Y32654036D01*
X23461494Y32790907D01*
X23467999Y32851403D01*
X23468000Y32851415D01*
X23468000Y33496000D01*
X22553001Y33496000D01*
X22578682Y33535960D01*
X22620000Y33676673D01*
X22620000Y33823327D01*
X22578682Y33964040D01*
X22553001Y34004000D01*
X23468000Y34004000D01*
X23468000Y34648586D01*
X23467999Y34648598D01*
X23461494Y34709094D01*
X23410444Y34845965D01*
X23410444Y34845966D01*
X23322904Y34962905D01*
X23205966Y35050444D01*
X23079661Y35097553D01*
X23022826Y35140100D01*
X22998015Y35206620D01*
X23013106Y35275994D01*
X23034593Y35304698D01*
X23148495Y35418599D01*
X23284035Y35612170D01*
X23383903Y35826337D01*
X23445063Y36054592D01*
X23465659Y36290000D01*
X23445063Y36525408D01*
X23383903Y36753663D01*
X23284035Y36967829D01*
X23284034Y36967830D01*
X23284033Y36967833D01*
X23148501Y37161393D01*
X23148498Y37161397D01*
X23148495Y37161401D01*
X22981401Y37328495D01*
X22798180Y37456788D01*
X22753853Y37512244D01*
X22746544Y37582863D01*
X22778575Y37646224D01*
X22798181Y37663213D01*
X22981401Y37791505D01*
X23148495Y37958599D01*
X23284035Y38152170D01*
X23383903Y38366337D01*
X23445063Y38594592D01*
X23465659Y38830000D01*
X23445063Y39065408D01*
X23383903Y39293663D01*
X23284035Y39507829D01*
X23284034Y39507830D01*
X23284033Y39507833D01*
X23148501Y39701393D01*
X23148498Y39701397D01*
X23148495Y39701401D01*
X22981401Y39868495D01*
X22798180Y39996788D01*
X22753853Y40052244D01*
X22746544Y40122863D01*
X22778575Y40186224D01*
X22798181Y40203213D01*
X22981401Y40331505D01*
X23148495Y40498599D01*
X23284035Y40692170D01*
X23383903Y40906337D01*
X23445063Y41134592D01*
X23465659Y41370000D01*
X23445063Y41605408D01*
X23383903Y41833663D01*
X23284035Y42047829D01*
X23284034Y42047830D01*
X23284033Y42047833D01*
X23148501Y42241393D01*
X23148498Y42241397D01*
X23148495Y42241401D01*
X22981401Y42408495D01*
X22798180Y42536788D01*
X22753853Y42592244D01*
X22746544Y42662863D01*
X22778575Y42726224D01*
X22798181Y42743213D01*
X22981401Y42871505D01*
X23148495Y43038599D01*
X23284035Y43232170D01*
X23383903Y43446337D01*
X23445063Y43674592D01*
X23465659Y43910000D01*
X23445063Y44145408D01*
X23383903Y44373663D01*
X23284035Y44587829D01*
X23284034Y44587830D01*
X23284033Y44587833D01*
X23148501Y44781393D01*
X23148497Y44781398D01*
X23148495Y44781401D01*
X23034599Y44895297D01*
X23000573Y44957609D01*
X23005638Y45028424D01*
X23048185Y45085260D01*
X23079662Y45102448D01*
X23205965Y45149556D01*
X23322904Y45237096D01*
X23410444Y45354035D01*
X23410444Y45354036D01*
X23461494Y45490907D01*
X23467999Y45551403D01*
X23468000Y45551415D01*
X23468000Y46196000D01*
X22553001Y46196000D01*
X22578682Y46235960D01*
X22620000Y46376673D01*
X22620000Y46523327D01*
X22578682Y46664040D01*
X22553001Y46704000D01*
X23468000Y46704000D01*
X23468000Y47348586D01*
X23467999Y47348598D01*
X23461494Y47409094D01*
X23410444Y47545965D01*
X23410444Y47545966D01*
X23322904Y47662905D01*
X23205966Y47750444D01*
X23079661Y47797553D01*
X23022826Y47840100D01*
X22998015Y47906620D01*
X23013106Y47975994D01*
X23034593Y48004698D01*
X23148495Y48118599D01*
X23284035Y48312170D01*
X23311001Y48369999D01*
X27319723Y48369999D01*
X27321683Y48347590D01*
X27321859Y48339268D01*
X27320709Y48313674D01*
X27320710Y48313671D01*
X27331636Y48233000D01*
X27331966Y48230036D01*
X27338792Y48152028D01*
X27338794Y48152013D01*
X27345465Y48127119D01*
X27347042Y48119266D01*
X27350924Y48090614D01*
X27357977Y48068908D01*
X27375074Y48016289D01*
X27376004Y48013151D01*
X27395424Y47940673D01*
X27395428Y47940662D01*
X27407711Y47914320D01*
X27410531Y47907160D01*
X27417474Y47885796D01*
X27420483Y47876536D01*
X27440090Y47840100D01*
X27455950Y47810626D01*
X27457570Y47807397D01*
X27487896Y47742363D01*
X27506457Y47715856D01*
X27510332Y47709568D01*
X27527148Y47678318D01*
X27571778Y47622354D01*
X27574129Y47619209D01*
X27591942Y47593771D01*
X27613402Y47563123D01*
X27638611Y47537914D01*
X27643314Y47532651D01*
X27654342Y47518823D01*
X27667492Y47502334D01*
X27667494Y47502332D01*
X27667496Y47502330D01*
X27718929Y47457395D01*
X27722012Y47454513D01*
X27768123Y47408402D01*
X27800023Y47386066D01*
X27805331Y47381908D01*
X27837004Y47354235D01*
X27846439Y47348598D01*
X27892824Y47320884D01*
X27896648Y47318408D01*
X27947356Y47282901D01*
X27947365Y47282896D01*
X27985625Y47265055D01*
X27991315Y47262038D01*
X28028350Y47239912D01*
X28030236Y47238785D01*
X28088060Y47217085D01*
X28092520Y47215210D01*
X28145670Y47190425D01*
X28189631Y47178646D01*
X28195443Y47176783D01*
X28240976Y47159693D01*
X28240978Y47159693D01*
X28240980Y47159692D01*
X28298493Y47149255D01*
X28303553Y47148120D01*
X28357013Y47133795D01*
X28357018Y47133794D01*
X28357019Y47133794D01*
X28357023Y47133793D01*
X28389986Y47130910D01*
X28405623Y47129541D01*
X28411381Y47128769D01*
X28462453Y47119500D01*
X28517641Y47119500D01*
X28523134Y47119260D01*
X28558261Y47116188D01*
X28575000Y47114723D01*
X28575001Y47114724D01*
X28575003Y47114723D01*
X28586568Y47115736D01*
X28628014Y47119361D01*
X28631106Y47119500D01*
X28631155Y47119500D01*
X28685172Y47124362D01*
X28792977Y47133793D01*
X28792988Y47133797D01*
X28793458Y47133878D01*
X28798788Y47134588D01*
X28799188Y47134623D01*
X28902997Y47163274D01*
X29004330Y47190425D01*
X29004346Y47190433D01*
X29011202Y47192928D01*
X29015994Y47194459D01*
X29016170Y47194507D01*
X29110454Y47239912D01*
X29202639Y47282898D01*
X29202646Y47282904D01*
X29207413Y47285654D01*
X29207493Y47285516D01*
X29218303Y47291849D01*
X29218973Y47292171D01*
X29301156Y47351882D01*
X29381877Y47408402D01*
X29382626Y47409152D01*
X29397678Y47422009D01*
X29401078Y47424478D01*
X29469131Y47495657D01*
X29536598Y47563123D01*
X29539193Y47566831D01*
X29551336Y47581637D01*
X29556632Y47587175D01*
X29609164Y47666759D01*
X29662102Y47742361D01*
X29665475Y47749597D01*
X29674509Y47765753D01*
X29680635Y47775032D01*
X29716889Y47859854D01*
X29754575Y47940670D01*
X29757533Y47951711D01*
X29763380Y47968624D01*
X29769103Y47982012D01*
X29788936Y48068908D01*
X29811207Y48152023D01*
X29812880Y48171159D01*
X29814222Y48179695D01*
X29819191Y48201463D01*
X29823050Y48287398D01*
X29827953Y48343438D01*
X29830277Y48369996D01*
X29830277Y48369999D01*
X32169723Y48369999D01*
X32171683Y48347590D01*
X32171859Y48339268D01*
X32170709Y48313674D01*
X32170710Y48313671D01*
X32181636Y48233000D01*
X32181966Y48230036D01*
X32188792Y48152028D01*
X32188794Y48152013D01*
X32195465Y48127119D01*
X32197042Y48119266D01*
X32200924Y48090614D01*
X32207977Y48068908D01*
X32225074Y48016289D01*
X32226004Y48013151D01*
X32245424Y47940673D01*
X32245428Y47940662D01*
X32257711Y47914320D01*
X32260531Y47907160D01*
X32267474Y47885796D01*
X32270483Y47876536D01*
X32290090Y47840100D01*
X32305950Y47810626D01*
X32307570Y47807397D01*
X32337896Y47742363D01*
X32356457Y47715856D01*
X32360332Y47709568D01*
X32377148Y47678318D01*
X32421778Y47622354D01*
X32424129Y47619209D01*
X32441942Y47593771D01*
X32463402Y47563123D01*
X32488611Y47537914D01*
X32493314Y47532651D01*
X32504342Y47518823D01*
X32517492Y47502334D01*
X32517494Y47502332D01*
X32517496Y47502330D01*
X32568929Y47457395D01*
X32572012Y47454513D01*
X32618123Y47408402D01*
X32650023Y47386066D01*
X32655331Y47381908D01*
X32687004Y47354235D01*
X32696439Y47348598D01*
X32742824Y47320884D01*
X32746648Y47318408D01*
X32797356Y47282901D01*
X32797365Y47282896D01*
X32835625Y47265055D01*
X32841315Y47262038D01*
X32878350Y47239912D01*
X32880236Y47238785D01*
X32938060Y47217085D01*
X32942520Y47215210D01*
X32995670Y47190425D01*
X33039631Y47178646D01*
X33045443Y47176783D01*
X33090976Y47159693D01*
X33090978Y47159693D01*
X33090980Y47159692D01*
X33148493Y47149255D01*
X33153553Y47148120D01*
X33207013Y47133795D01*
X33207018Y47133794D01*
X33207019Y47133794D01*
X33207023Y47133793D01*
X33239986Y47130910D01*
X33255623Y47129541D01*
X33261381Y47128769D01*
X33312453Y47119500D01*
X33367641Y47119500D01*
X33373134Y47119260D01*
X33408261Y47116188D01*
X33425000Y47114723D01*
X33425001Y47114724D01*
X33425003Y47114723D01*
X33436568Y47115736D01*
X33478014Y47119361D01*
X33481106Y47119500D01*
X33481155Y47119500D01*
X33535172Y47124362D01*
X33642977Y47133793D01*
X33642988Y47133797D01*
X33643458Y47133878D01*
X33648788Y47134588D01*
X33649188Y47134623D01*
X33752997Y47163274D01*
X33854330Y47190425D01*
X33854346Y47190433D01*
X33861202Y47192928D01*
X33865994Y47194459D01*
X33866170Y47194507D01*
X33960454Y47239912D01*
X34052639Y47282898D01*
X34052646Y47282904D01*
X34057413Y47285654D01*
X34057493Y47285516D01*
X34068303Y47291849D01*
X34068973Y47292171D01*
X34151156Y47351882D01*
X34231877Y47408402D01*
X34232626Y47409152D01*
X34247678Y47422009D01*
X34251078Y47424478D01*
X34319131Y47495657D01*
X34386598Y47563123D01*
X34389193Y47566831D01*
X34401336Y47581637D01*
X34406632Y47587175D01*
X34459164Y47666759D01*
X34512102Y47742361D01*
X34515475Y47749597D01*
X34524509Y47765753D01*
X34530635Y47775032D01*
X34566889Y47859854D01*
X34604575Y47940670D01*
X34607533Y47951711D01*
X34613380Y47968624D01*
X34619103Y47982012D01*
X34638936Y48068908D01*
X34661207Y48152023D01*
X34662880Y48171159D01*
X34664222Y48179695D01*
X34669191Y48201463D01*
X34673050Y48287398D01*
X34677953Y48343438D01*
X34680277Y48369996D01*
X34678316Y48392411D01*
X34678140Y48400731D01*
X34679290Y48426330D01*
X34668359Y48507016D01*
X34668033Y48509947D01*
X34661207Y48587977D01*
X34654531Y48612888D01*
X34652956Y48620732D01*
X34649075Y48649387D01*
X34624927Y48723704D01*
X34623992Y48726862D01*
X34612061Y48771389D01*
X34604575Y48799330D01*
X34598145Y48813119D01*
X34592289Y48825678D01*
X34589467Y48832841D01*
X34579517Y48863464D01*
X34544042Y48929387D01*
X34542422Y48932617D01*
X34512104Y48997634D01*
X34512102Y48997638D01*
X34493543Y49024143D01*
X34489668Y49030431D01*
X34485946Y49037348D01*
X34472852Y49061681D01*
X34472849Y49061685D01*
X34472846Y49061690D01*
X34447641Y49093294D01*
X34428214Y49117655D01*
X34425875Y49120783D01*
X34394703Y49165302D01*
X34386598Y49176877D01*
X34361387Y49202088D01*
X34356684Y49207351D01*
X34332510Y49237665D01*
X34332506Y49237668D01*
X34281061Y49282615D01*
X34277977Y49285498D01*
X34231877Y49331598D01*
X34231876Y49331599D01*
X34231875Y49331600D01*
X34231872Y49331602D01*
X34199980Y49353933D01*
X34194675Y49358087D01*
X34162996Y49385765D01*
X34131322Y49404689D01*
X34107173Y49419118D01*
X34103351Y49421594D01*
X34052638Y49457103D01*
X34014368Y49474950D01*
X34008679Y49477965D01*
X33969768Y49501213D01*
X33969763Y49501216D01*
X33911959Y49522910D01*
X33907470Y49524796D01*
X33854330Y49549575D01*
X33854324Y49549577D01*
X33823565Y49557819D01*
X33810378Y49561353D01*
X33804551Y49563221D01*
X33768563Y49576727D01*
X33759030Y49580305D01*
X33759027Y49580306D01*
X33759024Y49580307D01*
X33749272Y49582077D01*
X33701497Y49590748D01*
X33696442Y49591882D01*
X33642977Y49606208D01*
X33594378Y49610460D01*
X33588619Y49611233D01*
X33537552Y49620500D01*
X33537547Y49620500D01*
X33482359Y49620500D01*
X33476866Y49620740D01*
X33425000Y49625277D01*
X33372027Y49620643D01*
X33368843Y49620500D01*
X33314826Y49615639D01*
X33207013Y49606207D01*
X33206505Y49606117D01*
X33201244Y49605417D01*
X33200828Y49605380D01*
X33200798Y49605375D01*
X33097002Y49576728D01*
X32995663Y49549574D01*
X32988766Y49547064D01*
X32984009Y49545544D01*
X32983844Y49545499D01*
X32983830Y49545494D01*
X32889528Y49500081D01*
X32797360Y49457102D01*
X32792602Y49454354D01*
X32792524Y49454489D01*
X32781730Y49448168D01*
X32781034Y49447834D01*
X32781026Y49447829D01*
X32698831Y49388111D01*
X32618122Y49331598D01*
X32617343Y49330819D01*
X32602346Y49318011D01*
X32598924Y49315525D01*
X32530868Y49244344D01*
X32463402Y49176877D01*
X32463394Y49176868D01*
X32460791Y49173150D01*
X32448671Y49158374D01*
X32443372Y49152831D01*
X32390828Y49073232D01*
X32337899Y48997640D01*
X32334519Y48990393D01*
X32325491Y48974250D01*
X32319363Y48964967D01*
X32283108Y48880142D01*
X32245426Y48799333D01*
X32245425Y48799330D01*
X32242464Y48788282D01*
X32236624Y48771389D01*
X32230897Y48757990D01*
X32230896Y48757987D01*
X32211063Y48671094D01*
X32188793Y48587978D01*
X32188791Y48587969D01*
X32187117Y48568844D01*
X32185777Y48560314D01*
X32180810Y48538545D01*
X32180809Y48538538D01*
X32180809Y48538537D01*
X32176949Y48452603D01*
X32171684Y48392411D01*
X32169723Y48369999D01*
X29830277Y48369999D01*
X29828316Y48392411D01*
X29828140Y48400731D01*
X29829290Y48426330D01*
X29818359Y48507016D01*
X29818033Y48509947D01*
X29811207Y48587977D01*
X29804531Y48612888D01*
X29802956Y48620732D01*
X29799075Y48649387D01*
X29774927Y48723704D01*
X29773992Y48726862D01*
X29762061Y48771389D01*
X29754575Y48799330D01*
X29748145Y48813119D01*
X29742289Y48825678D01*
X29739467Y48832841D01*
X29729517Y48863464D01*
X29694042Y48929387D01*
X29692422Y48932617D01*
X29662104Y48997634D01*
X29662102Y48997638D01*
X29643543Y49024143D01*
X29639668Y49030431D01*
X29635946Y49037348D01*
X29622852Y49061681D01*
X29622849Y49061685D01*
X29622846Y49061690D01*
X29597641Y49093294D01*
X29578214Y49117655D01*
X29575875Y49120783D01*
X29544703Y49165302D01*
X29536598Y49176877D01*
X29511387Y49202088D01*
X29506684Y49207351D01*
X29482510Y49237665D01*
X29482506Y49237668D01*
X29431061Y49282615D01*
X29427977Y49285498D01*
X29381877Y49331598D01*
X29381876Y49331599D01*
X29381875Y49331600D01*
X29381872Y49331602D01*
X29349980Y49353933D01*
X29344675Y49358087D01*
X29312996Y49385765D01*
X29281322Y49404689D01*
X29257173Y49419118D01*
X29253351Y49421594D01*
X29202638Y49457103D01*
X29164368Y49474950D01*
X29158679Y49477965D01*
X29119768Y49501213D01*
X29119763Y49501216D01*
X29061959Y49522910D01*
X29057470Y49524796D01*
X29004330Y49549575D01*
X29004324Y49549577D01*
X28973565Y49557819D01*
X28960378Y49561353D01*
X28954551Y49563221D01*
X28918563Y49576727D01*
X28909030Y49580305D01*
X28909027Y49580306D01*
X28909024Y49580307D01*
X28899272Y49582077D01*
X28851497Y49590748D01*
X28846442Y49591882D01*
X28792977Y49606208D01*
X28744378Y49610460D01*
X28738619Y49611233D01*
X28687552Y49620500D01*
X28687547Y49620500D01*
X28632359Y49620500D01*
X28626866Y49620740D01*
X28575000Y49625277D01*
X28522027Y49620643D01*
X28518843Y49620500D01*
X28464826Y49615639D01*
X28357013Y49606207D01*
X28356505Y49606117D01*
X28351244Y49605417D01*
X28350828Y49605380D01*
X28350798Y49605375D01*
X28247002Y49576728D01*
X28145663Y49549574D01*
X28138766Y49547064D01*
X28134009Y49545544D01*
X28133844Y49545499D01*
X28133830Y49545494D01*
X28039528Y49500081D01*
X27947360Y49457102D01*
X27942602Y49454354D01*
X27942524Y49454489D01*
X27931730Y49448168D01*
X27931034Y49447834D01*
X27931026Y49447829D01*
X27848831Y49388111D01*
X27768122Y49331598D01*
X27767343Y49330819D01*
X27752346Y49318011D01*
X27748924Y49315525D01*
X27680868Y49244344D01*
X27613402Y49176877D01*
X27613394Y49176868D01*
X27610791Y49173150D01*
X27598671Y49158374D01*
X27593372Y49152831D01*
X27540828Y49073232D01*
X27487899Y48997640D01*
X27484519Y48990393D01*
X27475491Y48974250D01*
X27469363Y48964967D01*
X27433108Y48880142D01*
X27395426Y48799333D01*
X27395425Y48799330D01*
X27392464Y48788282D01*
X27386624Y48771389D01*
X27380897Y48757990D01*
X27380896Y48757987D01*
X27361063Y48671094D01*
X27338793Y48587978D01*
X27338791Y48587969D01*
X27337117Y48568844D01*
X27335777Y48560314D01*
X27330810Y48538545D01*
X27330809Y48538538D01*
X27330809Y48538537D01*
X27326949Y48452603D01*
X27321684Y48392411D01*
X27319723Y48369999D01*
X23311001Y48369999D01*
X23383903Y48526337D01*
X23445063Y48754592D01*
X23465659Y48990000D01*
X23445063Y49225408D01*
X23383903Y49453663D01*
X23284035Y49667829D01*
X23284034Y49667830D01*
X23284033Y49667833D01*
X23148501Y49861393D01*
X23148498Y49861397D01*
X23148495Y49861401D01*
X22981401Y50028495D01*
X22980808Y50028910D01*
X22851847Y50119210D01*
X22798180Y50156788D01*
X22753853Y50212244D01*
X22746544Y50282863D01*
X22778575Y50346224D01*
X22798181Y50363213D01*
X22981401Y50491505D01*
X23148495Y50658599D01*
X23284035Y50852170D01*
X23383903Y51066337D01*
X23445063Y51294592D01*
X23454285Y51400002D01*
X26869700Y51400002D01*
X26876955Y51312434D01*
X26880819Y51221469D01*
X26880819Y51221467D01*
X26885925Y51197779D01*
X26887125Y51189701D01*
X26888866Y51168689D01*
X26911205Y51080480D01*
X26931046Y50988417D01*
X26938857Y50968978D01*
X26941475Y50960947D01*
X26945842Y50943702D01*
X26945843Y50943700D01*
X26983655Y50857496D01*
X27019937Y50767208D01*
X27029196Y50752171D01*
X27033248Y50744437D01*
X27039072Y50731158D01*
X27039073Y50731157D01*
X27039076Y50731151D01*
X27086476Y50658599D01*
X27092275Y50649723D01*
X27144927Y50564210D01*
X27144929Y50564208D01*
X27144931Y50564205D01*
X27151447Y50556802D01*
X27162348Y50542469D01*
X27166019Y50536849D01*
X27234027Y50462972D01*
X27302436Y50385245D01*
X27307448Y50381198D01*
X27320980Y50368515D01*
X27323210Y50366093D01*
X27323216Y50366087D01*
X27404933Y50302485D01*
X27487920Y50235477D01*
X27490546Y50234010D01*
X27505014Y50224418D01*
X27506375Y50223529D01*
X27551051Y50199352D01*
X27600162Y50172775D01*
X27696046Y50119210D01*
X27696055Y50119207D01*
X27700715Y50117100D01*
X27705622Y50114921D01*
X27705726Y50115157D01*
X27710499Y50113063D01*
X27761601Y50095520D01*
X27814276Y50077437D01*
X27920829Y50039789D01*
X27921335Y50039703D01*
X27926157Y50038681D01*
X27930005Y50037707D01*
X27930019Y50037702D01*
X28041324Y50019129D01*
X28155800Y49999500D01*
X28155803Y49999500D01*
X28391049Y49999500D01*
X28447418Y50008907D01*
X28452449Y50009540D01*
X28512541Y50014654D01*
X28564579Y50028205D01*
X28570065Y50029373D01*
X28571773Y50029659D01*
X28619981Y50037702D01*
X28677147Y50057329D01*
X28681696Y50058700D01*
X28743249Y50074725D01*
X28789276Y50095532D01*
X28794716Y50097690D01*
X28839503Y50113064D01*
X28895551Y50143397D01*
X28899539Y50145374D01*
X28960486Y50172923D01*
X28999602Y50199362D01*
X29004874Y50202559D01*
X29043626Y50223530D01*
X29096493Y50264680D01*
X29099890Y50267145D01*
X29158003Y50306421D01*
X29189717Y50336818D01*
X29194601Y50341040D01*
X29226784Y50366087D01*
X29274367Y50417779D01*
X29277114Y50420580D01*
X29279769Y50423126D01*
X29330118Y50471379D01*
X29354293Y50504069D01*
X29358577Y50509255D01*
X29383979Y50536847D01*
X29424204Y50598418D01*
X29426260Y50601375D01*
X29471879Y50663053D01*
X29488702Y50696422D01*
X29492217Y50702519D01*
X29507346Y50725675D01*
X29510924Y50731151D01*
X29541778Y50801495D01*
X29543188Y50804489D01*
X29579207Y50875926D01*
X29589190Y50908527D01*
X29591728Y50915368D01*
X29604157Y50943700D01*
X29623817Y51021335D01*
X29624651Y51024318D01*
X29649016Y51103877D01*
X29652928Y51134434D01*
X29654344Y51141887D01*
X29661134Y51168695D01*
X29668132Y51253155D01*
X29679298Y51340346D01*
X29678129Y51367851D01*
X29678288Y51375721D01*
X29680300Y51399996D01*
X29680299Y51400002D01*
X32319700Y51400002D01*
X32326955Y51312434D01*
X32330819Y51221469D01*
X32330819Y51221467D01*
X32335925Y51197779D01*
X32337125Y51189701D01*
X32338866Y51168689D01*
X32361205Y51080480D01*
X32381046Y50988417D01*
X32388857Y50968978D01*
X32391475Y50960947D01*
X32395842Y50943702D01*
X32395843Y50943700D01*
X32433655Y50857496D01*
X32469937Y50767208D01*
X32479196Y50752171D01*
X32483248Y50744437D01*
X32489072Y50731158D01*
X32489073Y50731157D01*
X32489076Y50731151D01*
X32536476Y50658599D01*
X32542275Y50649723D01*
X32594927Y50564210D01*
X32594929Y50564208D01*
X32594931Y50564205D01*
X32601447Y50556802D01*
X32612348Y50542469D01*
X32616019Y50536849D01*
X32684027Y50462972D01*
X32752436Y50385245D01*
X32757448Y50381198D01*
X32770980Y50368515D01*
X32773210Y50366093D01*
X32773216Y50366087D01*
X32854933Y50302485D01*
X32937920Y50235477D01*
X32940546Y50234010D01*
X32955014Y50224418D01*
X32956375Y50223529D01*
X33001051Y50199352D01*
X33050162Y50172775D01*
X33146046Y50119210D01*
X33146055Y50119207D01*
X33150715Y50117100D01*
X33155622Y50114921D01*
X33155726Y50115157D01*
X33160499Y50113063D01*
X33211601Y50095520D01*
X33264276Y50077437D01*
X33370829Y50039789D01*
X33371335Y50039703D01*
X33376157Y50038681D01*
X33380005Y50037707D01*
X33380019Y50037702D01*
X33491324Y50019129D01*
X33605800Y49999500D01*
X33605803Y49999500D01*
X33841049Y49999500D01*
X33897418Y50008907D01*
X33902449Y50009540D01*
X33962541Y50014654D01*
X34014579Y50028205D01*
X34020065Y50029373D01*
X34021773Y50029659D01*
X34069981Y50037702D01*
X34127147Y50057329D01*
X34131696Y50058700D01*
X34193249Y50074725D01*
X34239276Y50095532D01*
X34244716Y50097690D01*
X34289503Y50113064D01*
X34345551Y50143397D01*
X34349539Y50145374D01*
X34410486Y50172923D01*
X34449602Y50199362D01*
X34454874Y50202559D01*
X34493626Y50223530D01*
X34546493Y50264680D01*
X34549890Y50267145D01*
X34608003Y50306421D01*
X34639717Y50336818D01*
X34644601Y50341040D01*
X34676784Y50366087D01*
X34724367Y50417779D01*
X34727114Y50420580D01*
X34729769Y50423126D01*
X34780118Y50471379D01*
X34804293Y50504069D01*
X34808577Y50509255D01*
X34833979Y50536847D01*
X34874204Y50598418D01*
X34876260Y50601375D01*
X34921879Y50663053D01*
X34938702Y50696422D01*
X34942217Y50702519D01*
X34957346Y50725675D01*
X34960924Y50731151D01*
X34991778Y50801495D01*
X34993188Y50804489D01*
X35029207Y50875926D01*
X35039190Y50908527D01*
X35041728Y50915368D01*
X35054157Y50943700D01*
X35073817Y51021335D01*
X35074651Y51024318D01*
X35099016Y51103877D01*
X35102928Y51134434D01*
X35104344Y51141887D01*
X35111134Y51168695D01*
X35118132Y51253155D01*
X35129298Y51340346D01*
X35128129Y51367851D01*
X35128288Y51375721D01*
X35130300Y51399996D01*
X35130299Y51400003D01*
X35123044Y51487568D01*
X35119180Y51578532D01*
X35114073Y51602224D01*
X35112875Y51610290D01*
X35111134Y51631305D01*
X35088794Y51719521D01*
X35068954Y51811581D01*
X35061142Y51831021D01*
X35058523Y51839058D01*
X35057685Y51842364D01*
X35054157Y51856300D01*
X35016344Y51942505D01*
X34980064Y52032790D01*
X34970801Y52047834D01*
X34966749Y52055569D01*
X34960924Y52068849D01*
X34907724Y52150278D01*
X34855069Y52235795D01*
X34855067Y52235798D01*
X34855066Y52235799D01*
X34855065Y52235800D01*
X34848549Y52243204D01*
X34837651Y52257533D01*
X34833981Y52263151D01*
X34765972Y52337030D01*
X34697573Y52414746D01*
X34697567Y52414752D01*
X34697565Y52414754D01*
X34697564Y52414755D01*
X34692550Y52418804D01*
X34679014Y52431491D01*
X34676788Y52433909D01*
X34676779Y52433917D01*
X34642050Y52460947D01*
X34595066Y52497516D01*
X34512080Y52564523D01*
X34512081Y52564523D01*
X34512078Y52564525D01*
X34509451Y52565992D01*
X34494866Y52575660D01*
X34493629Y52576469D01*
X34399837Y52627226D01*
X34303954Y52680790D01*
X34303952Y52680791D01*
X34303948Y52680793D01*
X34299807Y52682665D01*
X34294381Y52685074D01*
X34294280Y52684841D01*
X34289510Y52686933D01*
X34289506Y52686935D01*
X34289503Y52686936D01*
X34185723Y52722564D01*
X34079171Y52760211D01*
X34079170Y52760212D01*
X34079168Y52760212D01*
X34078658Y52760299D01*
X34073850Y52761319D01*
X34069981Y52762299D01*
X33958675Y52780872D01*
X33932587Y52785345D01*
X33844200Y52800500D01*
X33841049Y52800500D01*
X33608951Y52800500D01*
X33581255Y52795879D01*
X33552573Y52791093D01*
X33547546Y52790461D01*
X33487463Y52785347D01*
X33487451Y52785345D01*
X33435428Y52771800D01*
X33429922Y52770626D01*
X33380030Y52762301D01*
X33380021Y52762299D01*
X33322863Y52742677D01*
X33318281Y52741297D01*
X33256756Y52725277D01*
X33256744Y52725273D01*
X33210741Y52704479D01*
X33205247Y52702300D01*
X33160495Y52686936D01*
X33160491Y52686934D01*
X33104475Y52656619D01*
X33100440Y52654619D01*
X33039517Y52627079D01*
X33039509Y52627075D01*
X33000404Y52600646D01*
X32995112Y52597436D01*
X32956373Y52576470D01*
X32956365Y52576464D01*
X32903519Y52535332D01*
X32900102Y52532852D01*
X32841994Y52493577D01*
X32841990Y52493574D01*
X32810292Y52463193D01*
X32805394Y52458960D01*
X32773220Y52433917D01*
X32773203Y52433902D01*
X32725636Y52382229D01*
X32722878Y52379415D01*
X32669883Y52328623D01*
X32645715Y52295946D01*
X32641413Y52290738D01*
X32616026Y52263160D01*
X32616018Y52263150D01*
X32575814Y52201613D01*
X32573725Y52198610D01*
X32545551Y52160515D01*
X32537981Y52150278D01*
X32528120Y52136945D01*
X32511301Y52103588D01*
X32507787Y52097492D01*
X32489075Y52068849D01*
X32489072Y52068842D01*
X32458226Y51998523D01*
X32456788Y51995469D01*
X32420792Y51924072D01*
X32410812Y51891489D01*
X32408267Y51884631D01*
X32395845Y51856308D01*
X32395844Y51856306D01*
X32376181Y51778662D01*
X32375351Y51775693D01*
X32369511Y51756625D01*
X32350984Y51696126D01*
X32347071Y51665576D01*
X32345653Y51658111D01*
X32338866Y51631307D01*
X32331916Y51547441D01*
X32331867Y51546846D01*
X32320702Y51459654D01*
X32320702Y51459651D01*
X32320702Y51459650D01*
X32321869Y51432155D01*
X32321710Y51424276D01*
X32319700Y51400003D01*
X32319700Y51400002D01*
X29680299Y51400002D01*
X29680299Y51400003D01*
X29673044Y51487568D01*
X29669180Y51578532D01*
X29664073Y51602224D01*
X29662875Y51610290D01*
X29661134Y51631305D01*
X29638794Y51719521D01*
X29618954Y51811581D01*
X29611142Y51831021D01*
X29608523Y51839058D01*
X29607685Y51842364D01*
X29604157Y51856300D01*
X29566344Y51942505D01*
X29530064Y52032790D01*
X29520801Y52047834D01*
X29516749Y52055569D01*
X29510924Y52068849D01*
X29457724Y52150278D01*
X29405069Y52235795D01*
X29405067Y52235798D01*
X29405066Y52235799D01*
X29405065Y52235800D01*
X29398549Y52243204D01*
X29387651Y52257533D01*
X29383981Y52263151D01*
X29315972Y52337030D01*
X29247573Y52414746D01*
X29247567Y52414752D01*
X29247565Y52414754D01*
X29247564Y52414755D01*
X29242550Y52418804D01*
X29229014Y52431491D01*
X29226788Y52433909D01*
X29226779Y52433917D01*
X29192050Y52460947D01*
X29145066Y52497516D01*
X29062080Y52564523D01*
X29062081Y52564523D01*
X29062078Y52564525D01*
X29059451Y52565992D01*
X29044866Y52575660D01*
X29043629Y52576469D01*
X28949837Y52627226D01*
X28853954Y52680790D01*
X28853952Y52680791D01*
X28853948Y52680793D01*
X28849807Y52682665D01*
X28844381Y52685074D01*
X28844280Y52684841D01*
X28839510Y52686933D01*
X28839506Y52686935D01*
X28839503Y52686936D01*
X28735723Y52722564D01*
X28629171Y52760211D01*
X28629170Y52760212D01*
X28629168Y52760212D01*
X28628658Y52760299D01*
X28623850Y52761319D01*
X28619981Y52762299D01*
X28508675Y52780872D01*
X28482587Y52785345D01*
X28394200Y52800500D01*
X28391049Y52800500D01*
X28158951Y52800500D01*
X28131255Y52795879D01*
X28102573Y52791093D01*
X28097546Y52790461D01*
X28037463Y52785347D01*
X28037451Y52785345D01*
X27985428Y52771800D01*
X27979922Y52770626D01*
X27930030Y52762301D01*
X27930021Y52762299D01*
X27872863Y52742677D01*
X27868281Y52741297D01*
X27806756Y52725277D01*
X27806744Y52725273D01*
X27760741Y52704479D01*
X27755247Y52702300D01*
X27710495Y52686936D01*
X27710491Y52686934D01*
X27654475Y52656619D01*
X27650440Y52654619D01*
X27589517Y52627079D01*
X27589509Y52627075D01*
X27550404Y52600646D01*
X27545112Y52597436D01*
X27506373Y52576470D01*
X27506365Y52576464D01*
X27453519Y52535332D01*
X27450102Y52532852D01*
X27391994Y52493577D01*
X27391990Y52493574D01*
X27360292Y52463193D01*
X27355394Y52458960D01*
X27323220Y52433917D01*
X27323203Y52433902D01*
X27275636Y52382229D01*
X27272878Y52379415D01*
X27219883Y52328623D01*
X27195715Y52295946D01*
X27191413Y52290738D01*
X27166026Y52263160D01*
X27166018Y52263150D01*
X27125814Y52201613D01*
X27123725Y52198610D01*
X27095551Y52160515D01*
X27087981Y52150278D01*
X27078120Y52136945D01*
X27061301Y52103588D01*
X27057787Y52097492D01*
X27039075Y52068849D01*
X27039072Y52068842D01*
X27008226Y51998523D01*
X27006788Y51995469D01*
X26970792Y51924072D01*
X26960812Y51891489D01*
X26958267Y51884631D01*
X26945845Y51856308D01*
X26945844Y51856306D01*
X26926181Y51778662D01*
X26925351Y51775693D01*
X26919511Y51756625D01*
X26900984Y51696126D01*
X26897071Y51665576D01*
X26895653Y51658111D01*
X26888866Y51631307D01*
X26881916Y51547441D01*
X26881867Y51546846D01*
X26870702Y51459654D01*
X26870702Y51459651D01*
X26870702Y51459650D01*
X26871869Y51432155D01*
X26871710Y51424276D01*
X26869700Y51400003D01*
X26869700Y51400002D01*
X23454285Y51400002D01*
X23465659Y51530000D01*
X23445063Y51765408D01*
X23383903Y51993663D01*
X23284035Y52207829D01*
X23284034Y52207830D01*
X23284033Y52207833D01*
X23148501Y52401393D01*
X23148498Y52401397D01*
X23148495Y52401401D01*
X22981401Y52568495D01*
X22971168Y52575660D01*
X22787830Y52704035D01*
X22742281Y52725275D01*
X22573663Y52803903D01*
X22573661Y52803904D01*
X22345411Y52865063D01*
X22110000Y52885659D01*
X21874588Y52865063D01*
X21646338Y52803904D01*
X21646334Y52803902D01*
X21432167Y52704034D01*
X21238607Y52568502D01*
X21238596Y52568493D01*
X21071507Y52401404D01*
X21071498Y52401393D01*
X20935966Y52207833D01*
X20836098Y51993666D01*
X20836096Y51993662D01*
X20774937Y51765412D01*
X20754341Y51530000D01*
X20774937Y51294589D01*
X20836096Y51066339D01*
X20836097Y51066337D01*
X20924887Y50875926D01*
X20935965Y50852170D01*
X21045024Y50696417D01*
X21071505Y50658599D01*
X21238599Y50491505D01*
X21417714Y50366087D01*
X21421819Y50363213D01*
X21466147Y50307756D01*
X21473456Y50237137D01*
X21441425Y50173776D01*
X21421819Y50156787D01*
X21238602Y50028498D01*
X21238596Y50028493D01*
X21071507Y49861404D01*
X21071498Y49861393D01*
X20935966Y49667833D01*
X20836098Y49453666D01*
X20836096Y49453662D01*
X20774937Y49225412D01*
X20754341Y48990000D01*
X20774937Y48754589D01*
X20836096Y48526339D01*
X20836098Y48526335D01*
X20935965Y48312170D01*
X21071502Y48118603D01*
X21071507Y48118597D01*
X21185400Y48004704D01*
X21219426Y47942392D01*
X21214361Y47871577D01*
X21171814Y47814741D01*
X21140338Y47797553D01*
X21014033Y47750444D01*
X20897095Y47662905D01*
X20809555Y47545966D01*
X20809555Y47545965D01*
X20758505Y47409094D01*
X20752000Y47348598D01*
X20752000Y46704000D01*
X21666999Y46704000D01*
X21641318Y46664040D01*
X21600000Y46523327D01*
X21600000Y46376673D01*
X21641318Y46235960D01*
X21666999Y46196000D01*
X20752000Y46196000D01*
X20752000Y45551403D01*
X20758505Y45490907D01*
X20809555Y45354036D01*
X20809555Y45354035D01*
X20897095Y45237096D01*
X21014034Y45149556D01*
X21140337Y45102448D01*
X21197173Y45059901D01*
X21221984Y44993381D01*
X21206893Y44924007D01*
X21185401Y44895297D01*
X21071502Y44781398D01*
X21071498Y44781393D01*
X20935966Y44587833D01*
X20836098Y44373666D01*
X20836096Y44373662D01*
X20774937Y44145412D01*
X20754341Y43910000D01*
X20774937Y43674589D01*
X20813220Y43531715D01*
X20836097Y43446337D01*
X20935965Y43232170D01*
X21071505Y43038599D01*
X21238599Y42871505D01*
X21238602Y42871503D01*
X21421819Y42743213D01*
X21466147Y42687756D01*
X21473456Y42617137D01*
X21441425Y42553776D01*
X21421819Y42536787D01*
X21238602Y42408498D01*
X21238596Y42408493D01*
X21071507Y42241404D01*
X21071498Y42241393D01*
X20935966Y42047833D01*
X20836098Y41833666D01*
X20836096Y41833662D01*
X20774937Y41605412D01*
X20754341Y41370000D01*
X20774937Y41134589D01*
X20836096Y40906339D01*
X20836098Y40906335D01*
X20935965Y40692170D01*
X21057573Y40518495D01*
X21071505Y40498599D01*
X21238599Y40331505D01*
X21238602Y40331503D01*
X21421819Y40203213D01*
X21466147Y40147756D01*
X21473456Y40077137D01*
X21441425Y40013776D01*
X21421819Y39996787D01*
X21238602Y39868498D01*
X21238596Y39868493D01*
X21071507Y39701404D01*
X21071498Y39701393D01*
X20935966Y39507833D01*
X20836098Y39293666D01*
X20836096Y39293662D01*
X20774937Y39065412D01*
X20754341Y38830000D01*
X20774937Y38594589D01*
X20836096Y38366339D01*
X20836098Y38366335D01*
X20935965Y38152170D01*
X20985960Y38080769D01*
X21071505Y37958599D01*
X21238599Y37791505D01*
X21238602Y37791503D01*
X21421819Y37663213D01*
X21466147Y37607756D01*
X21473456Y37537137D01*
X21441425Y37473776D01*
X21421819Y37456787D01*
X21238602Y37328498D01*
X21238596Y37328493D01*
X21071507Y37161404D01*
X21071498Y37161393D01*
X20935966Y36967833D01*
X20836098Y36753666D01*
X20836096Y36753662D01*
X20774937Y36525412D01*
X20754341Y36290000D01*
X20774937Y36054589D01*
X20836096Y35826339D01*
X20836097Y35826337D01*
X20871461Y35750499D01*
X20935965Y35612170D01*
X21071502Y35418603D01*
X21071507Y35418597D01*
X21185400Y35304704D01*
X21219426Y35242392D01*
X21214361Y35171577D01*
X21171814Y35114741D01*
X21140338Y35097553D01*
X21014033Y35050444D01*
X20897095Y34962905D01*
X20809555Y34845966D01*
X20809555Y34845965D01*
X20758505Y34709094D01*
X20752000Y34648598D01*
X20752000Y34004000D01*
X21666999Y34004000D01*
X21641318Y33964040D01*
X21600000Y33823327D01*
X21600000Y33676673D01*
X21641318Y33535960D01*
X21666999Y33496000D01*
X20752000Y33496000D01*
X20752000Y32851403D01*
X20758505Y32790907D01*
X20809555Y32654036D01*
X20809555Y32654035D01*
X20897095Y32537096D01*
X21014034Y32449556D01*
X21140337Y32402448D01*
X21197173Y32359901D01*
X21221984Y32293381D01*
X21206893Y32224007D01*
X21185401Y32195297D01*
X21071502Y32081398D01*
X21071498Y32081393D01*
X20935966Y31887833D01*
X20836098Y31673666D01*
X20836096Y31673662D01*
X20774937Y31445412D01*
X20754341Y31210000D01*
X20774937Y30974589D01*
X20836096Y30746339D01*
X20836097Y30746337D01*
X20935965Y30532170D01*
X21071505Y30338599D01*
X21238599Y30171505D01*
X21238602Y30171503D01*
X21421819Y30043213D01*
X21466147Y29987756D01*
X21473456Y29917137D01*
X21441425Y29853776D01*
X21421819Y29836787D01*
X21238602Y29708498D01*
X21238596Y29708493D01*
X21071507Y29541404D01*
X21071498Y29541393D01*
X20935966Y29347833D01*
X20836098Y29133666D01*
X20836096Y29133662D01*
X20774937Y28905412D01*
X20754341Y28670000D01*
X20774937Y28434589D01*
X20834648Y28211744D01*
X20836097Y28206337D01*
X20935965Y27992170D01*
X21071505Y27798599D01*
X21238599Y27631505D01*
X21370915Y27538856D01*
X21421819Y27503213D01*
X21466147Y27447756D01*
X21473456Y27377137D01*
X21441425Y27313776D01*
X21421819Y27296787D01*
X21238602Y27168498D01*
X21238596Y27168493D01*
X21071507Y27001404D01*
X21071498Y27001393D01*
X20935966Y26807833D01*
X20836098Y26593666D01*
X20836096Y26593662D01*
X20774937Y26365412D01*
X20754341Y26130000D01*
X20774937Y25894589D01*
X20836096Y25666339D01*
X20836097Y25666337D01*
X20935965Y25452170D01*
X21071505Y25258599D01*
X21238599Y25091505D01*
X21238602Y25091503D01*
X21421819Y24963213D01*
X21466147Y24907756D01*
X21473456Y24837137D01*
X21441425Y24773776D01*
X21421819Y24756787D01*
X21238602Y24628498D01*
X21238596Y24628493D01*
X21071507Y24461404D01*
X21071498Y24461393D01*
X20935966Y24267833D01*
X20836098Y24053666D01*
X20836096Y24053662D01*
X20774937Y23825412D01*
X20754341Y23590000D01*
X20774937Y23354589D01*
X20836096Y23126339D01*
X20836098Y23126335D01*
X20935965Y22912170D01*
X21071502Y22718603D01*
X21071507Y22718597D01*
X21185400Y22604704D01*
X21219426Y22542392D01*
X21214361Y22471577D01*
X21171814Y22414741D01*
X21140338Y22397553D01*
X21014033Y22350444D01*
X20897095Y22262905D01*
X20809555Y22145966D01*
X20809555Y22145965D01*
X20758505Y22009094D01*
X20752000Y21948598D01*
X20752000Y21304000D01*
X21666999Y21304000D01*
X21641318Y21264040D01*
X21600000Y21123327D01*
X21600000Y20976673D01*
X21641318Y20835960D01*
X21666999Y20796000D01*
X20752000Y20796000D01*
X20752000Y20151403D01*
X20758505Y20090907D01*
X20809555Y19954036D01*
X20809555Y19954035D01*
X20897095Y19837096D01*
X21014034Y19749556D01*
X21140337Y19702448D01*
X21197173Y19659901D01*
X21221984Y19593381D01*
X21206893Y19524007D01*
X21185401Y19495297D01*
X21071502Y19381398D01*
X21071498Y19381393D01*
X20935966Y19187833D01*
X20836098Y18973666D01*
X20836096Y18973662D01*
X20774937Y18745412D01*
X20754341Y18510000D01*
X20774937Y18274589D01*
X20836096Y18046339D01*
X20836097Y18046337D01*
X20935965Y17832170D01*
X21071505Y17638599D01*
X21238599Y17471505D01*
X21238602Y17471503D01*
X21421819Y17343213D01*
X21466147Y17287756D01*
X21473456Y17217137D01*
X21441425Y17153776D01*
X21421819Y17136787D01*
X21238602Y17008498D01*
X21238596Y17008493D01*
X21071507Y16841404D01*
X21071498Y16841393D01*
X20935966Y16647833D01*
X20836098Y16433666D01*
X20836096Y16433662D01*
X20774937Y16205412D01*
X20754341Y15970000D01*
X20774937Y15734589D01*
X20836096Y15506339D01*
X20836097Y15506337D01*
X20935965Y15292170D01*
X21071505Y15098599D01*
X21238599Y14931505D01*
X21238602Y14931503D01*
X21421819Y14803213D01*
X21466147Y14747756D01*
X21473456Y14677137D01*
X21441425Y14613776D01*
X21421819Y14596787D01*
X21238602Y14468498D01*
X21238596Y14468493D01*
X21071507Y14301404D01*
X21071498Y14301393D01*
X20935966Y14107833D01*
X20836098Y13893666D01*
X20836096Y13893662D01*
X20774937Y13665412D01*
X20754341Y13430000D01*
X20774937Y13194589D01*
X20836096Y12966339D01*
X20836098Y12966335D01*
X20935965Y12752170D01*
X21067663Y12564085D01*
X21071505Y12558599D01*
X21238599Y12391505D01*
X21238602Y12391503D01*
X21421819Y12263213D01*
X21466147Y12207756D01*
X21473456Y12137137D01*
X21441425Y12073776D01*
X21421819Y12056787D01*
X21238602Y11928498D01*
X21238596Y11928493D01*
X21071507Y11761404D01*
X21071498Y11761393D01*
X20935966Y11567833D01*
X20836098Y11353666D01*
X20836096Y11353662D01*
X20774937Y11125412D01*
X20754341Y10890000D01*
X20774937Y10654589D01*
X20836096Y10426339D01*
X20836098Y10426335D01*
X20935965Y10212170D01*
X21071502Y10018603D01*
X21071507Y10018597D01*
X21185400Y9904704D01*
X21219426Y9842392D01*
X21214361Y9771577D01*
X21171814Y9714741D01*
X21140338Y9697553D01*
X21014033Y9650444D01*
X20897095Y9562905D01*
X20809555Y9445966D01*
X20809555Y9445965D01*
X20758505Y9309094D01*
X20752000Y9248598D01*
X20752000Y8604000D01*
X21666999Y8604000D01*
X21641318Y8564040D01*
X21600000Y8423327D01*
X21600000Y8276673D01*
X21641318Y8135960D01*
X21666999Y8096000D01*
X20752000Y8096000D01*
X20752000Y7451403D01*
X8000000Y7451403D01*
X8000000Y8000000D01*
X126500Y8000000D01*
X58379Y8020002D01*
X11886Y8073658D01*
X500Y8126000D01*
X500Y12750000D01*
X1237337Y12750000D01*
X1255960Y12513368D01*
X1311371Y12282563D01*
X1402206Y12063267D01*
X1516897Y11876109D01*
X2223097Y12582309D01*
X2226884Y12564085D01*
X2296442Y12429844D01*
X2399638Y12319348D01*
X2528819Y12240791D01*
X2584421Y12225212D01*
X1876107Y11516899D01*
X1876107Y11516898D01*
X2063261Y11402209D01*
X2282562Y11311372D01*
X2513367Y11255961D01*
X2750000Y11237338D01*
X2986632Y11255961D01*
X3217437Y11311372D01*
X3436738Y11402209D01*
X3623891Y11516898D01*
X3623892Y11516899D01*
X2917625Y12223166D01*
X3038458Y12275651D01*
X3155739Y12371066D01*
X3242928Y12494585D01*
X3274837Y12584372D01*
X3983101Y11876108D01*
X3983102Y11876109D01*
X4097791Y12063262D01*
X4188628Y12282563D01*
X4244039Y12513368D01*
X4262662Y12750000D01*
X7737337Y12750000D01*
X7755960Y12513368D01*
X7811371Y12282563D01*
X7902206Y12063267D01*
X8016897Y11876109D01*
X8723097Y12582309D01*
X8726884Y12564085D01*
X8796442Y12429844D01*
X8899638Y12319348D01*
X9028819Y12240791D01*
X9084421Y12225212D01*
X8376107Y11516899D01*
X8376107Y11516898D01*
X8563261Y11402209D01*
X8782562Y11311372D01*
X9013367Y11255961D01*
X9250000Y11237338D01*
X9486632Y11255961D01*
X9717437Y11311372D01*
X9936738Y11402209D01*
X10123891Y11516898D01*
X10123892Y11516899D01*
X9417625Y12223166D01*
X9538458Y12275651D01*
X9655739Y12371066D01*
X9742928Y12494585D01*
X9774837Y12584372D01*
X10483101Y11876108D01*
X10483102Y11876109D01*
X10597791Y12063262D01*
X10688628Y12282563D01*
X10744039Y12513368D01*
X10762662Y12750000D01*
X10744039Y12986633D01*
X10688628Y13217438D01*
X10597791Y13436739D01*
X10483102Y13623893D01*
X10483101Y13623893D01*
X9776902Y12917694D01*
X9773116Y12935915D01*
X9703558Y13070156D01*
X9600362Y13180652D01*
X9471181Y13259209D01*
X9415577Y13274789D01*
X10123891Y13983103D01*
X9936733Y14097794D01*
X9717437Y14188629D01*
X9486632Y14244040D01*
X9250000Y14262663D01*
X9013367Y14244040D01*
X8782562Y14188629D01*
X8563262Y14097792D01*
X8376107Y13983104D01*
X8376107Y13983102D01*
X9082374Y13276835D01*
X8961542Y13224349D01*
X8844261Y13128934D01*
X8757072Y13005415D01*
X8725162Y12915629D01*
X8016898Y13623893D01*
X8016896Y13623893D01*
X7902208Y13436738D01*
X7811371Y13217438D01*
X7755960Y12986633D01*
X7737337Y12750000D01*
X4262662Y12750000D01*
X4244039Y12986633D01*
X4188628Y13217438D01*
X4097791Y13436739D01*
X3983102Y13623893D01*
X3983101Y13623893D01*
X3276902Y12917694D01*
X3273116Y12935915D01*
X3203558Y13070156D01*
X3100362Y13180652D01*
X2971181Y13259209D01*
X2915577Y13274789D01*
X3623891Y13983103D01*
X3436733Y14097794D01*
X3217437Y14188629D01*
X2986632Y14244040D01*
X2750000Y14262663D01*
X2513367Y14244040D01*
X2282562Y14188629D01*
X2063262Y14097792D01*
X1876107Y13983104D01*
X1876107Y13983102D01*
X2582374Y13276835D01*
X2461542Y13224349D01*
X2344261Y13128934D01*
X2257072Y13005415D01*
X2225162Y12915629D01*
X1516898Y13623893D01*
X1516896Y13623893D01*
X1402208Y13436738D01*
X1311371Y13217438D01*
X1255960Y12986633D01*
X1237337Y12750000D01*
X500Y12750000D01*
X500Y17250000D01*
X1244357Y17250000D01*
X1264368Y17008498D01*
X1264893Y17002172D01*
X1325935Y16761123D01*
X1325938Y16761116D01*
X1425826Y16533394D01*
X1561835Y16325215D01*
X1730249Y16142268D01*
X1730254Y16142264D01*
X1730256Y16142262D01*
X1926490Y15989527D01*
X1926491Y15989526D01*
X2145190Y15871172D01*
X2145192Y15871171D01*
X2268677Y15828779D01*
X2380386Y15790429D01*
X2625665Y15749500D01*
X2625669Y15749500D01*
X2874331Y15749500D01*
X2874335Y15749500D01*
X3119614Y15790429D01*
X3354810Y15871172D01*
X3573509Y15989526D01*
X3769744Y16142262D01*
X3938164Y16325215D01*
X4074173Y16533393D01*
X4174063Y16761119D01*
X4235108Y17002179D01*
X4255643Y17250000D01*
X7744357Y17250000D01*
X7764368Y17008498D01*
X7764893Y17002172D01*
X7825935Y16761123D01*
X7825938Y16761116D01*
X7925826Y16533394D01*
X8061835Y16325215D01*
X8230249Y16142268D01*
X8230254Y16142264D01*
X8230256Y16142262D01*
X8426490Y15989527D01*
X8426491Y15989526D01*
X8645190Y15871172D01*
X8645192Y15871171D01*
X8768677Y15828779D01*
X8880386Y15790429D01*
X9125665Y15749500D01*
X9125669Y15749500D01*
X9374331Y15749500D01*
X9374335Y15749500D01*
X9619614Y15790429D01*
X9854810Y15871172D01*
X10073509Y15989526D01*
X10269744Y16142262D01*
X10438164Y16325215D01*
X10574173Y16533393D01*
X10674063Y16761119D01*
X10735108Y17002179D01*
X10755643Y17250000D01*
X10735108Y17497821D01*
X10735106Y17497829D01*
X10674064Y17738878D01*
X10674061Y17738885D01*
X10633142Y17832170D01*
X10574173Y17966607D01*
X10438164Y18174786D01*
X10269750Y18357733D01*
X10073509Y18510474D01*
X10073508Y18510475D01*
X9854809Y18628829D01*
X9854807Y18628830D01*
X9619618Y18709570D01*
X9619609Y18709572D01*
X9570836Y18717711D01*
X9374335Y18750500D01*
X9125665Y18750500D01*
X8961953Y18723182D01*
X8880390Y18709572D01*
X8880381Y18709570D01*
X8645192Y18628830D01*
X8645190Y18628829D01*
X8426491Y18510475D01*
X8426490Y18510474D01*
X8230249Y18357733D01*
X8061835Y18174786D01*
X7925826Y17966607D01*
X7825938Y17738885D01*
X7825935Y17738878D01*
X7764893Y17497829D01*
X7764892Y17497823D01*
X7764892Y17497821D01*
X7744357Y17250000D01*
X4255643Y17250000D01*
X4235108Y17497821D01*
X4235106Y17497829D01*
X4174064Y17738878D01*
X4174061Y17738885D01*
X4133142Y17832170D01*
X4074173Y17966607D01*
X3938164Y18174786D01*
X3769750Y18357733D01*
X3573509Y18510474D01*
X3573508Y18510475D01*
X3354809Y18628829D01*
X3354807Y18628830D01*
X3119618Y18709570D01*
X3119609Y18709572D01*
X3070836Y18717711D01*
X2874335Y18750500D01*
X2625665Y18750500D01*
X2461953Y18723182D01*
X2380390Y18709572D01*
X2380381Y18709570D01*
X2145192Y18628830D01*
X2145190Y18628829D01*
X1926491Y18510475D01*
X1926490Y18510474D01*
X1730249Y18357733D01*
X1561835Y18174786D01*
X1425826Y17966607D01*
X1325938Y17738885D01*
X1325935Y17738878D01*
X1264893Y17497829D01*
X1264892Y17497823D01*
X1264892Y17497821D01*
X1244357Y17250000D01*
X500Y17250000D01*
X500Y28400000D01*
X12294540Y28400000D01*
X12314325Y28211744D01*
X12372818Y28031722D01*
X12372822Y28031714D01*
X12467465Y27867786D01*
X12467466Y27867784D01*
X12594126Y27727114D01*
X12747267Y27615851D01*
X12747267Y27615850D01*
X12780403Y27601097D01*
X12920197Y27538856D01*
X13105354Y27499500D01*
X13109539Y27499500D01*
X13111873Y27498815D01*
X13111916Y27498810D01*
X13111915Y27498803D01*
X13177660Y27479498D01*
X13224153Y27425842D01*
X13234257Y27355568D01*
X13229372Y27334564D01*
X13214325Y27288257D01*
X13194540Y27100000D01*
X13214325Y26911744D01*
X13272818Y26731722D01*
X13272822Y26731714D01*
X13367465Y26567786D01*
X13367466Y26567784D01*
X13494126Y26427114D01*
X13647267Y26315851D01*
X13647267Y26315850D01*
X13694612Y26294771D01*
X13820197Y26238856D01*
X14005354Y26199500D01*
X14194646Y26199500D01*
X14379803Y26238856D01*
X14552730Y26315849D01*
X14552730Y26315850D01*
X14552732Y26315850D01*
X14552732Y26315851D01*
X14705871Y26427112D01*
X14832533Y26567784D01*
X14927179Y26731716D01*
X14985674Y26911744D01*
X15005460Y27100000D01*
X14985674Y27288256D01*
X14949366Y27400000D01*
X14927181Y27468279D01*
X14927179Y27468284D01*
X14867380Y27571860D01*
X14850500Y27634859D01*
X14850500Y43365143D01*
X14867381Y43428143D01*
X14877885Y43446337D01*
X14927179Y43531716D01*
X14985674Y43711744D01*
X15005460Y43900000D01*
X14985674Y44088256D01*
X14927179Y44268284D01*
X14832534Y44432215D01*
X14832533Y44432217D01*
X14705873Y44572887D01*
X14552732Y44684150D01*
X14552732Y44684151D01*
X14427145Y44740066D01*
X14379803Y44761144D01*
X14379801Y44761145D01*
X14379800Y44761145D01*
X14194646Y44800500D01*
X14005354Y44800500D01*
X13820199Y44761145D01*
X13647267Y44684151D01*
X13647267Y44684150D01*
X13494126Y44572887D01*
X13367466Y44432217D01*
X13367465Y44432215D01*
X13272822Y44268287D01*
X13272818Y44268279D01*
X13214325Y44088257D01*
X13194540Y43900000D01*
X13214325Y43711744D01*
X13272818Y43531722D01*
X13272821Y43531715D01*
X13332619Y43428143D01*
X13349500Y43365143D01*
X13349500Y42326500D01*
X13329498Y42258379D01*
X13275842Y42211886D01*
X13223500Y42200500D01*
X13105354Y42200500D01*
X12920199Y42161145D01*
X12747267Y42084151D01*
X12747267Y42084150D01*
X12594126Y41972887D01*
X12467466Y41832217D01*
X12467465Y41832215D01*
X12372822Y41668287D01*
X12372818Y41668279D01*
X12314325Y41488257D01*
X12294540Y41300000D01*
X12314325Y41111744D01*
X12372818Y40931722D01*
X12372821Y40931715D01*
X12432619Y40828143D01*
X12449500Y40765143D01*
X12449500Y28934859D01*
X12432620Y28871860D01*
X12372820Y28768284D01*
X12372818Y28768279D01*
X12314325Y28588257D01*
X12294540Y28400000D01*
X500Y28400000D01*
X500Y39480000D01*
X9019341Y39480000D01*
X9039937Y39244589D01*
X9101096Y39016339D01*
X9101097Y39016337D01*
X9200965Y38802170D01*
X9336505Y38608599D01*
X9503599Y38441505D01*
X9503602Y38441503D01*
X9682117Y38316505D01*
X9726445Y38261048D01*
X9733754Y38190429D01*
X9701723Y38127068D01*
X9669816Y38102479D01*
X9629704Y38080772D01*
X9629698Y38080768D01*
X9452097Y37942535D01*
X9299674Y37776959D01*
X9176580Y37588549D01*
X9086179Y37382457D01*
X9086176Y37382450D01*
X9038455Y37194001D01*
X9038456Y37194000D01*
X9943884Y37194000D01*
X9915507Y37149844D01*
X9875000Y37011889D01*
X9875000Y36868111D01*
X9915507Y36730156D01*
X9943884Y36686000D01*
X9038455Y36686000D01*
X9086176Y36497551D01*
X9086179Y36497544D01*
X9176580Y36291452D01*
X9299676Y36103039D01*
X9448832Y35941012D01*
X9480253Y35877347D01*
X9472266Y35806801D01*
X9427407Y35751772D01*
X9400163Y35737619D01*
X9282671Y35693798D01*
X9282670Y35693797D01*
X9167453Y35607547D01*
X9081203Y35492330D01*
X9081201Y35492327D01*
X9030909Y35357485D01*
X9024500Y35297879D01*
X9024500Y33502136D01*
X9024502Y33502115D01*
X9030908Y33442520D01*
X9030908Y33442519D01*
X9081201Y33307674D01*
X9081203Y33307671D01*
X9167453Y33192454D01*
X9225061Y33149329D01*
X9282669Y33106204D01*
X9282671Y33106204D01*
X9282673Y33106202D01*
X9343030Y33083691D01*
X9417514Y33055910D01*
X9417517Y33055909D01*
X9477127Y33049500D01*
X11272872Y33049501D01*
X11332483Y33055909D01*
X11467331Y33106204D01*
X11582546Y33192454D01*
X11668796Y33307669D01*
X11719091Y33442517D01*
X11725500Y33502127D01*
X11725499Y35297872D01*
X11719091Y35357483D01*
X11696295Y35418603D01*
X11668798Y35492327D01*
X11668796Y35492330D01*
X11668796Y35492331D01*
X11625671Y35549939D01*
X11582546Y35607547D01*
X11505591Y35665155D01*
X11467331Y35693796D01*
X11467329Y35693797D01*
X11467328Y35693798D01*
X11349836Y35737619D01*
X11293000Y35780165D01*
X11268189Y35846686D01*
X11283280Y35916060D01*
X11301167Y35941013D01*
X11450325Y36103042D01*
X11573419Y36291452D01*
X11663820Y36497544D01*
X11663823Y36497551D01*
X11711544Y36686000D01*
X10806116Y36686000D01*
X10834493Y36730156D01*
X10875000Y36868111D01*
X10875000Y37011889D01*
X10834493Y37149844D01*
X10806116Y37194000D01*
X11711544Y37194000D01*
X11711544Y37194001D01*
X11663823Y37382450D01*
X11663820Y37382457D01*
X11573419Y37588549D01*
X11450325Y37776959D01*
X11297902Y37942535D01*
X11120301Y38080768D01*
X11120300Y38080769D01*
X11080184Y38102478D01*
X11029793Y38152492D01*
X11014441Y38221808D01*
X11039002Y38288421D01*
X11067883Y38316505D01*
X11246392Y38441499D01*
X11246401Y38441505D01*
X11413495Y38608599D01*
X11549035Y38802170D01*
X11648903Y39016337D01*
X11710063Y39244592D01*
X11730659Y39480000D01*
X11710063Y39715408D01*
X11648903Y39943663D01*
X11549035Y40157829D01*
X11549034Y40157830D01*
X11549033Y40157833D01*
X11413501Y40351393D01*
X11413498Y40351397D01*
X11413495Y40351401D01*
X11246401Y40518495D01*
X11052830Y40654035D01*
X10838663Y40753903D01*
X10838661Y40753904D01*
X10610411Y40815063D01*
X10375000Y40835659D01*
X10139588Y40815063D01*
X9911338Y40753904D01*
X9911334Y40753902D01*
X9697167Y40654034D01*
X9503607Y40518502D01*
X9503596Y40518493D01*
X9336507Y40351404D01*
X9336498Y40351393D01*
X9200966Y40157833D01*
X9101098Y39943666D01*
X9101096Y39943662D01*
X9039937Y39715412D01*
X9019341Y39480000D01*
X500Y39480000D01*
X500Y45874000D01*
X20502Y45942121D01*
X74158Y45988614D01*
X126500Y46000000D01*
X8000000Y46000000D01*
X8000000Y53873500D01*
X8020002Y53941621D01*
X8073658Y53988114D01*
X8126000Y53999500D01*
X45874000Y53999500D01*
X45942121Y53979498D01*
G37*
%TD.AperFunction*%
%TD*%
M02*
