M48
; DRILL file {KiCad 7.0.8} date Sat Oct  7 15:53:13 2023
; FORMAT={-:-/ absolute / metric / decimal}
; #@! TF.CreationDate,2023-10-07T15:53:13+09:00
; #@! TF.GenerationSoftware,Kicad,Pcbnew,7.0.8
; #@! TF.FileFunction,Plated,1,2,PTH
FMAT,2
METRIC
; #@! TA.AperFunction,Plated,PTH,ViaDrill
T1C0.400
; #@! TA.AperFunction,Plated,PTH,ComponentDrill
T2C1.000
; #@! TA.AperFunction,Plated,PTH,ComponentDrill
T3C1.020
; #@! TA.AperFunction,Plated,PTH,ComponentDrill
T4C1.100
%
G90
G05
T1
X2.1Y21.8
X13.2Y41.3
X13.2Y28.4
X14.1Y43.9
X14.1Y27.1
T2
X10.375Y39.48
X10.375Y36.94
X10.375Y34.4
X31.55Y21.7
X34.1Y21.7
X36.65Y21.7
T3
X22.11Y51.53
X22.11Y48.99
X22.11Y46.45
X22.11Y43.91
X22.11Y41.37
X22.11Y38.83
X22.11Y36.29
X22.11Y33.75
X22.11Y31.21
X22.11Y28.67
X22.11Y26.13
X22.11Y23.59
X22.11Y21.05
X22.11Y18.51
X22.11Y15.97
X22.11Y13.43
X22.11Y10.89
X22.11Y8.35
X22.11Y5.81
X22.11Y3.27
X28.46Y3.5
X31.0Y3.5
X33.54Y3.5
X39.89Y51.53
X39.89Y48.99
X39.89Y46.45
X39.89Y43.91
X39.89Y41.37
X39.89Y38.83
X39.89Y36.29
X39.89Y33.75
X39.89Y31.21
X39.89Y28.67
X39.89Y26.13
X39.89Y23.59
X39.89Y21.05
X39.89Y18.51
X39.89Y15.97
X39.89Y13.43
X39.89Y10.89
X39.89Y8.35
X39.89Y5.81
X39.89Y3.27
T4
X2.75Y17.25
X2.75Y12.75
X9.25Y17.25
X9.25Y12.75
T0
M30
